<svg xmlns="http://www.w3.org/2000/svg" id="Layer_1" x="0" y="0" version="1.1" viewBox="0 0 200 50" xml:space="preserve"><defs/><style>.st0{fill:#231f20}.st1{fill:#ce3843}</style><path d="M56.7 41.1l-.7.2c-.1.1-.3.2-.3.4a4 4 0 00-.3 1l-1.8 6.8h-.9l-2.2-6.3-2 6.3h-.9l-2-7-.3-.9-.3-.4-.6-.1v-.6h3.7v.6l-.6.1-.2.4.1.7 1.2 4.4 2-6.1h.8l2.1 6.1 1.1-4.1.1-.7c0-.3-.1-.5-.3-.6l-.7-.1v-.6h2.9v.5zM61.5 49.3h-4.3v-.6l.8-.1.4-.3.1-.6v-5.5l-.2-.8c-.2-.2-.5-.2-1-.2v-.6h4.3v.6l-.8.1-.4.3-.1.6v5.5l.1.6.3.3.8.1v.6zM70.5 43h-.6l-.3-1.2c-.2-.3-.4-.4-.6-.5l-.7-.1h-1.1v6.4l.1.6.4.3.8.1v.6h-4.3v-.6l1-.2c.2-.2.2-.4.2-.8v-6.4h-.9l-.9.1c-.2.1-.4.2-.6.5-.2.3-.3.7-.3 1.2h-.6v-2.5h8.4V43zM81.1 49.3h-4.2v-.6l.8-.1.3-.3.1-.6V45h-3.9v2.6l.2.8c.1.2.5.2 1 .2v.6h-4.2v-.6l.8-.1.3-.3.1-.6v-5.5l-.1-.6-.3-.3-.8-.1v-.6h4.2v.6l-1 .2-.2.8v2.2h3.9v-2.2l-.1-.6-.3-.3-.8-.1v-.6h4.2v.6l-.8.1-.3.3-.1.6v5.5l.1.6.3.3.8.1v.7zM91.5 44.9c0 .8-.2 1.5-.6 2.2-.4.7-.9 1.3-1.6 1.7-.7.4-1.6.6-2.6.6a4.6 4.6 0 01-3.6-1.5c-.4-.4-.7-.9-.9-1.5l-.2-1.5c0-.8.2-1.5.5-2.2.4-.7.9-1.3 1.6-1.7.7-.4 1.6-.6 2.6-.6.9 0 1.7.2 2.3.5s1.1.7 1.5 1.2c.4.5.6 1 .8 1.5l.2 1.3zm-2 0l-.1-1.4-.4-1.2c-.2-.4-.5-.6-.8-.8-.4-.2-.8-.3-1.3-.3-.7 0-1.3.2-1.7.6-.4.4-.7.8-.8 1.4l-.2 1.8.1 1.1.3 1.2c.2.4.5.8.8 1 .4.3.9.4 1.5.4s1.1-.1 1.5-.4c.4-.3.7-.6.8-1.1l.3-1.2v-1.1zM101.5 41.1l-.8.1c-.2.1-.3.2-.3.4l-.1.8v3.2l-.1 1.3-.3.9c-.3.6-.8 1-1.3 1.2a5 5 0 01-1.6.3 6.1 6.1 0 01-2.4-.7c-.4-.2-.6-.6-.8-1l-.2-.7-.1-.6v-4.5l-.2-.8c-.1-.2-.5-.2-1-.2v-.6h4.3v.6l-.8.1-.4.3-.1.6v3.7l.1 1 .2.7c.1.4.4.6.7.8.3.2.7.3 1.1.3l1.2-.3c.4-.2.6-.5.8-.9l.2-.9.1-1.1v-3.2-.6l-.1-.4-.4-.2-.7-.1V40h3.1v1.1zM110.5 43h-.6l-.3-1.2c-.2-.3-.4-.4-.6-.5l-.7-.1h-1.1v6.4l.1.6.4.3.8.1v.6h-4.3v-.6l1-.2c.2-.2.2-.4.2-.8v-6.4h-.9l-.9.1c-.2.1-.4.2-.6.5s-.3.7-.3 1.2h-.6v-2.5h8.4V43zM122 47c0 .5-.1.9-.4 1.2-.2.3-.5.6-.9.7-.4.2-.7.3-1.1.3l-1 .1h-4.3v-.6l.8-.1.3-.3.1-.6v-5.6l-.2-.8c-.2-.2-.5-.2-1-.2v-.6h4l1.4.1c.5.1.9.3 1.3.6s.6.8.6 1.4c0 .5-.2.9-.5 1.2-.3.3-.8.6-1.6.8.5.1.9.2 1.3.5.4.2.6.5.8.8.3.3.4.7.4 1.1zm-2.2-4.4l-.2-.8c-.1-.2-.3-.4-.6-.5l-1-.2h-.7v3.2h.5c.7 0 1.2-.1 1.5-.4.4-.4.5-.8.5-1.3zm.3 4.3c0-.6-.1-1.1-.4-1.4-.3-.3-.7-.5-1.3-.5h-1V47.3l.1.7c0 .2.1.3.3.4l.7.1a2 2 0 001.2-.4c.2-.2.4-.6.4-1.2zM132.5 44.9c0 .8-.2 1.5-.6 2.2-.4.7-.9 1.3-1.6 1.7-.7.4-1.6.6-2.6.6a4.6 4.6 0 01-3.6-1.5c-.4-.4-.7-.9-.9-1.5-.2-.5-.3-1.1-.3-1.6 0-.8.2-1.5.5-2.2.4-.7.9-1.3 1.6-1.7.7-.4 1.6-.6 2.6-.6.9 0 1.7.2 2.3.5s1.1.7 1.5 1.2c.4.5.6 1 .8 1.5s.3.9.3 1.4zm-2 0l-.1-1.4-.4-1.2c-.2-.4-.5-.6-.8-.8-.4-.2-.8-.3-1.3-.3-.7 0-1.3.2-1.7.6-.4.4-.7.8-.8 1.4l-.2 1.8.1 1.1.3 1.2c.2.4.5.8.8 1 .4.3.9.4 1.5.4s1.1-.1 1.5-.4c.4-.3.7-.6.8-1.1l.3-1.2v-1.1zM142.6 41.1l-.8.1c-.2.1-.3.2-.3.4l-.1.8v3.2l-.1 1.3-.3.9c-.3.6-.8 1-1.3 1.2a5 5 0 01-1.6.3 6.1 6.1 0 01-2.4-.7c-.4-.2-.6-.6-.8-1l-.2-.7-.1-.6v-4.5l-.2-.8c-.1-.2-.5-.2-1-.2v-.6h4.3v.6l-.8.1-.4.3-.1.6v3.7l.1 1 .2.7c.1.4.4.6.7.8.3.2.7.3 1.1.3l1.2-.3c.4-.2.6-.5.8-.9l.2-.9.1-1.1v-3.2-.6l-.1-.4-.4-.2-.7-.1V40h3.1v1.1zM152.3 41.1l-.9.1c-.2.1-.3.2-.3.4l-.1.8v7h-.6l-5.6-6.8v4.8l.1.8c0 .2.2.3.3.4l.9.1v.6H143v-.6l.8-.1c.2-.1.3-.2.3-.4l.1-.8v-4.5-.8l-.1-.5-.3-.3-.7-.2v-.6h2.5l4.8 5.9v-4l-.1-.8c0-.2-.2-.3-.3-.4l-.8-.1v-.6h3.2v.6zM161.8 45c0 .6-.1 1.2-.3 1.7l-.8 1.3-1.1.8c-.8.4-1.8.5-2.9.5h-3.9v-.6l.8-.1.4-.3.1-.6v-5.6l-.2-.8c-.2-.2-.5-.2-1-.2v-.6H156.3l1.8.1 1.3.4 1 .7.8 1 .5 1.2.1 1.1zm-2-.1c0-.9-.2-1.7-.5-2.3a3 3 0 00-1.4-1.3l-.8-.2h-1.2v6.2l.1.8c0 .2.1.3.3.4l.8.1c1 0 1.7-.4 2.2-1.1a7 7 0 00.5-2.6zM170.3 49.3h-4v-.6l.7-.1c.2 0 .2-.2.2-.4l-.1-.4-.4-1h-2.8l-.2.6-.2.7c0 .3.1.4.3.5l.7.1v.6h-2.9v-.6l.6-.1.5-.5.5-1.1 2.5-6.6h.6l2.6 6.8.4 1 .4.4.7.1v.6zm-3.7-3.1l-1.2-3.1-1.1 3.1h2.3zM180 49.3h-2.3l-.3-.4-.4-.6-.4-.6-.6-1-.6-.9a.5.5 0 00-.5-.3l-.9-.1h-.3v2.3l.1.6c.1.1.2.3.4.3l.8.1v.6h-4.3v-.6l1-.2.2-.8v-5.6l-.2-.8c-.1-.2-.5-.2-1-.2v-.6l2-.1h1.6l1.2.1.9.1.9.4c.3.2.5.4.7.8s.3.7.3 1.1l-.2.9c-.1.3-.3.5-.6.7-.3.2-.6.4-1.1.5l.8.7 1 1.5.7 1c.2.2.3.4.5.4l.5.1v.6zm-3.6-6.5c0-.7-.2-1.2-.6-1.4-.4-.2-1-.3-1.6-.3h-.4v3.5h.4c.6 0 1.2-.1 1.6-.3.4-.2.6-.7.6-1.5zM184.5 49.3h-4.3v-.6l.8-.1.4-.3.1-.6v-5.5l-.2-.8c-.2-.2-.5-.2-1-.2v-.6h4.3v.6l-.8.1-.4.3-.1.6v5.5l.1.6.3.3.8.1v.6zM192.7 46.4l-.1 2.9H185v-.6l1-.2c.2-.2.2-.4.2-.8v-5.5l-.1-.6-.3-.3-.8-.1v-.6h7.1l.1 2.3h-.6l-.4-1.1c-.2-.2-.4-.4-.6-.4l-.9-.1h-1.6v3.1h.9l.7-.1.3-.3.1-.7h.6v2.9h-.6l-.1-.7-.3-.3-.7-.1h-.9V48l.1.4.4.2.7.1h.7l.8-.1.8-.6c.3-.3.4-.8.5-1.5h.6zM200 46.8l-.2.9-.5.9c-.2.3-.5.5-.9.7-.3.2-.7.3-1.2.3s-.9-.1-1.3-.3c-.4-.2-.8-.5-1.1-.9l-.3.9h-.6v-3h.6l.4 1.2c.2.4.4.7.8 1 .3.3.7.4 1.2.4.4 0 .8-.1 1-.4.3-.2.4-.5.4-.9l-.1-.5-.3-.4-.6-.4-.9-.4-1.3-.8-.7-.7-.4-.7-.1-.7.3-1.2c.2-.4.5-.7.9-.9.4-.2.9-.4 1.4-.4.4 0 .8.1 1.1.3.4.2.7.4.9.8l.2-.8h.6v2.5h-.6c-.4-1.3-1.1-2-2.2-2-.4 0-.7.1-.9.3-.2.2-.3.5-.3.8l.2.7.6.5 1.1.6 1.5.8c.4.2.7.5.9.8.3.1.4.5.4 1z" class="st0"/><path d="M200 25.3l-.4 11.8h-43.3v-2.4c3 0 4.9-.3 5.8-1 .9-.6 1.3-1.7 1.3-3.3V7.9c0-1-.1-1.8-.4-2.4-.3-.6-.9-1-1.9-1.4-1-.3-2.6-.5-4.7-.5V1.2h40.3l.6 9.3H194a10 10 0 00-2.6-4.4c-1-.9-2.1-1.4-3.3-1.6-1.2-.2-3-.3-5.4-.3h-9.1v12.7h4.9c1.7 0 3-.1 3.8-.3.8-.2 1.4-.6 1.8-1.3.3-.6.6-1.6.7-2.9h3.4v12H185a6.4 6.4 0 00-.7-2.9c-.4-.6-1-1-1.8-1.3-.8-.2-2.1-.3-3.8-.3h-5v8.5l.1 3.1c.1.7.4 1.2.8 1.6.4.4 1.1.7 2 .9.9.2 2.3.3 4 .3h3.9c1.6 0 3.2-.2 4.7-.5s3-1.1 4.4-2.4c1.4-1.3 2.4-3.3 3-6h3.4zM153.5 3.7c-1.2 0-2.2.1-3 .3-.9.2-1.6.5-2.1 1-.6.4-1.1 1.1-1.7 1.8l-2.3 3.6-15.9 27.3h-3.4L108.5 9.2c-1-1.8-1.8-3-2.4-3.7a4.5 4.5 0 00-2.3-1.4 16 16 0 00-4.3-.4V1.3h24.9v2.4c-2.4.1-4 .2-4.9.4-.9.2-1.4.7-1.4 1.6 0 .8.3 1.6.9 2.5l11.3 19.2 10.4-17.9a8.1 8.1 0 001.3-3.2c0-1.1-.5-1.9-1.6-2.1-1.1-.3-2.7-.4-4.9-.5V1.3h18.1v2.4zM97.8 13.2c-.9-2.1-2.3-4.1-4.4-6a24 24 0 00-8.6-4.8A40.2 40.2 0 0071.5.5c-5.7 0-10.6.9-14.8 2.6-4.1 1.7-7.2 4-9.2 6.9A14.6 14.6 0 0046 25.7c1.1 2.2 2.7 4.2 4.9 6.1 2.2 1.8 5.1 3.3 8.6 4.4a41 41 0 0012.2 1.6c5.7 0 10.6-.9 14.7-2.6 4.1-1.7 7.3-4 9.4-6.9 2.1-2.9 3.2-5.9 3.2-9.2.1-1.8-.3-3.8-1.2-5.9zM71.9 33.6a14.4 14.4 0 116.9-27l-.7.1-.3.3c-.4.2-.9.1-1.3.2l-.4-.1-.5-.1c-.1 0-.3.2-.2.4l.2.2c.1.1 0 .2-.2.1l-.8-.2-.5.1c-.5.2-1.5 0-2.1.3-.1.1-.3.1-.4 0l-.4.1c-.4.4-.8.5-1.3.5l-.4-.1c-.1-.1 0-.2.2-.2l.7-.1c.1-.1.1-.2-.1-.2-.7-.2-1.4-.4-2.1-.4-1.7 0-2.6 1.3-3.8 2l-.2.4v.2c0 .1.2.3.4.2l.4-.3c.1-.1.2.1.3.3l.1.1c.1.1-.1.2-.1.3 0 0-.1.1-.2 0-.3 0 .2-.3-.2-.3-.3.1-.2.3-.2.5l-.3.3c-.8.3-1 1.1-1.9 1.3-.1 0-.2.1 0 .2.5.5.2 1.3-.8 1.2l-.3.2-.2 1 .3.3h.1v.5c-.6 1-1.3 1.8-1.7 3v.5c.2.5-.2 1.1 0 1.7l.6.7c.7 1.3 1.5 1.4 2.9 1.1l.4.1c.3.3.8.3 1.1.6l.1.5v.5l.2.5c.5.5.9 1 1.1 1.8v.5c-.4 1.4 1 2.5 1.5 3.7l.3.3c1.1.1 2.3-.2 2.6-1.1l.3-.3.2-.4v-.3c0-.1 0-.3.2-.4l1-.5.2-.4c-.1-.7-.5-1.1-.4-1.7.2-1 1.8-1.3 2.5-2.2.3-.4.5-.9.6-1.4 0-.1 0-.2-.2-.2l-1.5.3-.3-.3c-.2-.5-.9-.8-1.3-1.3l-.5-.8a.8.8 0 01-.2-.5l-.2-.4c-.3-.3-.5-.8-.7-1.3-.1-.1 0-.3.1-.2.6.1 1 .9 1.2 1.6l.3.4c.6.5.9 1 1.1 1.9l.3.2c1.7-.5 3.2-1 3.9-2.4.1-.1.1-.4-.1-.5l-.6-.3c-.1-.1-.2-.2-.3-.1l-.7.3a.8.8 0 01-.4-.2c-.3-.4-.8-.6-1-1.1v-.3l.3-.1c.8.2.9 1.2 1.9.9l.4.1c.4.3 1.3.3 2 .2l.5.1c.4.3.6 1.2 1.2 1 .1 0 .2 0 .3.2.1 1.1.5 1.8.8 2.6.1.1.2.2.3.1.4-.2.5-.8.5-1.4l.2-.4 1.1-1.2.4-.2.3-.2c.1-.1.2 0 .3.2.1.4.5.5.5 1 0 .1.1.3.2.2l.1-.1c.1-.1.3.1.3.3l.1 1c-1 6.6-6.9 11.8-14 11.8zM74.3 14c-.3-.2-.6-.4-.7-.8l.1-.5c.2-.2.5-.3.9-.3l.3.1c0 .1.1.3-.1.3-.1 0-.4 0-.3.2.1.4.4.6.8.8l.2.3c-.1.1-.1.2 0 .4l.2.5c0 .1-.1.3-.3.3l-.8-.2c-.1-.1-.3-.2-.3-.4v-.3c.1 0 .1-.3 0-.4zM65 15.7c0-.1-.1-.3-.3-.3-.9-.1-1.8.6-2.4.5-.3 0-.4-.1-.2-.2.6-.3 1.1-.9 1.5-1.5l.4-.2.6-.2c.1-.1.3-.1.4 0 .4.4 1 .5 1.2 1.1 0 .1.2.3.2.1v-.3-.3c-.3-.2-.7-.4-.8-.8l.2-.2 1 .7.2.4c0 .3.3.5.4.8.1.1.2.3.3.2l.1-.2c.1-.1.2-.2.1-.3l-.1-.1c-.1-.1 0-.3.1-.4l.2-.1c.1 0 .3.1.3.3.2 1.1 1.3 1 2.2.8l.3.2c.1 1.3-.3 1.5-1.6 1.4-.7-.1-1.3-.5-1.8-.5l-.4.2v.2l-.3.2-1.5-.7c-.3-.2-.3-.3-.3-.5v-.3zm1.7-6.1l.1-.4.9-.7c.1 0 .3.1.2.2l-.3.2-.2.4v.1c0 .1.1.3.3.3l.8-.2.1.2-.5.1c-.1 0-.4.1-.3.2l.1.1c.1.1-.2.1-.3.1-.3 0-.3.3-.4.6l-.4.2-1.2.2c-.1 0-.2-.1 0-.2.5-.4 1.3-.8 1.1-1.4zm2.3 4.6c-.1.1-.2 0-.2-.1.1-.4.2-1 .6-1.3h.7c.1.1-.3.3-.2.5.2.2.5.1.6-.1 0 0 .5-.1-.1-.3-.5-.1.1-.3.2-.4.2-.1.4 0 .4.2 0 .1-.3.3.1.4.4.1.8.2 1 .6.1.1 0 .3-.2.3-.9.2-1.9-.3-2.9.2zM37.4 33.4c-.4 3.7-1.5 6.4-3.2 8.2a10.5 10.5 0 01-5.7 3.3c-2 .4-4.4.6-7.1.6-2.1 0-3.7-.2-4.6-.7a3.2 3.2 0 01-1.7-2.1c-.2-.9-.3-2.5-.3-4.7V10.4c0-1.4.2-2.5.5-3.3.3-.8 1-1.4 2-1.8 1-.4 2.5-.6 4.5-.6V1.4H0v3.4c.9.1 1.6.3 2.2.5 1 .4 1.7 1 2 1.8.2.8.4 1.9.4 3.3v30.2c0 2.1-.4 3.5-1.3 4.4-.6.6-1.7 1-3.3 1.2v3.4h40.4l.3-16h-3.3z" class="st1"/></svg>