<?xml version="1.0" encoding="utf-8"?>
<!-- Generator: Adobe Illustrator 22.1.0, SVG Export Plug-In . SVG Version: 6.00 Build 0)  -->
<svg version="1.1" id="Layer_1" xmlns="http://www.w3.org/2000/svg" xmlns:xlink="http://www.w3.org/1999/xlink" x="0px" y="0px"
	 viewBox="0 0 653.26 143.63" style="enable-background:new 0 0 653.26 143.63;" xml:space="preserve">
<style type="text/css">
	.st0{fill:#000;}
</style>
<path class="st0" d="M141.6,115.66c0,15.44-12.52,27.97-27.96,27.97H28.59c-15.44,0-27.96-12.53-27.96-27.97v-87.7
	C0.63,12.52,13.15,0,28.59,0h85.05c15.44,0,27.96,12.52,27.96,27.96L141.6,115.66L141.6,115.66L141.6,115.66z M75.31,42.74
	c0.09,2.12,4.27,13.21,5.02,15.53c0.75,2.33,1.91,3.79,4.02,3.69c0,0,19.02-0.98,20.29-1.02c2.75-0.09,3.66,2.62,5.47,4.7
	c2.51,2.9,8.51,4.31,7.52,3.17c-4.15-4.72-1.96-8.28-0.66-8.74c2.14-0.74,6.47,0.08,6.47-3.83l0.53-15.42
	c-0.09-2.12-1.91-3.79-4.03-3.69L79,38.71C76.89,38.81,75.22,40.63,75.31,42.74L75.31,42.74z M103.11,63.94
	c-2,0.69-11.45,7.84-13.46,9.22c-2.02,1.38-3.09,2.9-2.4,4.91c0,0,6.34,17.95,6.74,19.15c0.87,2.61-1.48,4.26-2.97,6.59
	c-2.06,3.23-1.71,9.38-0.9,8.1c3.36-5.32,7.39-4.22,8.19-3.11c1.32,1.84,1.76,6.23,5.51,5.12l14.93-3.87
	c2.01-0.69,3.09-2.9,2.4-4.91l-13.14-38.8C107.33,64.34,105.12,63.25,103.11,63.94L103.11,63.94z M90.67,96.04
	c-1.34-1.64-11.33-8.02-13.32-9.43c-1.99-1.41-3.79-1.89-5.43-0.55c0,0-14.64,12.18-15.63,12.97c-2.14,1.72-4.5,0.09-7.2-0.5
	c-3.75-0.82-9.4,1.65-7.91,1.97c6.15,1.3,6.53,5.46,5.76,6.6c-1.26,1.88-5.23,3.81-2.89,6.94l8.81,12.67
	c1.34,1.63,3.79,1.88,5.44,0.54l31.83-25.79C91.76,100.13,92.01,97.68,90.67,96.04L90.67,96.04z M56,95.75
	c1.17-1.77,4.3-13.2,5.05-15.52c0.76-2.32,0.68-4.18-1.09-5.35c0,0-15.97-10.36-17.02-11.08c-2.28-1.54-1.42-4.27-1.66-7.02
	c-0.34-3.83-4.36-8.49-4.22-6.98c0.58,6.26-3.29,7.85-4.6,7.46c-2.17-0.65-5.19-3.86-7.49-0.7L15.5,68.73
	c-1.17,1.77-0.68,4.18,1.09,5.35l34.06,22.75C52.42,98,54.83,97.52,56,95.75L56,95.75z M45.9,62.48c2.03,0.6,13.87,0.29,16.32,0.34
	c2.44,0.05,4.2-0.56,4.81-2.6c0,0,5.3-18.29,5.68-19.49c0.82-2.63,3.68-2.59,6.25-3.63c3.56-1.42,6.86-6.63,5.45-6.06
	c-5.83,2.36-8.47-0.88-8.47-2.25c-0.01-2.26,2.2-6.08-1.5-7.37l-14.4-5.55c-2.03-0.61-4.2,0.56-4.81,2.59L43.3,57.67
	C42.7,59.7,43.87,61.87,45.9,62.48L45.9,62.48z"/>
<path class="st0" d="M217.54,15.14c-3.42-1.98-7.48-2.98-12.18-2.98c-4.01,0-7.45,0.63-10.3,1.88c-2.85,1.25-5.2,2.94-7.05,5.05
	c-1.85,2.12-3.21,4.53-4.09,7.25c-0.88,2.72-1.32,5.54-1.32,8.46c0,3.19,0.44,6.2,1.32,9.05c0.88,2.85,2.24,5.33,4.09,7.45
	c1.85,2.12,4.22,3.8,7.1,5.05c2.88,1.25,6.33,1.88,10.34,1.88c2.95,0,5.56-0.4,7.85-1.21c2.29-0.81,4.26-1.93,5.92-3.37
	c1.66-1.44,2.96-3.15,3.9-5.13c0.94-1.98,1.5-4.13,1.69-6.43h8.93c-0.88,7.05-3.79,12.54-8.75,16.46
	c-4.95,3.92-11.72,5.88-20.31,5.88c-5.2,0-9.75-0.74-13.64-2.23c-3.89-1.49-7.12-3.54-9.69-6.15c-2.57-2.61-4.5-5.69-5.78-9.25
	c-1.29-3.55-1.93-7.37-1.93-11.44s0.69-7.9,2.07-11.48c1.38-3.58,3.4-6.7,6.07-9.36c2.66-2.66,5.99-4.77,9.97-6.31
	c3.98-1.54,8.54-2.31,13.68-2.31c3.51,0,6.83,0.39,9.97,1.18c3.13,0.78,5.92,1.93,8.37,3.45c2.44,1.52,4.48,3.41,6.11,5.68
	c1.63,2.27,2.69,4.9,3.2,7.88h-8.93C223.16,20.11,220.95,17.13,217.54,15.14L217.54,15.14z"/>
<path class="st0" d="M242.41,34.62c1-2.59,2.51-4.83,4.51-6.74c2.01-1.91,4.48-3.41,7.43-4.51c2.95-1.1,6.33-1.65,10.16-1.65
	c3.89,0,7.29,0.55,10.2,1.65c2.92,1.1,5.37,2.6,7.38,4.51c2.01,1.91,3.51,4.15,4.51,6.74c1,2.59,1.51,5.37,1.51,8.35
	c0,2.98-0.5,5.75-1.51,8.31c-1,2.56-2.51,4.79-4.51,6.7c-2.01,1.91-4.47,3.4-7.38,4.47c-2.92,1.07-6.32,1.61-10.2,1.61
	c-3.82,0-7.21-0.54-10.16-1.61c-2.95-1.07-5.42-2.56-7.43-4.47c-2.01-1.91-3.51-4.14-4.51-6.7c-1-2.56-1.5-5.33-1.5-8.31
	C240.91,39.98,241.41,37.2,242.41,34.62L242.41,34.62z M250.54,49.51c0.78,1.91,1.86,3.5,3.24,4.78c1.38,1.28,2.99,2.26,4.84,2.94
	c1.85,0.68,3.81,1.02,5.88,1.02c2.07,0,4.03-0.34,5.88-1.02c1.85-0.68,3.46-1.66,4.84-2.94c1.38-1.28,2.46-2.87,3.24-4.78
	c0.78-1.91,1.18-4.09,1.18-6.54c0-2.45-0.39-4.64-1.18-6.54c-0.78-1.91-1.87-3.51-3.24-4.82c-1.38-1.3-2.99-2.3-4.84-2.98
	c-1.85-0.68-3.81-1.02-5.88-1.02c-2.07,0-4.03,0.34-5.88,1.02c-1.85,0.68-3.46,1.67-4.84,2.98c-1.38,1.31-2.46,2.91-3.24,4.82
	c-0.78,1.91-1.18,4.09-1.18,6.54C249.37,45.42,249.76,47.6,250.54,49.51L250.54,49.51z"/>
<path class="st0" d="M305.04,22.67v5.96h0.19c3.64-4.6,8.87-6.9,15.7-6.9c3.01,0,5.74,0.52,8.18,1.57c2.45,1.05,4.17,2.82,5.17,5.33
	c1.63-2.19,3.78-3.89,6.44-5.09c2.66-1.2,5.59-1.8,8.79-1.8c2.45,0,4.65,0.22,6.63,0.67c1.98,0.44,3.67,1.14,5.08,2.08
	c1.41,0.94,2.51,2.15,3.29,3.64c0.78,1.49,1.18,3.28,1.18,5.37v29.7h-7.99V36.61c0-1.25-0.13-2.43-0.38-3.53
	c-0.25-1.1-0.72-2.05-1.41-2.86c-0.69-0.81-1.65-1.45-2.87-1.92c-1.22-0.47-2.81-0.7-4.75-0.7c-3.95,0-7.05,0.94-9.31,2.82
	c-2.26,1.88-3.39,4.39-3.39,7.52v25.23h-7.99V36.61c0-1.31-0.14-2.51-0.42-3.6c-0.28-1.1-0.77-2.05-1.46-2.86
	c-0.69-0.81-1.61-1.44-2.77-1.88c-1.16-0.44-2.65-0.67-4.47-0.67c-2.32,0-4.31,0.39-5.97,1.18c-1.66,0.78-3.01,1.72-4.04,2.82
	c-1.03,1.1-1.79,2.23-2.26,3.41c-0.47,1.18-0.71,2.16-0.71,2.94v25.23h-7.99V22.67L305.04,22.67L305.04,22.67L305.04,22.67z"/>
<path class="st0" d="M385.25,22.67v5.96h0.19c3.64-4.6,8.87-6.9,15.7-6.9c3.01,0,5.74,0.52,8.18,1.57c2.45,1.05,4.17,2.82,5.17,5.33
	c1.63-2.19,3.78-3.89,6.44-5.09c2.66-1.2,5.6-1.8,8.79-1.8c2.44,0,4.65,0.22,6.63,0.67c1.97,0.44,3.67,1.14,5.08,2.08
	c1.41,0.94,2.51,2.15,3.29,3.64c0.78,1.49,1.18,3.28,1.18,5.37v29.7h-7.99V36.61c0-1.25-0.13-2.43-0.38-3.53
	c-0.25-1.1-0.72-2.05-1.41-2.86c-0.69-0.81-1.65-1.45-2.87-1.92c-1.22-0.47-2.81-0.7-4.75-0.7c-3.95,0-7.05,0.94-9.31,2.82
	c-2.26,1.88-3.38,4.39-3.38,7.52v25.23h-7.99V36.61c0-1.31-0.14-2.51-0.42-3.6c-0.28-1.1-0.77-2.05-1.46-2.86
	c-0.69-0.81-1.62-1.44-2.77-1.88c-1.16-0.44-2.65-0.67-4.47-0.67c-2.32,0-4.31,0.39-5.97,1.18c-1.66,0.78-3.01,1.72-4.04,2.82
	c-1.03,1.1-1.79,2.23-2.26,3.41c-0.47,1.18-0.7,2.16-0.7,2.94v25.23h-7.99V22.67L385.25,22.67L385.25,22.67L385.25,22.67z"/>
<path class="st0" d="M490.67,63.18v-6.43h-0.19c-1.69,2.51-3.86,4.35-6.49,5.52c-2.63,1.18-5.74,1.76-9.31,1.76
	c-3.2,0-5.86-0.35-7.99-1.06c-2.13-0.71-3.86-1.71-5.17-3.02c-1.32-1.3-2.24-2.86-2.77-4.66c-0.53-1.8-0.8-3.8-0.8-5.99V22.67h7.99
	v27.43c0,2.51,0.88,4.49,2.63,5.96c1.75,1.46,4.17,2.19,7.24,2.19c2.45,0,4.56-0.31,6.35-0.94c1.79-0.63,3.28-1.51,4.47-2.66
	c1.19-1.15,2.08-2.49,2.68-4.04c0.59-1.54,0.89-3.23,0.89-5.05V22.67h7.99v40.51L490.67,63.18L490.67,63.18L490.67,63.18z"/>
<path class="st0" d="M517.76,22.67v6.43h0.19c3.32-4.91,8.59-7.37,15.8-7.37c3.2,0,5.86,0.37,7.99,1.1
	c2.13,0.73,3.86,1.75,5.17,3.06c1.32,1.31,2.24,2.86,2.77,4.66c0.53,1.8,0.8,3.8,0.8,6v26.64h-7.99V35.75
	c0-2.51-0.88-4.49-2.63-5.96c-1.76-1.46-4.17-2.19-7.24-2.19c-2.45,0-4.56,0.31-6.35,0.94s-3.28,1.52-4.47,2.66
	c-1.19,1.15-2.09,2.5-2.68,4.04c-0.6,1.54-0.89,3.23-0.89,5.05v22.88h-7.99V22.67H517.76L517.76,22.67z"/>
<path class="st0" d="M562.99,15.38V7.23h7.99v8.15H562.99L562.99,15.38z M570.98,22.67v40.51h-7.99V22.67H570.98L570.98,22.67z"/>
<path class="st0" d="M604.18,22.67v5.88h-9.69V53.7c0,0.78,0.08,1.41,0.23,1.88c0.16,0.47,0.45,0.84,0.89,1.1
	c0.44,0.26,1.05,0.43,1.83,0.51c0.78,0.08,1.8,0.12,3.06,0.12h3.67v5.88h-6.11c-2.07,0-3.84-0.12-5.31-0.35
	c-1.47-0.24-2.67-0.67-3.57-1.29c-0.91-0.63-1.58-1.51-2.02-2.66c-0.44-1.15-0.66-2.66-0.66-4.55V28.54h-8.28v-5.88h8.28V10.52h7.99
	v12.15H604.18L604.18,22.67z"/>
<path class="st0" d="M632.11,68.59c-0.94,1.99-1.87,3.66-2.77,5.02c-0.91,1.36-1.91,2.47-3.01,3.33c-1.1,0.86-2.32,1.49-3.67,1.88
	c-1.35,0.39-2.9,0.59-4.66,0.59c-0.94,0-1.88-0.05-2.82-0.16c-0.94-0.1-1.85-0.29-2.73-0.55v-6.11c0.69,0.26,1.49,0.48,2.4,0.67
	c0.91,0.18,1.68,0.27,2.3,0.27c1.63,0,2.99-0.33,4.09-0.98c1.1-0.65,1.93-1.58,2.49-2.78l3.29-6.82l-19.28-40.28h9.03l14.2,33.15
	h0.19l13.64-33.15h8.46L632.11,68.59L632.11,68.59z"/>
<path class="st0" d="M214.95,94.7c-2.95-1.71-6.46-2.57-10.52-2.57c-3.46,0-6.43,0.54-8.89,1.62c-2.46,1.08-4.49,2.54-6.09,4.36
	c-1.6,1.83-2.77,3.91-3.53,6.26c-0.76,2.35-1.14,4.78-1.14,7.31c0,2.75,0.38,5.36,1.14,7.82c0.76,2.46,1.93,4.6,3.53,6.43
	c1.6,1.83,3.64,3.28,6.13,4.36c2.49,1.08,5.47,1.62,8.93,1.62c2.54,0,4.8-0.35,6.78-1.05c1.98-0.7,3.68-1.67,5.12-2.91
	c1.43-1.24,2.56-2.72,3.37-4.43s1.3-3.56,1.46-5.55h7.71c-0.76,6.09-3.28,10.83-7.55,14.21c-4.28,3.38-10.12,5.07-17.54,5.07
	c-4.49,0-8.42-0.64-11.77-1.93c-3.36-1.29-6.15-3.06-8.36-5.31c-2.22-2.26-3.89-4.92-4.99-7.99c-1.11-3.07-1.66-6.36-1.66-9.88
	c0-3.52,0.59-6.82,1.79-9.91c1.19-3.09,2.94-5.79,5.24-8.09c2.3-2.3,5.17-4.12,8.61-5.45c3.44-1.33,7.38-2,11.82-2
	c3.03,0,5.9,0.34,8.61,1.01c2.71,0.68,5.12,1.67,7.23,2.98c2.11,1.31,3.87,2.94,5.28,4.91c1.41,1.96,2.33,4.23,2.76,6.8h-7.71
	C219.81,98.99,217.9,96.41,214.95,94.7L214.95,94.7z"/>
<path class="st0" d="M236.43,111.52c0.87-2.23,2.16-4.17,3.9-5.82c1.73-1.65,3.87-2.94,6.42-3.89c2.54-0.95,5.47-1.42,8.77-1.42
	c3.36,0,6.29,0.47,8.81,1.42c2.52,0.95,4.64,2.24,6.37,3.89c1.73,1.65,3.03,3.59,3.9,5.82c0.87,2.23,1.3,4.64,1.3,7.21
	c0,2.57-0.43,4.96-1.3,7.17c-0.87,2.21-2.17,4.14-3.9,5.79c-1.73,1.65-3.86,2.93-6.37,3.86c-2.52,0.92-5.45,1.39-8.81,1.39
	c-3.3,0-6.23-0.46-8.77-1.39c-2.54-0.92-4.68-2.21-6.42-3.86c-1.73-1.65-3.03-3.57-3.9-5.79c-0.87-2.21-1.3-4.6-1.3-7.17
	C235.13,116.15,235.56,113.75,236.43,111.52L236.43,111.52z M243.45,124.37c0.68,1.65,1.61,3.02,2.8,4.13
	c1.19,1.11,2.58,1.95,4.18,2.54c1.6,0.59,3.29,0.88,5.08,0.88c1.79,0,3.48-0.29,5.07-0.88c1.6-0.59,2.99-1.43,4.18-2.54
	c1.19-1.1,2.12-2.48,2.8-4.13c0.68-1.65,1.01-3.53,1.01-5.65c0-2.12-0.34-4-1.01-5.65c-0.68-1.65-1.61-3.03-2.8-4.16
	c-1.19-1.13-2.59-1.98-4.18-2.57c-1.6-0.59-3.29-0.88-5.07-0.88c-1.79,0-3.48,0.29-5.08,0.88c-1.6,0.59-2.99,1.44-4.18,2.57
	c-1.19,1.13-2.13,2.52-2.8,4.16c-0.68,1.65-1.02,3.53-1.02,5.65C242.44,120.84,242.78,122.73,243.45,124.37L243.45,124.37z"/>
<path class="st0" d="M290.51,101.2v5.55h0.16c2.87-4.24,7.42-6.36,13.64-6.36c2.76,0,5.06,0.32,6.9,0.95
	c1.84,0.63,3.33,1.51,4.47,2.64c1.14,1.13,1.93,2.47,2.4,4.03c0.46,1.56,0.69,3.28,0.69,5.18v23.01h-6.9V112.5
	c0-2.17-0.76-3.88-2.27-5.14c-1.52-1.26-3.6-1.9-6.25-1.9c-2.11,0-3.94,0.27-5.48,0.81c-1.54,0.54-2.83,1.31-3.86,2.3
	c-1.03,0.99-1.8,2.15-2.31,3.49c-0.52,1.33-0.77,2.79-0.77,4.36v19.76h-6.9V101.2L290.51,101.2L290.51,101.2L290.51,101.2z"/>
<path class="st0" d="M335.66,101.2v5.55h0.16c2.87-4.24,7.42-6.36,13.64-6.36c2.76,0,5.06,0.32,6.9,0.95
	c1.84,0.63,3.33,1.51,4.47,2.64c1.14,1.13,1.93,2.47,2.4,4.03c0.46,1.56,0.69,3.28,0.69,5.18v23.01h-6.9V112.5
	c0-2.17-0.76-3.88-2.27-5.14c-1.52-1.26-3.6-1.9-6.25-1.9c-2.11,0-3.94,0.27-5.48,0.81c-1.54,0.54-2.83,1.31-3.86,2.3
	c-1.03,0.99-1.8,2.15-2.31,3.49c-0.52,1.33-0.77,2.79-0.77,4.36v19.76h-6.9V101.2L335.66,101.2L335.66,101.2L335.66,101.2z"/>
<path class="st0" d="M404.03,133.95c-3.14,1.99-7.09,2.98-11.86,2.98c-3.36,0-6.27-0.45-8.73-1.35c-2.46-0.9-4.53-2.17-6.21-3.79
	c-1.68-1.62-2.94-3.56-3.78-5.82c-0.84-2.26-1.31-4.71-1.42-7.38c0-2.66,0.49-5.1,1.46-7.31c0.97-2.21,2.34-4.13,4.1-5.75
	c1.76-1.62,3.84-2.89,6.25-3.79c2.41-0.9,5.05-1.35,7.92-1.35c3.74,0,6.83,0.64,9.3,1.93c2.46,1.29,4.44,2.92,5.93,4.91
	c1.49,1.99,2.52,4.15,3.09,6.5c0.57,2.35,0.8,4.58,0.69,6.7h-31.43c-0.05,1.53,0.16,2.99,0.65,4.36c0.49,1.38,1.27,2.59,2.36,3.65
	c1.08,1.06,2.46,1.91,4.14,2.54c1.68,0.63,3.65,0.95,5.93,0.95c2.92,0,5.32-0.56,7.19-1.69c1.87-1.13,3.1-2.84,3.7-5.14h6.82
	C409.2,129.01,407.17,131.96,404.03,133.95L404.03,133.95z M402.36,111.48c-0.62-1.22-1.46-2.27-2.52-3.15
	c-1.06-0.88-2.3-1.58-3.74-2.1c-1.43-0.52-3.02-0.78-4.75-0.78c-1.79,0-3.4,0.26-4.83,0.78c-1.43,0.52-2.67,1.23-3.69,2.13
	c-1.03,0.9-1.84,1.95-2.44,3.15c-0.6,1.2-0.95,2.47-1.06,3.82h24.12C403.35,113.98,402.99,112.7,402.36,111.48L402.36,111.48z"/>
<path class="st0" d="M443.01,107.29c-1.73-1.22-4.06-1.83-6.98-1.83c-2.49,0-4.58,0.38-6.25,1.15c-1.68,0.77-3.02,1.78-4.02,3.05
	c-1,1.26-1.72,2.72-2.15,4.36c-0.43,1.65-0.65,3.35-0.65,5.11c0,1.62,0.23,3.2,0.69,4.74c0.46,1.53,1.18,2.9,2.15,4.09
	c0.97,1.2,2.25,2.16,3.82,2.88c1.57,0.72,3.44,1.08,5.6,1.08c3.41,0,6.08-0.74,8-2.23c1.92-1.49,3.1-3.59,3.53-6.29h7.06
	c-0.76,4.33-2.69,7.67-5.81,10.01c-3.11,2.35-7.35,3.52-12.71,3.52c-3.19,0-6.02-0.43-8.49-1.29c-2.46-0.86-4.52-2.07-6.17-3.65
	c-1.65-1.58-2.9-3.46-3.74-5.65c-0.84-2.19-1.26-4.59-1.26-7.21c0-2.62,0.41-5.06,1.22-7.34c0.81-2.28,2.04-4.26,3.69-5.95
	c1.65-1.69,3.72-3.02,6.21-3.99c2.49-0.97,5.39-1.45,8.69-1.45c2.38,0,4.61,0.24,6.7,0.71c2.08,0.47,3.92,1.21,5.52,2.2
	c1.6,0.99,2.91,2.24,3.94,3.76c1.03,1.51,1.68,3.31,1.95,5.38h-7.15C445.87,110.22,444.74,108.5,443.01,107.29L443.01,107.29z"/>
<path class="st0" d="M479.46,101.2v5.07h-8.36v21.72c0,0.68,0.07,1.22,0.2,1.62c0.13,0.41,0.39,0.72,0.77,0.95
	c0.38,0.23,0.91,0.37,1.58,0.44c0.68,0.07,1.56,0.1,2.64,0.1h3.17v5.07h-5.28c-1.79,0-3.32-0.1-4.59-0.3
	c-1.27-0.2-2.3-0.58-3.09-1.12c-0.79-0.54-1.37-1.31-1.75-2.3c-0.38-0.99-0.57-2.3-0.57-3.92v-22.26h-7.15v-5.07h7.15V90.71h6.9
	v10.49H479.46L479.46,101.2L479.46,101.2z"/>
<polygon class="st0" points="487.01,87.86 490.59,87.86 490.59,133.61 523.47,133.61 523.47,136.18 487.01,136.18 487.01,87.86 
	487.01,87.86 "/>
<path class="st0" d="M554.74,129.28h-0.16c-0.49,1.04-1.19,2.02-2.11,2.94c-0.92,0.93-2.04,1.75-3.37,2.47
	c-1.33,0.72-2.83,1.29-4.51,1.69c-1.68,0.41-3.52,0.61-5.52,0.61c-4.44,0-7.88-0.8-10.31-2.4c-2.44-1.6-3.65-4.07-3.65-7.41
	c0-2.03,0.49-3.69,1.46-4.97s2.2-2.3,3.69-3.04c1.49-0.74,3.14-1.27,4.95-1.59c1.81-0.32,3.56-0.54,5.24-0.68l4.79-0.34
	c2.22-0.14,3.97-0.35,5.24-0.64c1.27-0.29,2.23-0.7,2.88-1.22c0.65-0.52,1.06-1.18,1.22-2s0.24-1.83,0.24-3.05
	c0-0.95-0.22-1.83-0.65-2.64c-0.43-0.81-1.11-1.53-2.03-2.17c-0.92-0.63-2.11-1.13-3.57-1.49c-1.46-0.36-3.25-0.54-5.36-0.54
	c-3.74,0-6.75,0.77-9.05,2.3c-2.3,1.53-3.56,3.86-3.78,6.97h-3.09c0.22-3.83,1.69-6.71,4.43-8.63c2.73-1.92,6.62-2.88,11.65-2.88
	c5.03,0,8.7,0.82,11,2.47c2.3,1.65,3.45,3.8,3.45,6.46v20.23c0,0.5,0.01,0.99,0.04,1.49c0.03,0.5,0.12,0.95,0.28,1.35
	c0.16,0.41,0.43,0.73,0.81,0.98c0.38,0.25,0.92,0.37,1.62,0.37c0.54,0,1.3-0.07,2.27-0.2v2.17c-0.81,0.18-1.65,0.27-2.52,0.27
	c-1.25,0-2.23-0.14-2.96-0.41c-0.73-0.27-1.29-0.63-1.66-1.08c-0.38-0.45-0.64-0.98-0.77-1.59c-0.14-0.61-0.2-1.27-0.2-2V129.28
	L554.74,129.28L554.74,129.28z M554.74,116.42c-0.76,0.77-1.91,1.29-3.45,1.56c-1.54,0.27-3.26,0.47-5.16,0.61l-5.2,0.41
	c-1.52,0.14-3.03,0.33-4.55,0.58c-1.52,0.25-2.88,0.67-4.1,1.25c-1.22,0.59-2.21,1.39-2.96,2.4c-0.76,1.02-1.14,2.33-1.14,3.96
	c0,2.57,0.97,4.48,2.92,5.72c1.95,1.24,4.63,1.86,8.04,1.86c3.52,0,6.31-0.53,8.36-1.59c2.06-1.06,3.63-2.28,4.71-3.65
	c1.08-1.38,1.77-2.71,2.07-3.99c0.3-1.29,0.45-2.15,0.45-2.61L554.74,116.42L554.74,116.42L554.74,116.42z"/>
<path class="st0" d="M568.38,87.86h3v20.91h0.16c0.6-1.35,1.44-2.54,2.52-3.55c1.08-1.01,2.33-1.87,3.74-2.57
	c1.41-0.7,2.93-1.22,4.56-1.56c1.63-0.34,3.31-0.51,5.05-0.51c3.09,0,5.77,0.45,8.02,1.35c2.25,0.9,4.14,2.14,5.66,3.72
	c1.52,1.58,2.65,3.42,3.38,5.51c0.73,2.1,1.1,4.36,1.1,6.8c0,4.15-0.68,7.48-2.04,9.98c-1.36,2.5-2.99,4.42-4.88,5.75
	c-1.9,1.33-3.88,2.21-5.94,2.64c-2.06,0.43-3.83,0.64-5.29,0.64c-2.77,0-5.12-0.36-7.04-1.08c-1.93-0.72-3.51-1.57-4.76-2.54
	c-1.25-0.97-2.2-1.93-2.85-2.88c-0.65-0.95-1.06-1.65-1.22-2.1h-0.16v7.78h-3.01V87.86L568.38,87.86L568.38,87.86z M587.42,134.76
	c2.77,0,5.1-0.5,7-1.49c1.9-0.99,3.45-2.29,4.64-3.89c1.19-1.6,2.06-3.41,2.6-5.41c0.54-2.01,0.81-4,0.81-5.99
	c0-1.94-0.31-3.81-0.94-5.62c-0.62-1.8-1.57-3.42-2.85-4.84c-1.28-1.42-2.85-2.56-4.72-3.42c-1.87-0.86-4.06-1.29-6.55-1.29
	c-2.71,0-5.08,0.38-7.08,1.15c-2.01,0.77-3.66,1.83-4.97,3.18c-1.3,1.35-2.28,2.96-2.93,4.8c-0.65,1.85-0.98,3.86-0.98,6.02
	c0,2.12,0.3,4.2,0.9,6.23c0.6,2.03,1.53,3.82,2.81,5.38c1.28,1.56,2.92,2.81,4.93,3.76C582.1,134.29,584.54,134.76,587.42,134.76
	L587.42,134.76z"/>
<path class="st0" d="M614.26,124.61c0.11,1.62,0.54,3.06,1.3,4.3c0.76,1.24,1.75,2.3,2.96,3.18c1.22,0.88,2.64,1.55,4.26,2
	c1.62,0.45,3.38,0.68,5.28,0.68c1.35,0,2.8-0.1,4.34-0.3c1.54-0.2,2.98-0.58,4.3-1.12c1.33-0.54,2.42-1.3,3.29-2.27
	c0.87-0.97,1.3-2.2,1.3-3.69c0-1.94-0.7-3.41-2.11-4.4c-1.41-0.99-3.18-1.76-5.32-2.3c-2.14-0.54-4.44-0.98-6.9-1.32
	c-2.46-0.34-4.76-0.85-6.9-1.52c-2.14-0.68-3.91-1.63-5.32-2.88c-1.41-1.24-2.11-3.06-2.11-5.45c0-1.71,0.46-3.15,1.38-4.3
	c0.92-1.15,2.1-2.06,3.53-2.74c1.43-0.68,3.05-1.16,4.83-1.45c1.79-0.29,3.57-0.44,5.36-0.44c2.16,0,4.2,0.2,6.09,0.61
	c1.89,0.41,3.53,1.06,4.91,1.96c1.38,0.9,2.46,2.05,3.25,3.45c0.78,1.4,1.18,3.09,1.18,5.07h-3.09c0-1.58-0.31-2.93-0.93-4.06
	c-0.62-1.13-1.49-2.04-2.6-2.74c-1.11-0.7-2.42-1.22-3.94-1.56c-1.52-0.34-3.14-0.51-4.87-0.51c-1.41,0-2.83,0.11-4.26,0.34
	c-1.43,0.23-2.72,0.61-3.86,1.15c-1.14,0.54-2.07,1.24-2.8,2.1c-0.73,0.86-1.1,1.89-1.1,3.11c0,1.4,0.41,2.53,1.22,3.38
	c0.81,0.86,1.88,1.55,3.21,2.06c1.33,0.52,2.81,0.94,4.47,1.25c1.65,0.32,3.32,0.63,4.99,0.95c2.06,0.32,3.99,0.69,5.81,1.12
	c1.81,0.43,3.38,1.02,4.71,1.76c1.33,0.74,2.37,1.7,3.13,2.88c0.76,1.17,1.14,2.66,1.14,4.47c0,1.89-0.52,3.45-1.54,4.67
	c-1.03,1.22-2.33,2.2-3.9,2.94c-1.57,0.74-3.32,1.26-5.24,1.56c-1.92,0.29-3.8,0.44-5.64,0.44c-2.38,0-4.59-0.26-6.62-0.78
	c-2.03-0.52-3.8-1.31-5.32-2.37c-1.52-1.06-2.71-2.36-3.57-3.89c-0.87-1.53-1.33-3.32-1.38-5.35L614.26,124.61L614.26,124.61
	L614.26,124.61z"/>
</svg>
