<svg xmlns="http://www.w3.org/2000/svg" viewBox="0 0 447.4 98.9"><path d="M146.9 55.6c-2-2.5-5.9-3.7-8.8-3.7-3.4 0-8.2 1.6-8.2 5.7 0 10.1 25.5 3.6 25.5 23 0 12.4-9.9 18.2-21.4 18.2-7.1 0-13.4-2.1-18.6-7l8.7-9.5c2.5 3.3 6.6 5.2 10.6 5.2s8.4-1.9 8.4-5.8c0-10.2-26-4.7-26-23.2 0-11.8 10.2-18 21.1-18 6.3 0 12.3 1.6 17 5.8l-8.3 9.3zm38.3 37.1h-.2c-2.6 4.1-7.3 5.7-12 5.7-7.1 0-13.5-4.1-13.5-11.7 0-13.1 16-13.4 25.7-13.4 0-4.1-3.4-6.8-7.5-6.8-3.8 0-7 1.7-9.5 4.5l-6.3-6.4c4.3-4.1 10.6-6.1 16.7-6.1 13.7 0 17.4 7 17.4 19.6v19.3h-10.8v-4.7zm-2.9-11.9c-3.6 0-11.6.3-11.6 5.5 0 2.8 3 4.1 5.6 4.1 4.6 0 8.9-2.4 8.9-7.1v-2.5h-2.9zm14.9-21.4h12.7l9.6 25.8h.2l8.9-25.8h11.8l-15 38H213l-15.8-38zm80.5 31.5c-3.8 4.8-9.9 7.5-16 7.5-11.7 0-21.1-7.8-21.1-19.9 0-12.1 9.4-19.9 21.1-19.9 11 0 17.8 7.8 17.8 19.9v3.7h-27.2c.9 4.5 4.3 7.4 8.8 7.4 3.8 0 6.4-2 8.4-4.6l8.2 5.9zm-9.9-16.8c.1-3.9-3-7.2-7.2-7.2-5.2 0-8 3.5-8.3 7.2h15.5zm18.1-14.7h11.7v6.1h.2c2.5-4.6 5.8-7 11-7 1.3 0 2.8.1 3.9.4v10.7c-1.6-.5-3.3-.8-5-.8-8.9 0-10 5.2-10 12.8v15.9H286V59.4zm31.6-17.3h12.2v44.1h22.6v11.3h-34.8V42.1zm44.7-1.4c3.8 0 6.8 3.1 6.8 6.8s-3.1 6.8-6.8 6.8c-3.8 0-6.8-3.1-6.8-6.8s3.1-6.8 6.8-6.8zm-5.8 18.7h11.7v38h-11.7v-38zm23.5 9.4h-7.7v-9.4h7.7v-6.7c0-8.3 2.1-15.3 14.9-15.3 2.3 0 4.7.2 6.9.7l-.5 9.9c-1.3-.5-2.4-.8-3.8-.8-3.8 0-5.6 1.2-5.6 6.2v6h8.7v9.4h-8.7v28.6h-11.7V68.8zm59.7 22.1c-3.8 4.8-9.9 7.5-16 7.5-11.7 0-21.1-7.8-21.1-19.9 0-12.1 9.4-19.9 21.1-19.9 11 0 17.8 7.8 17.8 19.9v3.7h-27.2c.9 4.5 4.3 7.4 8.8 7.4 3.8 0 6.4-2 8.4-4.6l8.2 5.9zm-9.9-16.8c.1-3.9-3-7.2-7.2-7.2-5.2 0-8 3.5-8.3 7.2h15.5zm17.7-27.8c0 2-1.6 3.6-3.6 3.6s-3.7-1.6-3.7-3.6 1.6-3.6 3.7-3.6c2 .1 3.6 1.6 3.6 3.6zm-6.4 0c0 1.6 1.2 2.8 2.8 2.8 1.6 0 2.7-1.3 2.7-2.8 0-1.6-1.2-2.9-2.7-2.9-1.6.1-2.8 1.4-2.8 2.9zm2.2 1.9h-.8v-3.6c.3-.1.8-.1 1.4-.1.7 0 1 .1 1.2.3.2.2.3.4.3.8s-.3.7-.7.8c.3.1.5.4.7.9.1.5.2.8.3.9h-.9c-.1-.1-.2-.5-.3-.9-.1-.4-.3-.6-.7-.6h-.4v1.5zm0-2h.4c.5 0 .8-.2.8-.5s-.2-.5-.8-.5h-.5v1z" fill="#333"/><path d="M31.8 80c5.4 0 9.8-4.4 9.8-9.8V48.9c0-5.4-4.4-9.8-9.8-9.8S22 43.5 22 48.9v21.3c0 5.4 4.4 9.8 9.8 9.8zm43.9-21.5c-5.4 0-9.8-4.4-9.8-9.8V27.4c0-5.4 4.4-9.8 9.8-9.8s9.8 4.4 9.8 9.8v21.3c0 5.4-4.4 9.8-9.8 9.8zm21.9 0c-5.4 0-9.8-4.4-9.8-9.8V9.8c0-5.4 4.4-9.8 9.8-9.8s9.8 4.4 9.8 9.8v38.9c0 5.4-4.4 9.8-9.8 9.8zM9.8 97.9c5.4 0 9.8-4.4 9.8-9.8v-39c0-5.4-4.4-9.8-9.8-9.8S0 43.7 0 49.1V88c0 5.4 4.4 9.9 9.8 9.9z" fill="#d99cc5"/><path d="M53.8 58.5c-5.4 0-9.8-4.4-9.8-9.8s4.4-9.8 9.8-9.8 9.8 4.4 9.8 9.8-4.4 9.8-9.8 9.8zm22-21.3c-5.4 0-9.8-4.4-9.8-9.8s4.4-9.8 9.8-9.8 9.8 4.4 9.8 9.8-4.5 9.8-9.8 9.8zm21.8-17.6c-5.4 0-9.8-4.4-9.8-9.8S92.2 0 97.6 0s9.8 4.4 9.8 9.8-4.4 9.8-9.8 9.8zM31.8 80c5.4 0 9.8-4.4 9.8-9.8s-4.4-9.8-9.8-9.8-9.8 4.4-9.8 9.8 4.4 9.8 9.8 9.8zm-22 17.9c5.4 0 9.8-4.4 9.8-9.8s-4.4-9.8-9.8-9.8S0 82.7 0 88.1c0 5.3 4.4 9.8 9.8 9.8z" fill="#ab2287"/></svg>