<svg xmlns="http://www.w3.org/2000/svg" xmlns:xlink="http://www.w3.org/1999/xlink" viewBox="0 0 3467 594"><defs/><defs><path id="a" d="M200 400a200 200 0 100-400 200 200 0 000 400z"/></defs><g fill="none" fill-rule="evenodd"><path stroke="#666B72" stroke-width="38" d="M19 269V19h250M575 325v250H325"/><path fill="#666B72" d="M2068 457V202h47v255h-47zm-1-335h49v43h-49v-43zM1765 328l106-218h53l-113 219h115V229h49v100h43v44h-43v84h-49v-84h-161v-45z"/><path fill="#155DA1" d="M297 497a200 200 0 100-400 200 200 0 000 400z"/><g transform="translate(97 97)"><mask id="b" fill="#fff"><use xlink:href="#a"/></mask><use xlink:href="#a"/><path fill="#64AB8A" d="M240 112c-7 2-7 3-15 1-8-1-5-18-20-18-14 0-27-9-42 2s-29 12-34 30c-6 17-12 24-12 48 0 23 7 25 14 30 6 5 40 0 44 0 3 0 24-8 31 8 7 17 11 26 8 37-2 10-6 29 1 37 8 8 10 24 13 34 2 9 2 19 10 19s17 1 24-5c7-5 19-25 19-25s7-12 7-19c0-6 20-17 20-24s-6-30-3-36c3-5 34-28 34-38 0-11-13-12-13-12s-19-2-22-10c-4-8-26-45-22-50 4-4 6 1 11 7 4 6 14 23 24 31 9 8 25 25 35 8 9-18 35-23 28-35-6-13-19-16-21-14-1 3-14 9-17 0-3-8-4-18 7-18 10 0 24 9 26-4s35 11 35 11 15 21 23 21 29-13 29-13l-5-81-131-47-131-13s-23 47-20 60-3 22-12 22-21 18-15 24c5 7 39 7 52-6s9-23 38-9c29 13 25-16 38 0 12 15 27 21 10 39-17 17-39 6-46 8zM3 212s18 4 22 10-1 17 7 17 13 7 22 7c10 0 29 5 29 12s-8 16-11 22-2 9-4 18c-2 10-7 18-10 18-4 0-11 4-13 10-2 5-2 10-11 17s-7 17-16 17-14 14-14 14l-34-121s-3-53 7-53c9 0 13 4 13 4l13 8z" mask="url(#b)"/></g><path fill="#666B72" d="M826 234c21-25 48-37 79-37 42 0 69 16 83 48 5 12 7 25 7 40v172h-47V294c0-22-5-37-15-46s-23-14-39-14c-18 0-34 7-47 21a68 68 0 00-21 50v152h-47V98h47v136zm372 106c-43 0-71 2-86 7-14 4-24 10-29 16-6 6-9 15-9 27 0 23 18 35 52 35a71 71 0 0071-74l1-11zm2 76c-20 31-50 46-90 46-38 0-64-12-76-36-5-10-7-23-7-40s4-31 13-42c8-11 20-20 35-26 24-9 65-14 123-14v-24c0-13-3-22-7-28-10-12-28-18-52-18-23 0-39 6-48 17-6 7-8 15-8 23v6h-46l-1-16c0-7 2-16 8-25 5-9 12-16 22-23 20-12 44-19 74-19h5c34 0 59 7 75 20 17 14 25 33 25 58v132c0 6 1 11 4 14 3 2 6 4 10 4 8 0 15-3 23-7v34c-11 7-24 10-39 10s-26-4-32-13c-7-9-11-20-11-33zm311-59c0 33-10 59-30 78-19 18-44 27-75 27h-4c-33 0-60-11-80-33-21-23-32-54-32-93v-12c0-39 11-71 32-94 20-22 47-33 80-33h4c31 0 56 10 76 29s29 44 29 76h-46c0-31-12-52-35-63a71 71 0 00-53 0c-8 4-15 9-21 15a81 81 0 00-19 58v27c0 29 6 51 18 65 13 14 29 21 51 21 21 0 36-7 46-19 10-13 15-29 15-49h44zm197 100l-76-95-38 40v55h-47V98h47v246l113-142h52l-99 124 105 131h-57zM2332 294c0-40-15-60-46-60-16 0-30 7-42 21a74 74 0 00-18 50v152h-47V202h34l7 37c19-28 46-42 80-42s57 14 70 42c12-17 25-28 39-34a105 105 0 0173-3c10 4 19 9 26 16 16 15 24 38 24 67v172h-47V294c0-40-15-60-46-60-16 0-30 7-42 21a74 74 0 00-18 50v152h-47V294zm296 131v122h-47V202h35l6 35c19-27 45-40 79-40 30 0 55 10 73 31 20 24 30 58 30 102v5c0 40-9 72-29 95a92 92 0 01-74 32c-32 0-56-12-73-37zm129-96c0-50-12-80-38-90-8-3-17-5-26-5-21 0-37 7-48 21-12 16-18 40-18 74 0 50 13 81 39 91 8 3 17 5 27 5 20 0 36-7 46-21 12-16 18-40 18-75zm245 11c-43 0-71 2-86 7-14 4-24 10-30 16-5 6-8 15-8 27 0 23 17 35 52 35a71 71 0 0071-74l1-11zm2 76c-21 31-51 46-90 46-38 0-64-12-76-36-5-10-7-23-7-40s4-31 12-42c9-11 20-20 35-26 24-9 65-14 124-14v-24c0-13-3-22-7-28-11-12-28-18-52-18-23 0-39 6-49 17-5 7-8 15-8 23v6h-46l-1-16c0-7 3-16 8-25 6-9 13-16 22-23 20-12 45-19 75-19h5c34 0 59 7 75 20 16 14 24 33 24 58v132c0 6 2 11 5 14 3 2 6 4 9 4 8 0 16-3 23-7v34c-11 7-23 10-38 10s-26-4-32-13c-7-9-11-20-11-33zm312-59c0 33-10 59-30 78-19 18-44 27-75 27h-4c-34 0-61-11-81-33-21-23-32-54-32-93v-12c0-39 11-71 32-94 21-22 47-33 80-33h4c31 0 56 10 76 29s30 44 30 76h-47c0-31-11-52-34-63a71 71 0 00-53 0c-9 4-16 9-22 15a81 81 0 00-19 58v27c0 29 6 51 19 65 12 14 29 21 50 21s36-7 46-19c10-13 15-29 15-49h45zm119 69c9 0 19-3 31-8v35c-12 6-27 9-46 9-20 0-34-6-45-17-10-11-15-30-15-56V239h-28v-37h29l16-81h30v81h59v37h-59v153c0 19 6 29 18 32l10 2z"/></g></svg>