<?xml version="1.0" encoding="UTF-8" standalone="no"?>
<svg xmlns:rdf="http://www.w3.org/1999/02/22-rdf-syntax-ns#" xmlns="http://www.w3.org/2000/svg" xml:space="preserve" height="129.38" viewBox="0 0 99.999999 129.37755" width="100" version="1.1" xmlns:cc="http://creativecommons.org/ns#" xmlns:xlink="http://www.w3.org/1999/xlink" xmlns:dc="http://purl.org/dc/elements/1.1/"><g transform="matrix(1.25 0 0 -1.25 -508.46 394.75)"><g transform="matrix(1.7966 0 0 1.7966 -354.51 -208.96)"><path d="m439.24 279.37v-32.24h13.445v6.459h12.938v-9.434l-7.464-7.107h-24.394l-7.463 7.107v38.19l7.463 7.107h24.394l7.464-7.107v-8.428h-12.938v5.453h-13.445zm26.951-6.02v9.239l-7.805 7.429h-24.847l-7.804-7.429v-38.678l7.804-7.43h24.847l7.805 7.43v10.244h-14.073v-6.459h-12.311v31.108h12.311v-5.454h14.073z" fill="#fff"/><path d="m10.949 0-10.949 10.422v50.053l10.949 10.424h32.65l10.947-10.424v-15.646h-21.566v8.0723h-11.414v-34.904h11.414v6.8145h21.566v-14.389l-10.946-10.423h-32.651zm0.79492 1.9883h31.059l9.7559 9.2871v11.547h-17.59v-6.8164h-15.391v38.885h15.391v-8.0723h17.59v12.805l-9.7559 9.2852h-31.059l-9.7559-9.2852v-48.348l9.7559-9.2871zm0.2832 0.70703-9.3301 8.8848v47.736l9.3301 8.8848h30.492l9.3301-8.8848v-11.791h-16.174v8.0723h-16.807v-40.299h16.807v6.8164h16.174v-10.535l-9.3301-8.8848h-30.492z" transform="matrix(.8 0 0 -.8 424.15 291.61)" fill="#b31b1b"/></g></g></svg>