<svg xmlns="http://www.w3.org/2000/svg" fill="none" viewBox="0 0 499 100"><defs/><path fill="#fff" d="M149.06 40.87c-4.42 0-8.07 1.8-10.18 4.87V28.39h-5.5V73h5.5V59.11c0-8.83 3-13.37 8.7-13.37 4.48 0 6.53 2.81 6.53 8.96V73h5.5V53.35c0-8.13-3.7-12.48-10.55-12.48zm31.96 0c-5.5 0-9.8 2.11-13.31 6.6l3.96 3.32c2.5-3.33 5.5-5.05 9.22-5.05 4.8 0 7.49 2.68 7.49 7.55v1.28h-6.98c-5.31 0-8.45.51-10.81 1.79-2.56 1.4-3.97 3.97-3.97 7.3 0 6.08 4.29 9.92 11.07 9.92 4.74 0 8.51-1.92 10.75-5.32l.39 4.74h5.05V53.29c0-7.81-4.8-12.42-12.86-12.42zm-2.05 28.1c-4.22 0-6.85-1.99-6.85-5.06 0-1.6.58-2.81 1.6-3.65 1.35-1.02 3.52-1.4 8.32-1.4h6.34v.32c0 5.82-3.84 9.79-9.41 9.79zm36.69 4.6c5.88 0 10.56-3.2 12.67-8.95l-5.06-1.92c-1.09 3.77-3.97 6.01-7.68 6.01-6.27 0-8.96-5.44-8.96-11.39s2.7-11.58 8.96-11.58c3.65 0 6.53 2.3 7.81 6.14l5.25-2.11c-2.5-6.02-7.23-8.9-13.06-8.9C205.8 40.87 201 49 201 57.32c0 8.64 5.12 16.26 14.66 16.26zm20.22-.57h5.5v-9.28l6.46-6.91L258.28 73h6.52l-13.18-19.58 11.52-11.97h-7.36l-14.4 15.42V28.4h-5.5V73zm57.97-15.87V28.39h-4.99L266.46 59v3.45h21.89V73h5.5V62.44h7.17v-5.31h-7.17zm-20.22 0l14.72-20.67v20.67h-14.72zm33.55-22.02h6.14V28.4h-6.14v6.72zM307.5 73h5.5V41.45h-5.5V73zm49.72-32.13c-4.54 0-8.13 1.86-10.3 6.15-1.73-4.42-5.19-6.15-9.28-6.15-3.4 0-6.6 1.22-8.58 4.48v-3.9h-5.37l.06 31.55h5.5V58.86c0-6.85 1.1-13.12 7.37-13.12 5.3 0 6.52 4.86 6.52 9.15V73h5.5V58.86c0-6.85 1.03-13.12 7.5-13.12 6.27 0 6.4 6.4 6.4 9.02V73h5.5V53.16c0-7.04-3.27-12.29-10.82-12.29zm36.27 0c-4.1 0-7.68 1.47-9.99 4.48v-3.9H378v44.6h5.5V69.04c2.12 2.82 5.76 4.55 9.99 4.55 8.77 0 13.82-6.66 13.82-16.39s-5.12-16.32-13.82-16.32zm-1.03 27.84c-6.27 0-9.4-4.93-9.4-11.52 0-6.85 3.32-11.52 9.4-11.52 5.96 0 9.35 4.48 9.35 11.52 0 6.85-3.2 11.52-9.35 11.52zm34.5-27.84c-5.5 0-9.8 2.11-13.32 6.6l3.97 3.32c2.5-3.33 5.5-5.05 9.22-5.05 4.8 0 7.49 2.68 7.49 7.55v1.28h-6.98c-5.31 0-8.45.51-10.82 1.79-2.56 1.4-3.96 3.97-3.96 7.3 0 6.08 4.28 9.92 11.07 9.92 4.73 0 8.51-1.92 10.75-5.32l.38 4.74h5.06V53.29c0-7.81-4.8-12.42-12.86-12.42zm-2.05 28.1c-4.23 0-6.85-1.99-6.85-5.06 0-1.6.57-2.81 1.6-3.65 1.34-1.02 3.52-1.4 8.32-1.4h6.34v.32c0 5.82-3.84 9.79-9.41 9.79zm36.68 4.6c5.9 0 10.56-3.2 12.68-8.95l-5.06-1.92c-1.09 3.77-3.97 6.01-7.68 6.01-6.27 0-8.96-5.44-8.96-11.39s2.69-11.58 8.96-11.58c3.65 0 6.53 2.3 7.8 6.14l5.26-2.11c-2.5-6.02-7.24-8.9-13.06-8.9-9.8 0-14.6 8.13-14.6 16.45 0 8.64 5.13 16.26 14.66 16.26zm34.56-27.64v-4.48h-7.74V29.86l-5.5 4.1v7.49h-5.2v4.48h5.2v19.2c0 5.95 3.58 8.45 8.12 8.45 1.66 0 3.4-.32 5.12-.9v-4.67c-1.4.45-2.69.7-3.78.7-2.5 0-3.96-1.28-3.96-4.16V45.93h7.74zM0 16.65V33.3h4.95V4.95H33.3V0H0v16.65zM100 83.35V66.7h-4.95v28.35H66.7V100H100V83.35z"/><path fill="#fff" fill-rule="evenodd" d="M63.26 80.93c12.28-5.07 20.9-16.94 20.9-30.78 0-18.45-15.32-33.4-34.21-33.4-.97 0-1.93.04-2.88.12l-.08.2c-.33.87-.64 1.76-.8 2.35-.05.13-.09.27-.1.34l-.02.03a5.38 5.38 0 00-.22 2.67c.06.3.07.43.05.87a2.5 2.5 0 01-.7 1.84c-.26.26-.52.43-.76.5-.2.07-.54.13-.7.13-.49 0-1.02.29-1.58.88a4.4 4.4 0 00-.83 1.14c-.56 1.15-.48 1.96.24 2.34.18.1.54.22.79.28l.07.01.15.04c.53.12 1.6.19 2.47.14a9.27 9.27 0 003.73-.89c.82-.41 1.31-.88 2.27-2.17.84-1.12 1.16-1.34 1.96-1.34.5 0 .75.06 1.54.31.6.2.84.3 1.75.7a4.8 4.8 0 002.94.58c.6-.16.88-.31 1.55-.88.46-.4.55-.44.81-.44.28 0 .42.08.75.42.27.26.32.32.61.67.2.23.34.4 1.15 1.23 1.05 1.1 1.32 1.46 1.54 2.03.07.2.08.28.08.6 0 .41-.03.58-.2.96-.23.5-.84 1.27-1.41 1.79a5.28 5.28 0 01-3.74 1.33c-.67 0-1.1-.04-2.32-.22a7.6 7.6 0 00-.89-.08h-.42l-.48.17c-.67.23-.91.25-1.65.11-.8-.15-.95-.27-1.47-1.3-.39-.76-.51-.95-.8-1.23a1.97 1.97 0 00-.84-.5l-.87-.09a13.35 13.35 0 01-1.56-.2l-1.31-.25a5.18 5.18 0 00-2.72.12c-.45.15-.78.33-1.46.8a9.48 9.48 0 01-1.12.73l-.88.5-.98.56c-1.46.88-2.12 1.67-2.58 3.07a32.46 32.46 0 01-.98 2.7l-.02.08-.02.05-.05.14-.08.22c-.23.6-.48 1.54-.6 2.24-.13.77-.18 1.4-.18 2.56 0 1.05.03 1.51.13 2.06.24 1.31.62 1.96 1.57 2.66.82.59.97.65 1.9.73.93.07 2.65 0 4.56-.22l.47-.05a48.85 48.85 0 011.46-.17 6.38 6.38 0 012.92-.1c.52.14 1.03.47 1.38.88.18.2.42.65.61 1.09a359.68 359.68 0 01.63 1.5c.12.28.43 1.18.54 1.59.16.57.26 1.2.26 1.68 0 .4-.05.7-.22 1.56l-.02.11-.18.93-.04.22-.14.98v.02c-.05.41-.05 1.72 0 1.97.16.78.28 1.04.74 1.56.37.42.63.86.89 1.51.26.66.47 1.4.74 2.54l.32 1.3.05.23.04.14.17.76.02.11.15.72c.18.77.42 1.2.8 1.39l.19.1h1.04c1.2-.01 1.48-.04 2.15-.23.79-.23 1.28-.6 2.05-1.56a36 36 0 002.55-3.75 20.85 20.85 0 00.67-1.42c.13-.3.24-.74.28-1.12.04-.33.1-.48.3-.76.12-.2.88-.96 1.58-1.6.63-.57.82-.77 1.06-1.09.3-.38.34-.5.34-.88 0-.31-.08-.93-.28-2.18a56.15 56.15 0 01-.25-1.83c-.06-.42-.05-1.4.01-1.6.1-.34.3-.58 1.1-1.32l.47-.42a11.17 11.17 0 00.42-.38l.22-.2.07-.07a42.44 42.44 0 002.77-2.77c.11-.12.45-.63.56-.83.17-.31.22-.5.22-.78 0-.68-.35-1.2-1.05-1.58a3.67 3.67 0 00-1.53-.43c-1-.11-2-.38-2.5-.66-.62-.34-.75-.5-1.06-1.18a39.21 39.21 0 00-1.04-2.04l-.17-.33a62.77 62.77 0 01-1.98-4.06c-.28-.7-.41-1.26-.35-1.5.06-.21.36-.45.57-.45.22 0 .46.24.86.84l.02.02.22.33c.37.5.66.93 1.14 1.65.72 1.1.8 1.21 1.37 1.97a11.07 11.07 0 002.12 2.17l1.15.96c.32.27.92.69 1.16.81.66.34.87.4 1.36.4.32 0 .4 0 .56-.07.26-.1.4-.2.63-.42.23-.21.37-.41.66-.9.58-.96 1.3-1.66 3.1-2.95 1.08-.78 1.44-1.13 1.68-1.6.1-.17.1-.23.12-.48 0-.33-.04-.49-.27-.87a4.76 4.76 0 00-.8-1 3.86 3.86 0 00-2.13-1.18c-.23-.03-.36.02-.55.2-.26.22-.81.5-1.27.61-.3.08-.78.07-1-.01-.18-.07-.4-.27-.49-.43a7.5 7.5 0 01-.3-1.1c-.05-.2-.07-.4-.06-.77 0-.44 0-.52.07-.68.14-.36.36-.57.72-.7.2-.06.28-.07.65-.07.46 0 .83.06 1.63.26.91.23 1.01.25 1.48.25.4 0 .45 0 .58-.07.09-.04.23-.16.32-.27.15-.16.17-.17.17-.11 0 .04.02.06.04.05.01-.01.03 0 .03.04s0 .07.02.07.04.03.05.08c.01.04.04.07.05.07.02 0 .03.04.03.09 0 .07 0 .08.03.04s.03-.03.03.04c0 .05.02.08.04.07.01-.01.03 0 .03.04s.01.07.03.07l.04.1c.01.06.04.11.05.11.02 0 .03.03.03.05 0 .03.02.05.03.05.02 0 .04.03.04.07 0 .06 0 .06.03.02.02-.04.03-.03.03.04 0 .05.01.08.03.07.01 0 .04.03.05.1 0 .05.03.1.05.1.01 0 .02.03.02.07 0 .03.02.05.04.04.01 0 .03.02.03.07 0 .04 0 .07.03.06.02-.01.03.01.03.06 0 .04.01.08.03.08.02 0 .02.01.02.03v.03c.03 0 .04.03.04.06 0 .04.02.07.03.07.02 0 .03.03.03.08 0 .07.01.08.04.04.02-.03.03-.02.03.06s0 .1.03.06c.02-.03.03-.03.03.04 0 .04.02.1.05.14.02.03.04.1.04.14 0 .06 0 .07.03.03.03-.04.04-.02.04.05s0 .1.03.09c.02-.01.03 0 .03.04s.01.07.03.07c.02 0 .03.03.03.07 0 .05.02.1.05.13.02.02.04.07.04.1 0 .04.02.07.03.07.02 0 .04.03.04.06 0 .04.01.07.03.07.02 0 .03.03.03.08 0 .04.01.07.03.06.01 0 .03.04.04.1.01.07.04.13.05.13.02 0 .03.04.03.08 0 .05.02.07.04.06.01-.01.03.02.03.08s0 .09.03.08c.02-.02.03.02.03.08 0 .07 0 .09.03.06.01-.02.03 0 .04.1.01.07.04.13.05.14.02 0 .04.05.04.1 0 .06 0 .1.03.08.02-.01.03.02.03.08 0 .08 0 .1.03.06.02-.04.03-.03.03.05 0 .05.02.12.05.15.02.03.04.1.04.15 0 .05.02.08.03.07.02-.01.04.02.04.07 0 .06.01.1.03.1.02 0 .03.05.03.1s.01.09.03.07c.02 0 .03.02.03.08 0 .05.02.1.03.1.02 0 .05.07.05.14.01.08.03.13.05.12.01-.01.03.03.03.1 0 .06 0 .1.03.09.02-.02.03.02.03.09 0 .06.01.11.03.11.02 0 .03.03.03.07 0 .05.02.1.03.1.02.01.03.03.02.05-.01.01 0 .03.01.04.02.01.03.07.03.13s.02.1.04.1c.01 0 .03.05.03.1 0 .06.01.1.03.08.02-.01.03.03.03.12 0 .08 0 .11.03.09.01-.03.03.02.04.14.01.1.04.18.05.19.02 0 .04.07.04.14 0 .1 0 .12.03.08.02-.03.03 0 .03.11 0 .12 0 .15.03.11.02-.03.03 0 .03.11 0 .1.01.14.03.12.01-.03.03.03.05.18 0 .12.03.22.05.22.01 0 .03.05.03.12 0 .07.01.13.03.13.02 0 .03.05.03.12 0 .08.01.12.03.11.02-.01.03.04.03.12 0 .08.01.14.03.13.01 0 .04.1.05.26.01.17.03.25.05.22.02-.03.03.02.03.14 0 .13 0 .18.03.14.02-.03.03.01.03.14 0 .14 0 .18.03.14.02-.03.03.02.03.15 0 .11.01.2.03.19.02-.02.07.29.07.52 0 .07 0 .1.03.1.02-.02.03.05.03.17 0 .14 0 .19.03.15.02-.03.03.03.03.2 0 .18.01.24.03.2.02-.02.03.03.03.2 0 .13.02.25.03.25.02 0 .04.22.05.49.02.26.04.46.05.45.02 0 .03.14.03.33 0 .23.01.34.03.33.02-.01.03.15.03.44A27.75 27.75 0 0183.6 50a27.75 27.75 0 01-.09 2.71c-.02-.03-.03.07-.03.3 0 .2-.01.36-.03.35-.01-.01-.03.2-.05.45a2.2 2.2 0 01-.05.49c-.02 0-.03.1-.03.23s-.01.2-.03.2c-.02-.02-.03.06-.03.22 0 .17 0 .23-.03.2-.02-.04-.03 0-.03.15 0 .12-.01.19-.03.17-.02 0-.03.03-.03.1 0 .23-.05.54-.07.52-.02 0-.03.07-.03.16 0 .11-.01.17-.03.16-.02-.01-.03.05-.03.16 0 .13-.01.17-.03.14-.02-.04-.03 0-.03.14 0 .12-.01.17-.03.14-.02-.03-.04.05-.05.22-.01.15-.04.27-.05.26-.02-.01-.03.05-.03.13s-.01.13-.03.12c-.02-.01-.03.03-.03.1 0 .08-.01.13-.03.13-.02 0-.03.06-.03.13s-.02.12-.03.12c-.02 0-.04.1-.05.22-.02.15-.04.21-.05.18-.02-.02-.03.02-.03.12 0 .11 0 .14-.03.1-.02-.03-.03 0-.03.1 0 .08-.01.12-.03.11-.02-.01-.03.03-.03.1s-.02.13-.04.14c-.01 0-.04.1-.05.19-.01.12-.03.17-.04.14-.02-.02-.03.01-.03.1 0 .08-.01.12-.03.11-.02-.01-.03.02-.03.07 0 .06-.02.1-.03.1-.01 0-.04.07-.04.15-.01.08-.04.15-.05.16-.02 0-.04.05-.04.1s-.01.09-.03.09c-.02 0-.03.05-.03.11 0 .07-.01.1-.03.1-.02-.02-.03.02-.03.09 0 .06-.02.1-.03.1-.02-.02-.04.03-.05.1 0 .08-.03.14-.05.15-.01 0-.03.05-.03.1 0 .06-.01.09-.03.08-.02-.02-.03.02-.03.07s-.01.1-.03.1c-.02 0-.03.04-.03.1 0 .05-.02.08-.03.07-.02 0-.04.05-.05.12-.01.08-.03.15-.05.15-.02 0-.03.04-.03.1 0 .07-.01.09-.03.05-.02-.03-.03-.02-.03.06 0 .06-.02.1-.03.08-.02-.01-.03.02-.03.08 0 .05-.02.1-.04.1-.01 0-.04.05-.05.12 0 .07-.03.11-.04.1-.02 0-.03.03-.03.08 0 .06-.01.1-.03.08-.02-.01-.03.02-.03.08s-.02.1-.03.08c-.02-.01-.04.01-.04.06 0 .04 0 .08-.03.08-.01 0-.04.06-.05.12 0 .07-.03.12-.04.11-.02 0-.03.02-.03.07 0 .04-.01.07-.03.06-.02-.01-.03.01-.03.06 0 .04-.02.08-.04.08-.01 0-.03.03-.03.06 0 .04-.02.09-.04.11a.22.22 0 00-.05.13c0 .04-.01.07-.03.06-.02-.02-.03.01-.03.06 0 .05-.01.07-.03.06-.02-.01-.03.02-.03.06 0 .05-.02.08-.04.07-.02-.02-.03.02-.03.12l-.04.07a.22.22 0 00-.05.13c0 .06 0 .07-.03.04-.02-.04-.03-.02-.03.06s-.01.1-.03.06c-.03-.04-.04-.03-.04.04 0 .05 0 .08-.03.08-.01 0-.03.03-.03.07 0 .03-.01.06-.03.06-.02 0-.02.01-.01.03 0 .02 0 .03-.02.03s-.03.04-.03.08c0 .05-.01.07-.03.06-.02 0-.03.01-.03.05 0 .03-.02.06-.03.06-.02 0-.04.03-.04.06 0 .04 0 .07-.03.07-.01 0-.03.02-.03.06 0 .03-.02.08-.05.1a.17.17 0 00-.04.1c0 .03-.01.04-.03.03-.02 0-.03.01-.03.05 0 .03-.02.06-.04.06-.01 0-.03.02-.03.05 0 .02 0 .05-.03.05-.01 0-.04.05-.05.1 0 .06-.03.11-.04.11-.02 0-.03.03-.03.07 0 .03-.02.05-.03.04-.02 0-.04.01-.04.05s0 .06-.03.05c-.01-.01-.03 0-.03.03s-.02.07-.04.1a.19.19 0 00-.05.1c0 .03-.01.06-.03.06-.02 0-.03.03-.03.07 0 .03-.02.05-.03.04-.02-.01-.04.02-.04.07 0 .07 0 .08-.03.04-.02-.04-.03-.04-.03.01 0 .03-.02.08-.05.1a.19.19 0 00-.04.11c0 .04-.01.06-.03.05-.02-.01-.03 0-.03.04s-.02.06-.04.05c-.01-.01-.03 0-.03.04s0 .07-.03.07c-.01 0-.03.03-.03.06a.1.1 0 01-.05.08c-.02 0-.04.04-.04.08 0 .03-.02.05-.03.04-.02 0-.03.01-.03.05s-.02.06-.04.05c-.01-.01-.03 0-.03.03 0 .02-.01.05-.03.05-.01 0-.03.02-.03.06 0 .03-.01.06-.03.06-.02 0-.04.03-.05.08-.01.04-.03.08-.05.08-.01 0-.03.03-.03.06 0 .06 0 .07-.03.03-.02-.04-.03-.03-.02.04.01.06 0 .08-.03.06-.02 0-.04 0-.04.03s-.02.07-.05.09a.16.16 0 00-.04.1c0 .06-.01.06-.04.02-.02-.03-.03-.03-.03.03 0 .04 0 .06-.03.05-.01 0-.03.01-.03.04 0 .04-.01.07-.03.07-.02 0-.04.03-.05.08 0 .04-.03.07-.05.06-.01-.01-.02 0-.02.03s-.02.05-.04.05c-.01 0-.03.03-.03.06 0 .04-.01.06-.03.05-.01-.01-.03 0-.03.03 0 .02-.01.05-.03.05-.02 0-.04.03-.05.07-.01.05-.03.07-.05.06-.01 0-.03 0-.03.03s0 .05-.03.05a.03.03 0 00-.03.04l-.08.11c-.06.06-.07.1-.06.15 0 .07 0 .07-.03.04-.04-.02-.05-.02-.05.02 0 .03 0 .04-.03.03-.01 0-.03.01-.03.04s-.03.08-.06.1c-.03.03-.05.06-.04.07 0 .02 0 .03-.02.03s-.03.02-.03.04-.03.06-.07.08c-.03.03-.06.07-.06.1 0 .04 0 .06-.02.05-.02-.03-.14.11-.14.16 0 .02 0 .03-.03.02-.02 0-.03.01-.03.05s0 .06-.02.05c-.02-.03-.1.06-.1.11 0 .03-.02.06-.05.07-.04.01-.05.04-.04.08.02.05.01.06-.02.03-.04-.03-.05-.03-.05.01 0 .03-.01.05-.03.04-.02-.01-.03 0-.03.03s-.04.08-.08.11c-.04.04-.08.08-.08.1 0 .03 0 .05-.03.04-.01-.01-.03 0-.03.04s-.01.06-.03.05c-.02 0-.03 0-.03.02s-.04.06-.08.1c-.04.04-.08.1-.08.13 0 .05 0 .06-.03.02-.02-.04-.03-.04-.03.02 0 .04-.01.07-.02.06-.02-.01-.05.01-.08.05l-.1.13a.32.32 0 00-.08.1l-.08.1c-.05.04-.07.1-.06.12 0 .02 0 .03-.02.02-.03-.02-.12.06-.12.11 0 .02-.01.03-.03.02-.02-.01-.03 0-.03.01 0 .02-.04.07-.08.11-.05.04-.08.1-.06.11 0 .02 0 .02-.04.01s-.05 0-.03.04c.01.03 0 .04-.01.03-.02-.01-.05 0-.08.03s-.04.05-.03.05c.01 0 0 .02-.04.06-.04.03-.07.07-.07.1 0 .01-.01.02-.03.01-.02 0-.03 0-.03.02s-.04.06-.08.1c-.05.03-.08.08-.07.1.01.03 0 .04-.03.02-.04-.01-.05 0-.03.04.01.03 0 .04-.03.03-.04-.02-.05-.01-.03.03 0 .03 0 .05-.02.03-.03-.02-.37.3-.37.37 0 .02 0 .02-.02.02-.02-.02-.14.1-.22.22-.03.03-.06.06-.08.05 0-.01-.02.01-.02.05 0 .05-.01.06-.03.04-.01-.03-.03-.02-.06.03a.74.74 0 01-.1.1 3.74 3.74 0 00-.6.62c-.05-.02-.06-.01-.04.03 0 .03 0 .04-.03.03-.04-.02-.05 0-.04.03.02.03.01.04-.02.03-.02 0-.1.05-.16.13a.57.57 0 01-.17.14c-.01 0-.03.02-.03.04s0 .03-.02.02c-.03-.03-.11.06-.09.1.01.02 0 .02-.03 0-.04 0-.05 0-.04.04.01.02 0 .04-.02.04-.06 0-.37.29-.35.32.01.02 0 .03-.02.02-.02-.01-.08.01-.12.05a35.6 35.6 0 01-2 1.6c0 .01 0 .02-.01 0l-.09.05c-.03.03-.08.06-.1.06-.03 0-.04.01-.03.03.01.02 0 .03-.02.03-.03 0-.05.02-.05.03 0 .02-.03.04-.05.04-.03 0-.05.01-.05.03 0 .02-.01.03-.02.02-.02-.01-.05 0-.07.04-.03.03-.06.06-.08.06l-.07.06a.79.79 0 01-.17.11.98.98 0 00-.18.12c-.03.03-.08.06-.1.06 0 0-.03 0-.03.02s-.05.05-.12.09c-.07.03-.12.07-.12.08l-.04.02c-.02 0-.06.03-.09.06a.73.73 0 01-.17.12.84.84 0 00-.18.11c-.02.03-.06.06-.08.06-.02 0-.04 0-.04.03 0 .01 0 .03-.02.03-.05-.01-.16.04-.16.06 0 .02-.02.03-.04.03-.03 0-.06.03-.09.07-.02.03-.06.06-.08.06-.05 0-.23.1-.23.13l-.06.02c-.04 0-.07.02-.07.03 0 .02-.02.04-.04.04-.03 0-.05 0-.05.02 0 .01-.06.05-.14.08l-.14.09c0 .01-.02.02-.05.02-.03 0-.04.02-.03.04.01.01 0 .03-.04.03s-.07 0-.07.02l-.15.09c-.09.03-.16.07-.16.08 0 .01-.02.02-.05.02-.02 0-.04.02-.03.04.01.01 0 .03-.04.03s-.07.01-.08.03l-.11.05c-.05 0-.1.03-.1.05l-.04.02c-.03 0-.05.02-.05.03 0 .02-.03.04-.06.04s-.06 0-.06.03c0 .01-.02.03-.05.03-.02 0-.05.01-.05.03 0 .01-.02.03-.04.03-.06 0-.37.16-.39.2 0 0-.03.02-.07.02-.03 0-.06.01-.06.03 0 .02-.01.03-.02.02-.02-.01-.07.01-.13.05a.47.47 0 01-.14.05c-.03 0-.05.02-.05.04 0 .01-.03.03-.07.03-.04 0-.06 0-.05.02.03.02-.13.09-.28.12-.04.01-.07.03-.07.05 0 .01-.03.03-.06.03-.04 0-.06 0-.05.03.01.02 0 .03-.04.03s-.07.01-.07.03c0 .01-.03.03-.06.03-.07 0-.41.16-.43.2l-.09.02c-.04 0-.07.01-.07.03 0 .02-.02.03-.05.03-.05 0-.2.06-.33.13a.28.28 0 01-.1.03c-.03 0-.05 0-.05.03 0 .01-.04.03-.08.03-.05 0-.08.01-.06.03 0 .02-.02.03-.06.03a.44.44 0 00-.16.05.41.41 0 01-.14.05c-.04 0-.06 0-.06.03 0 .01-.04.03-.09.03-.04 0-.07.01-.05.03l-.01.02c.4-.15.81-.3 1.21-.47zm-1.22.47l-.04.01c-.05 0-.08.01-.08.03 0 .01-.07.04-.15.04-.07.02-.14.04-.15.06-.01.01-.05.03-.08.03s-.06 0-.06.03h.03l.53-.2zm-.62.22h-.04a37.6 37.6 0 00.04 0zm-.19.07c-.05 0-.1.01-.1.03.04 0 .07-.02.1-.03zm-.2.07H61h-.02a42.13 42.13 0 00.03 0zm-.67.22a.15.15 0 00-.03 0h.03zm-.37.1a28.38 28.38 0 010 0zm-.18.06l.04-.01-.04.01zm-.17.05a.1.1 0 00-.04.01h.03zm-.55.16l-.07.01.07-.01zm-15.84.56l.05.01h-.05zM29.7 23.23zm-.1.07a.17.17 0 01-.08.06l.08-.06zm-.2.14h.01zm-.19.15h.03c.03 0 .04-.02.03-.04l-.06.04zm-.19.14zm-.09.07h.02c.03 0 .05-.02.04-.03v-.01l-.06.04zm-.2.15a43.74 43.74 0 01.17-.12c0 .02 0 .03-.02.03s-.06.04-.1.08c-.04.04-.1.08-.13.08l.08-.07zm-.11.09l-.03.02a34.47 34.47 0 00-.54.44c.03.01.08-.01.13-.06a.48.48 0 01.1-.08l.09-.07.13-.11c.04-.03.06-.06.05-.08 0 0 .02-.02.06-.02.05 0 .06 0 .02-.03l-.01-.01zm-.6.47c.03.04-.05.13-.1.13-.02 0-.03.01-.02.03.01.02 0 .03-.01.03-.02 0-.07.04-.11.08-.04.05-.1.08-.11.06-.02 0-.02 0-.01.04s0 .05-.04.03c-.03-.01-.04 0-.03.01.01.02 0 .05-.03.08s-.05.04-.05.03c0-.01-.02 0-.06.04-.03.04-.07.07-.1.07-.01 0-.02.01-.01.03 0 .02 0 .03-.02.03s-.06.04-.1.08c-.03.05-.08.08-.1.07-.03-.01-.04 0-.02.03.01.04 0 .05-.04.03-.03-.01-.04 0-.03.03.02.04.01.05-.03.03-.03 0-.05 0-.03.02.02.03-.3.37-.37.37-.02 0-.02 0-.02.02.02.02-.1.14-.22.22-.03.03-.06.06-.05.08.01 0-.01.02-.05.02-.05 0-.06.01-.04.03.03.01.02.03-.03.06a.74.74 0 00-.1.1 3.74 3.74 0 01-.62.6c.02.05.01.06-.03.04-.03 0-.04 0-.03.03.02.04 0 .05-.03.04-.03-.02-.04-.01-.03.02 0 .02-.05.1-.13.16a.57.57 0 00-.14.17c0 .01-.02.03-.04.03s-.03 0-.02.02c.03.03-.06.11-.1.09-.02-.01-.02 0 0 .03 0 .04 0 .05-.04.04-.02-.01-.04 0-.04.02 0 .06-.29.37-.32.35-.02-.01-.03 0-.02.02.01.02-.01.08-.05.12A31.24 31.24 0 0023 30c-.05.06-.1.11-.1.13 0 .02-.01.03-.03.03-.02 0-.03.01-.02.02.01.01 0 .05-.04.09-.03.03-.06.08-.06.1 0 .03-.01.04-.03.03-.02-.01-.03 0-.03.02 0 .03-.02.05-.03.05-.02 0-.04.03-.04.05 0 .03-.01.05-.03.05-.02 0-.03.01-.02.02.01.02 0 .05-.04.07-.03.03-.06.06-.06.08l-.06.07a.79.79 0 00-.11.17.98.98 0 01-.12.18c-.03.03-.06.08-.06.1 0 0 0 .03-.02.03s-.05.05-.09.12c-.03.07-.07.12-.08.12l-.02.04c0 .02-.03.06-.06.09a.73.73 0 00-.12.17.84.84 0 01-.11.18c-.03.02-.06.06-.06.08 0 .02-.01.04-.03.04-.02 0-.03 0-.03.02.01.05-.04.16-.06.16-.02 0-.03.02-.03.04 0 .03-.03.06-.06.09-.04.02-.07.06-.07.08 0 .05-.1.23-.13.23l-.02.06c0 .04-.02.07-.03.07-.02 0-.04.02-.04.04 0 .03 0 .05-.02.05-.01 0-.05.06-.08.14l-.09.14c-.01 0-.02.02-.02.05 0 .03-.02.04-.04.03-.01-.01-.03 0-.03.04s0 .07-.02.07l-.09.15c-.03.09-.07.16-.08.16-.01 0-.02.02-.02.05 0 .02-.02.04-.04.03-.01-.01-.03 0-.03.04s-.01.07-.03.08l-.05.11c0 .05-.03.1-.05.1l-.02.04c0 .03-.02.05-.03.05-.02 0-.04.03-.04.06s0 .06-.03.06c-.01 0-.03.02-.03.05 0 .02-.01.05-.03.05-.01 0-.03.02-.03.04 0 .06-.16.37-.2.39 0 0-.02.03-.02.07 0 .03-.01.06-.03.06-.02 0-.03.01-.02.02.01.02-.01.07-.05.13a.47.47 0 00-.05.14c0 .03-.02.05-.04.05-.01 0-.03.03-.03.07 0 .04 0 .06-.02.05-.02-.03-.09.13-.12.28-.01.04-.03.07-.05.07-.01 0-.03.03-.03.06 0 .04 0 .06-.03.05-.01-.01-.03 0-.03.04s-.01.07-.03.07c-.01 0-.03.03-.03.06 0 .07-.16.41-.2.43l-.02.09c0 .04-.01.07-.03.07-.02 0-.03.02-.03.05 0 .05-.06.2-.13.33a.28.28 0 00-.03.1c0 .03 0 .05-.03.05-.01 0-.03.04-.03.08 0 .05-.01.08-.03.06-.02 0-.03.02-.03.06 0 .04-.02.1-.05.16a.42.42 0 00-.05.14c0 .04 0 .06-.03.06-.01 0-.03.04-.03.09 0 .04-.01.07-.03.05-.02 0-.03.02-.03.06 0 .05-.01.08-.03.08-.01 0-.04.07-.04.15-.02.07-.04.14-.06.15-.01.01-.03.05-.03.08s0 .06-.03.06c-.01 0-.03.05-.03.1s-.01.09-.03.07c-.02 0-.03.02-.03.08 0 .05-.01.1-.03.1-.01 0-.04.06-.05.14 0 .07-.03.14-.05.15-.01.01-.03.05-.03.1 0 .04 0 .07-.03.07-.01 0-.03.04-.03.1 0 .05-.01.09-.03.09-.02 0-.03.03-.03.07l-.02.1a.1.1 0 00-.03.04c-.03.17-.06.29-.08.29-.01 0-.03.04-.03.1 0 .04-.01.09-.03.09-.01 0-.03.05-.03.1 0 .07-.01.11-.03.1-.02-.01-.03.02-.03.08s-.02.16-.05.23a.77.77 0 00-.05.2c0 .03 0 .07-.03.07-.01 0-.03.05-.03.1 0 .06-.01.11-.03.11-.01 0-.03.05-.03.12 0 .06-.01.1-.03.09-.01 0-.04.07-.05.18 0 .12-.03.21-.05.22-.01.01-.03.07-.03.13s0 .11-.03.12c-.01.01-.03.07-.03.13 0 .07-.01.1-.03.09-.02-.01-.03.04-.03.12 0 .08-.01.15-.03.15-.01 0-.04.1-.05.24-.01.14-.03.25-.05.25-.01 0-.03.07-.03.14 0 .08 0 .15-.03.15-.01 0-.03.06-.03.14 0 .07-.01.14-.03.14-.02 0-.03.07-.03.15 0 .09-.01.15-.03.15-.02-.01-.04.12-.05.3a1.3 1.3 0 01-.05.35c-.02 0-.03.08-.03.17 0 .09-.01.15-.03.15-.02 0-.03.1-.03.2 0 .12-.01.21-.03.21-.02 0-.03.09-.03.2 0 .12-.02.2-.03.2-.02 0-.04.22-.05.49-.01.26-.03.5-.05.5-.02.01-.03.16-.03.33 0 .18-.01.3-.03.3-.02 0-.03.18-.03.45a21.16 21.16 0 00-.06 2.26c0 1.58 0 1.89.04 1.84.02-.03.05-.05.07-.05l.24.14c.11.07.26.14.32.16.17.02.91.24 1.25.35 1.36.48 2.11.93 2.35 1.42.14.29.19.5.22 1.06.05.89.07 1.03.2 1.24.14.22.3.28.84.34.5.05.78.15 1.62.56.98.49 1.23.57 1.9.6 1.06.06 1.66.16 2.48.39 1.22.34 2.04.8 2.35 1.32.03.05.04.17.04.4 0 .28-.02.37-.1.62-.2.57-.48 1.1-1.22 2.26-.66 1.02-.75 1.3-1.02 2.86a9.13 9.13 0 01-.6 2.28c-.38.9-.93 1.6-1.27 1.6-.5 0-1.47.67-1.9 1.32-.22.32-.27.45-.23.53.02.04.05.07.06.07.02 0 .03.02.03.04l.07.1a3.6 3.6 0 01.35.48c0 .02 0 .03.02.02.04-.02.34.3.32.35 0 .03.01.03.04.02.04-.01.05 0 .03.04-.01.03 0 .04.01.03.02-.01.06 0 .08.03.03.03.04.05.03.05 0 0 .08.1.19.2.11.13.2.24.19.26-.01.03 0 .03.01.02.02-.01.17.12.35.3l.34.36.27.27.12.11.23.22c.18.18.31.33.3.35-.01.01 0 .02.02.01.02 0 .13.08.25.2a1.39 1.39 0 00.26.2c.03.03.04.07.03.09-.01.02 0 .02.03 0 .04 0 .05 0 .04.04-.01.03 0 .04.02.04.05-.02.37.28.35.32-.01.02 0 .03.02.02.02-.01.08.01.12.05a28.35 28.35 0 001.67 1.34c.06.04.15.1.18.14l.11.08c.02 0 .03.01.03.03 0 .02.01.02.03.02.01-.01.05 0 .08.04.03.03.08.06.1.06.03 0 .04.01.03.03-.01.02 0 .03.02.03.03 0 .05.02.05.03 0 .02.03.04.05.04.03 0 .08.03.12.07.05.05.1.08.11.08.02 0 .04.01.04.03 0 .02.02.03.04.03.03 0 .05.01.05.03l.16.11c.08.05.15.1.15.12 0 .01.02.03.05.03.02 0 .05 0 .05.02s.05.05.12.09c.07.03.12.07.12.08l.04.02.09.06.18.12.16.1c.03.03.1.08.18.11.08.04.13.08.13.09l.05.02c.03 0 .05.02.05.03 0 .02.02.04.05.04.02 0 .04 0 .03.03-.01.01 0 .03.03.03.02 0 .1.03.17.08l.15.07c.02 0 .04.02.04.03 0 .02.02.04.04.04.03 0 .05 0 .05.02 0 .01.06.05.14.08l.14.09c0 .01.02.02.05.02.02 0 .04.02.04.04 0 .01.03.03.05.03.03 0 .05 0 .05.03 0 .01.02.03.05.03.05 0 .24.1.25.13 0 .02.03.02.06.02.02 0 .04.01.04.03 0 .02.23.13.28.13.02 0 .03.01.03.03 0 .02.03.03.05.03.03 0 .05.02.05.03 0 .02.03.04.06.04s.06 0 .06.03c0 .01.02.03.05.03.02 0 .05.01.05.03 0 .01.02.03.04.03.06 0 .37.16.39.2 0 0 .03.02.07.02.03 0 .06.01.06.03 0 .02.01.03.02.02.02-.01.07.01.13.05.05.03.12.05.14.05.03 0 .05.02.05.04 0 .01.03.03.07.03.04 0 .06 0 .05.02-.03.02.13.09.28.12.04.01.07.03.07.05 0 .01.03.03.06.03.04 0 .06 0 .06.03 0 .01.03.03.07.03.03 0 .06.01.06.03 0 .01.02.03.05.03.02 0 .11.03.2.08l.2.08c.03 0 .04 0 .03.03-.01.02.02.03.06.03.04 0 .08.01.08.03 0 .02.02.03.05.03.05 0 .2.06.33.13l.1.03c.03 0 .05 0 .05.03 0 .01.04.03.08.03.05 0 .08.01.06.03 0 .02.02.03.06.03.04 0 .1.02.16.05.05.02.11.05.14.05.04 0 .06 0 .06.03 0 .01.04.03.09.03.04 0 .07.01.05.03 0 .02.02.03.06.03.05 0 .08.01.08.03 0 .01.06.03.13.04a.75.75 0 01.25.09l.06.03.13.03c.03 0 .05.01.04.03 0 .02.02.03.08.03.05 0 .1.01.1.03 0 .01.06.04.14.05.07 0 .14.03.15.05.01.01.05.03.1.03.04 0 .07 0 .07.03 0 .01.05.03.1.03s.09.01.09.03c0 .02.04.03.1.03.05 0 .09.01.09.03 0 .02.07.04.15.05.09.01.16.03.16.05 0 .01.04.03.1.03.05 0 .09.01.09.03 0 .01.05.03.1.03.07 0 .11.01.1.03v.01C26.16 78.2 15.75 65.36 15.75 50.15a32.9 32.9 0 0112.27-25.64zm12.45 57.74h.02a34.53 34.53 0 00.5.13c0-.02-.04-.03-.07-.03a.76.76 0 01-.2-.05.95.95 0 00-.25-.05zm.81.22l.13.03c0-.02-.03-.03-.1-.03h-.03zm.53.13zm.11.03c.05 0 .1.02.14.03 0-.02-.06-.03-.12-.03h-.02zm.28.06l.09.02-.1-.02zm.71.15l.1.02-.1-.02zM29.34 23.5c0 .02 0 .03-.03.03l.03-.03zm31.14 58.45c0-.02.04-.03.1-.03l-.1.03zm.26-.1h.03l-.1.04c0-.02.03-.03.07-.03z" clip-rule="evenodd"/><path stroke="#fff" stroke-width="4.66" d="M81.82 50.15c0 17.1-14.21 31.07-31.87 31.07S18.08 67.26 18.08 50.15c0-17.1 14.21-31.07 31.87-31.07s31.87 13.96 31.87 31.07z"/></svg>