<svg width="499" height="100" viewBox="0 0 499 100" fill="none" xmlns="http://www.w3.org/2000/svg">
<path d="M0 16.6481V33.2961H2.47486H4.94973V19.1229V4.94975H19.1229H33.2961V2.47488V1.90735e-05H16.648H0V16.6481Z" fill="#657788"/>
<path d="M100 83.3521V66.704H97.5251H95.0503V80.8772V95.0504H80.8771H66.7039V97.5252V100H83.352H100V83.3521Z" fill="#657788"/>
<path d="M83.5803 50.1813C83.5803 68.7001 68.5409 83.7125 49.989 83.7125C31.4371 83.7125 16.3978 68.7001 16.3978 50.1813C16.3978 31.6625 31.4371 16.65 49.989 16.65C68.5409 16.65 83.5803 31.6625 83.5803 50.1813Z" fill="#80D2C8"/>
<path fill-rule="evenodd" clip-rule="evenodd" d="M47.1083 16.7716C30.1819 18.2067 16.8337 32.1707 16.4082 49.336C16.4073 49.5378 16.4067 49.7647 16.4067 50.0157C16.4077 50.5008 16.4089 50.8662 16.4112 51.1385C16.418 51.3804 16.4273 51.6217 16.4392 51.8623C16.4426 51.8684 16.4463 51.8679 16.4504 51.8623C16.4722 51.8342 16.5034 51.8092 16.519 51.8092C16.5346 51.8092 16.6407 51.8716 16.7561 51.9465C16.8715 52.0213 17.0212 52.0931 17.0836 52.1055C17.252 52.1336 17.9944 52.352 18.325 52.4643C19.6881 52.9384 20.4398 53.3875 20.68 53.8772C20.8203 54.1673 20.8671 54.3888 20.8983 54.9409C20.9513 55.8267 20.9732 55.9671 21.1042 56.1792C21.2445 56.4037 21.3911 56.463 21.9432 56.5191C22.4392 56.5691 22.7199 56.6657 23.559 57.0837C24.5384 57.5703 24.7879 57.6483 25.4679 57.6857C26.5221 57.745 27.1241 57.8386 27.9445 58.0662C29.1578 58.4062 29.9782 58.871 30.287 59.3888C30.3213 59.4449 30.3306 59.5572 30.3306 59.7943C30.3275 60.075 30.3119 60.1623 30.2277 60.4119C30.0343 60.9795 29.7505 61.5036 29.0081 62.667C28.35 63.6932 28.2564 63.9646 27.9944 65.5335C27.8197 66.5878 27.67 67.1523 27.3924 67.8105C27.0119 68.7088 26.4598 69.4012 26.1229 69.4012C25.6269 69.4012 24.6475 70.0843 24.214 70.7331C23.9988 71.0544 23.9457 71.1792 23.9894 71.2634C24.0112 71.3039 24.0393 71.3351 24.0549 71.3351C24.0674 71.3351 24.0799 71.3507 24.0799 71.3663C24.0799 71.385 24.111 71.4349 24.1516 71.4755C24.189 71.516 24.2576 71.594 24.3044 71.6533C24.3512 71.7094 24.4198 71.7905 24.4541 71.8311C24.4885 71.8747 24.5103 71.9278 24.5009 71.9496C24.4947 71.9745 24.5009 71.9839 24.5165 71.9745C24.5571 71.9496 24.8628 72.274 24.844 72.3239C24.8378 72.3488 24.8503 72.3551 24.8815 72.3426C24.922 72.327 24.9283 72.3364 24.9127 72.3769C24.9002 72.4081 24.9033 72.4237 24.922 72.4112C24.9407 72.3988 24.975 72.4143 25.0031 72.4393C25.0281 72.4674 25.0437 72.4892 25.0343 72.4892C25.025 72.4892 25.1061 72.5828 25.2183 72.6982C25.3306 72.8167 25.4148 72.929 25.4055 72.9508C25.3961 72.9758 25.4055 72.982 25.4242 72.9696C25.4429 72.9571 25.5926 73.0912 25.7673 73.2721C25.9389 73.4499 26.0917 73.609 26.1073 73.6277C26.151 73.6682 26.3536 73.8709 26.3818 73.899L26.3818 73.8991C26.3883 73.9056 26.4338 73.9494 26.5011 74.0142C26.5629 74.0736 26.6429 74.1507 26.728 74.2328C26.9089 74.4075 27.043 74.5572 27.0306 74.5759C27.0181 74.5946 27.0243 74.604 27.0493 74.5946C27.0711 74.5853 27.1834 74.6695 27.3019 74.7818C27.4173 74.8941 27.5109 74.9752 27.5109 74.9658C27.5109 74.9565 27.5328 74.972 27.5608 74.997C27.5858 75.0251 27.6014 75.0594 27.5889 75.0781C27.5764 75.0968 27.592 75.0999 27.6232 75.0875C27.6638 75.0719 27.6731 75.0781 27.6575 75.1186C27.645 75.1498 27.6513 75.1623 27.6762 75.1561C27.7261 75.1374 28.0505 75.443 28.0256 75.4836C28.0162 75.4992 28.0256 75.5054 28.0505 75.4992C28.0724 75.4898 28.1254 75.5117 28.1691 75.546C28.2096 75.5803 28.2907 75.6489 28.3468 75.6957C28.4061 75.7425 28.4841 75.8111 28.5246 75.8485C28.5652 75.8891 28.6089 75.9203 28.6182 75.9203C28.6276 75.9203 28.6681 75.9483 28.7056 75.9858C28.743 76.0232 28.8241 76.0887 28.8833 76.1324C28.9426 76.1792 29.0424 76.2634 29.1017 76.3164C29.1609 76.3725 29.2202 76.4193 29.2358 76.4193C29.2483 76.4193 29.3013 76.463 29.3575 76.5129C29.4105 76.5659 29.4666 76.6065 29.4791 76.6065C29.4916 76.6065 29.5384 76.6408 29.582 76.6845C29.6257 76.7281 29.6756 76.7624 29.6943 76.7624C29.7099 76.7624 29.7255 76.7718 29.7255 76.7843C29.7255 76.7999 29.7785 76.8435 29.8409 76.8872C29.9033 76.9309 29.9875 76.9964 30.025 77.0338C30.0655 77.0744 30.1123 77.1055 30.131 77.1055C30.1466 77.1055 30.1622 77.1211 30.1622 77.1399C30.1622 77.1555 30.1747 77.1648 30.1903 77.1555C30.2027 77.1461 30.2402 77.1648 30.2714 77.1991C30.3026 77.2334 30.3462 77.2615 30.3712 77.2615C30.3961 77.2615 30.4055 77.274 30.3961 77.2927C30.3868 77.3114 30.3993 77.3239 30.4242 77.3239C30.4523 77.3239 30.4741 77.3364 30.4741 77.3551C30.4741 77.3707 30.4959 77.3863 30.5209 77.3863C30.5459 77.3863 30.5989 77.4206 30.6425 77.4643C30.6862 77.5079 30.7361 77.5422 30.7548 77.5422C30.7704 77.5422 30.786 77.5547 30.786 77.5734C30.786 77.589 30.8079 77.6046 30.8328 77.6046C30.8578 77.6046 30.8796 77.614 30.8796 77.6264C30.8796 77.642 30.9513 77.6919 31.0356 77.745C31.1229 77.7949 31.1915 77.8479 31.1915 77.8604C31.1915 77.8729 31.2134 77.8853 31.2383 77.8853C31.2633 77.8853 31.2851 77.8978 31.2851 77.9103C31.2851 77.9259 31.3412 77.9633 31.4099 77.9976C31.4785 78.0288 31.5346 78.0662 31.5346 78.0787C31.5346 78.0943 31.5502 78.1037 31.5658 78.1037C31.5845 78.1037 31.6251 78.1286 31.6594 78.1567C31.6906 78.1879 31.7717 78.2409 31.8372 78.2752C31.9027 78.3095 31.9775 78.3594 32.0025 78.3844C32.0274 78.4094 32.1085 78.4593 32.1803 78.4936C32.2551 78.5279 32.3144 78.5653 32.3144 78.5778C32.3144 78.5934 32.3362 78.6027 32.3612 78.6027C32.3862 78.6027 32.408 78.6152 32.408 78.6339C32.408 78.6495 32.4298 78.6651 32.4579 78.6651C32.4828 78.6651 32.4953 78.6776 32.486 78.6963C32.4766 78.7119 32.4891 78.7275 32.5172 78.7275C32.5421 78.7275 32.6201 78.7618 32.6887 78.8055C32.7573 78.8492 32.826 78.8835 32.8447 78.8835C32.8603 78.8835 32.8759 78.8959 32.8759 78.9147C32.8759 78.9303 32.8977 78.9458 32.9226 78.9458C32.9476 78.9458 32.9694 78.9552 32.9694 78.9677C32.9694 78.9833 33.0318 79.0207 33.1098 79.055C33.1878 79.0893 33.2502 79.1268 33.2502 79.1392C33.2502 79.1548 33.272 79.1642 33.2969 79.1642C33.3219 79.1642 33.3437 79.1767 33.3437 79.1954C33.3437 79.211 33.3656 79.2266 33.3905 79.2266C33.4155 79.2266 33.4373 79.239 33.4373 79.2578C33.4373 79.2734 33.4591 79.289 33.4872 79.289C33.5434 79.289 33.7274 79.3856 33.743 79.42C33.7492 79.4356 33.7742 79.4449 33.7991 79.4449C33.8241 79.4449 33.8428 79.4543 33.8428 79.4699C33.8428 79.4948 34.0705 79.6009 34.1235 79.6009C34.1422 79.6009 34.1547 79.6133 34.1547 79.6321C34.1547 79.6477 34.1765 79.6633 34.2015 79.6633C34.2264 79.6633 34.2483 79.6757 34.2483 79.6944C34.2483 79.71 34.2764 79.7256 34.3107 79.7256C34.345 79.7256 34.3731 79.7381 34.3731 79.7568C34.3731 79.7724 34.3949 79.788 34.4198 79.788C34.4448 79.788 34.4666 79.8005 34.4666 79.8192C34.4666 79.8348 34.4885 79.8504 34.5134 79.8504C34.5664 79.8504 34.8815 80.0095 34.8971 80.0438C34.9033 80.0594 34.9345 80.0687 34.9688 80.0687C35 80.0687 35.0281 80.0843 35.0281 80.1031C35.0281 80.1186 35.0405 80.128 35.053 80.1186C35.0686 80.1093 35.1248 80.1311 35.1778 80.1654C35.2339 80.1966 35.2994 80.2247 35.3244 80.2247C35.3493 80.2247 35.3712 80.2372 35.3712 80.2559C35.3712 80.2715 35.4024 80.2871 35.4398 80.2871C35.4772 80.2871 35.4959 80.2964 35.4866 80.3089C35.4648 80.3276 35.6238 80.3994 35.7704 80.4337C35.8079 80.443 35.8391 80.4618 35.8391 80.4774C35.8391 80.4929 35.8671 80.5054 35.9014 80.5054C35.9357 80.5054 35.9638 80.5179 35.9638 80.5366C35.9638 80.5522 35.9919 80.5678 36.0262 80.5678C36.0605 80.5678 36.0886 80.5803 36.0886 80.599C36.0886 80.6146 36.1104 80.6302 36.1354 80.6302C36.1603 80.6302 36.2539 80.6645 36.3444 80.7082C36.4317 80.7518 36.5253 80.7861 36.5471 80.7861C36.5721 80.7861 36.5814 80.7986 36.5721 80.8173C36.5596 80.8361 36.5876 80.8485 36.6313 80.8485C36.675 80.8485 36.7124 80.861 36.7124 80.8797C36.7124 80.8953 36.7342 80.9109 36.7623 80.9109C36.8091 80.9109 36.9682 80.9733 37.093 81.0388C37.1241 81.0544 37.1709 81.0669 37.1959 81.0669C37.2208 81.0669 37.2427 81.0793 37.2427 81.0981C37.2427 81.1137 37.2801 81.1293 37.3238 81.1293C37.3674 81.1293 37.3955 81.1417 37.383 81.1604C37.3737 81.1792 37.3955 81.1916 37.4361 81.1916C37.4766 81.1916 37.5483 81.2135 37.5983 81.2384C37.645 81.2634 37.7137 81.2852 37.7449 81.2852C37.7792 81.2852 37.8041 81.2977 37.8041 81.3164C37.8041 81.332 37.8415 81.3476 37.8852 81.3476C37.9289 81.3476 37.957 81.3601 37.9445 81.3788C37.932 81.3975 37.9601 81.41 38.0037 81.41C38.0474 81.41 38.0848 81.4225 38.0848 81.438C38.0848 81.4536 38.141 81.4724 38.2096 81.4848C38.2813 81.4942 38.3656 81.5191 38.3968 81.5347C38.4139 81.5441 38.4365 81.555 38.4591 81.5659C38.4818 81.5769 38.5044 81.5878 38.5215 81.5971C38.5558 81.6127 38.612 81.6283 38.6463 81.6283C38.6837 81.6283 38.7024 81.6408 38.6931 81.6595C38.6806 81.6782 38.7149 81.6907 38.7679 81.6907C38.821 81.6907 38.8646 81.7032 38.8646 81.7188C38.8646 81.7344 38.927 81.7562 39.005 81.7656C39.0799 81.778 39.1516 81.7999 39.1609 81.8186C39.1734 81.8342 39.214 81.8467 39.2576 81.8467C39.2982 81.8467 39.3325 81.8591 39.3325 81.8779C39.3325 81.8934 39.3762 81.909 39.4261 81.909C39.4791 81.909 39.5197 81.9215 39.5197 81.9402C39.5197 81.9558 39.5633 81.9714 39.6132 81.9714C39.6663 81.9714 39.7068 81.9839 39.7068 81.9995C39.7068 82.0151 39.7785 82.0369 39.8628 82.0494C39.9501 82.0619 40.0187 82.0837 40.0187 82.0993C40.0187 82.1149 40.0624 82.1274 40.1123 82.1274C40.1653 82.1274 40.2059 82.1399 40.2059 82.1586C40.2059 82.1742 40.2558 82.1898 40.3182 82.1898C40.3837 82.1898 40.4211 82.2022 40.4086 82.221C40.3961 82.2397 40.4304 82.2522 40.4928 82.2522C40.549 82.2553 40.6519 82.274 40.7205 82.2989C40.7891 82.3239 40.8765 82.3457 40.917 82.3457C40.9545 82.3457 40.9857 82.3582 40.9857 82.3769C40.9857 82.3925 41.0356 82.4081 41.0948 82.4081C41.1541 82.4081 41.204 82.4206 41.204 82.4393C41.204 82.4549 41.2539 82.4705 41.3163 82.4705C41.3755 82.4705 41.4192 82.483 41.4099 82.4986C41.4005 82.5142 41.4816 82.536 41.5939 82.5485C41.7062 82.5578 41.8029 82.5828 41.8122 82.5984C41.8247 82.614 41.8777 82.6264 41.937 82.6264C41.9963 82.6264 42.0524 82.6389 42.0618 82.6576C42.0711 82.6732 42.1304 82.6888 42.1896 82.6888C42.2489 82.6888 42.2957 82.7013 42.2957 82.72C42.2957 82.7356 42.3518 82.7512 42.4205 82.7512C42.4891 82.7512 42.5452 82.7637 42.5452 82.7793C42.5452 82.7949 42.6575 82.8167 42.7948 82.8292C42.932 82.8417 43.0443 82.8635 43.0443 82.8791C43.0443 82.8947 43.1067 82.9072 43.1847 82.9072C43.2626 82.9072 43.325 82.9196 43.325 82.9384C43.325 82.954 43.3874 82.9696 43.4654 82.9696C43.5434 82.9696 43.6057 82.982 43.6057 83.0007C43.6057 83.0163 43.6775 83.0319 43.7648 83.0319C43.849 83.0319 43.9145 83.0444 43.9052 83.06C43.8958 83.0756 44.0331 83.0974 44.214 83.1099C44.3949 83.1224 44.5508 83.1442 44.5602 83.1598C44.5696 83.1754 44.6444 83.1879 44.7318 83.1879C44.816 83.1879 44.8846 83.2004 44.8846 83.2191C44.8846 83.2378 44.9719 83.2503 45.0873 83.2503C45.2027 83.2503 45.2901 83.2628 45.2901 83.2815C45.2901 83.3002 45.3774 83.3127 45.4928 83.3127C45.6051 83.3127 45.6956 83.3251 45.6956 83.3407C45.6956 83.3563 45.9139 83.3782 46.179 83.3906C46.4442 83.4031 46.6719 83.4249 46.6812 83.4405C46.6906 83.4561 46.8372 83.4686 47.0087 83.4686C47.1928 83.4686 47.3175 83.4811 47.3175 83.4998C47.3175 83.5185 47.486 83.531 47.7636 83.531C48.0599 83.531 48.1909 83.5404 48.1597 83.5622C48.1285 83.5809 48.7711 83.5934 50 83.5934C51.229 83.5934 51.8715 83.5809 51.8403 83.5622C51.8091 83.5404 51.9401 83.531 52.2396 83.531C52.514 83.531 52.6825 83.5185 52.6825 83.4998C52.6825 83.4811 52.8072 83.4686 52.9913 83.4686C53.1628 83.4686 53.3094 83.4561 53.3188 83.4405C53.3281 83.4249 53.5558 83.4031 53.821 83.3906C54.0861 83.3782 54.3044 83.3563 54.3044 83.3407C54.3044 83.3251 54.3949 83.3127 54.5072 83.3127C54.6226 83.3127 54.7099 83.3002 54.7099 83.2815C54.7099 83.2628 54.7973 83.2503 54.9127 83.2503C55.0281 83.2503 55.1154 83.2378 55.1154 83.2191C55.1154 83.2004 55.184 83.1879 55.2682 83.1879C55.3556 83.1879 55.4304 83.1754 55.4398 83.1598C55.4492 83.1442 55.6051 83.1224 55.786 83.1099C55.9669 83.0974 56.1042 83.0756 56.0948 83.06C56.0855 83.0444 56.151 83.0319 56.2352 83.0319C56.3225 83.0319 56.3943 83.0163 56.3943 83.0007C56.3943 82.982 56.4566 82.9696 56.5346 82.9696C56.6126 82.9696 56.675 82.954 56.675 82.9384C56.675 82.9196 56.7374 82.9072 56.8153 82.9072C56.8933 82.9072 56.9557 82.8947 56.9557 82.8791C56.9557 82.8635 57.068 82.8417 57.2052 82.8292C57.3425 82.8167 57.4548 82.7949 57.4548 82.7793C57.4548 82.7637 57.5203 82.7512 57.5983 82.7512C57.6825 82.7512 57.7324 82.7387 57.7199 82.72C57.7074 82.7013 57.7449 82.6888 57.8104 82.6888C57.8696 82.6888 57.9289 82.6732 57.9382 82.6576C57.9476 82.6389 58.0037 82.6264 58.063 82.6264C58.1223 82.6264 58.1753 82.614 58.1878 82.5984C58.1971 82.5828 58.2938 82.5578 58.4061 82.5485C58.5184 82.536 58.5995 82.5142 58.5901 82.4986C58.5808 82.483 58.6245 82.4705 58.6837 82.4705C58.7461 82.4705 58.796 82.4549 58.796 82.4393C58.796 82.4206 58.8459 82.4081 58.9052 82.4081C58.9644 82.4081 59.0143 82.3925 59.0143 82.3769C59.0143 82.3582 59.0455 82.3457 59.0861 82.3457C59.1235 82.3457 59.2109 82.3239 59.2795 82.2989C59.3481 82.274 59.451 82.2553 59.5072 82.2522C59.5696 82.2522 59.6039 82.2397 59.5914 82.221C59.5789 82.2022 59.6163 82.1898 59.6818 82.1898C59.7442 82.1898 59.7941 82.1742 59.7941 82.1586C59.7941 82.1399 59.8378 82.1274 59.8877 82.1274C59.9407 82.1274 59.9813 82.1149 59.9813 82.0993C59.9813 82.0775 60.0998 82.0463 60.2682 82.0213C60.2776 82.0182 60.2994 82.0089 60.3119 81.9964C60.3244 81.9808 60.3681 81.9714 60.4086 81.9714C60.4492 81.9714 60.4804 81.9558 60.4804 81.9402C60.4804 81.9215 60.524 81.909 60.5739 81.909C60.6269 81.909 60.6675 81.8934 60.6675 81.8779C60.6675 81.8591 60.7018 81.8467 60.7424 81.8467C60.786 81.8467 60.8266 81.8342 60.8391 81.8186C60.8484 81.7999 60.9202 81.778 60.995 81.7656C61.073 81.7562 61.1354 81.7344 61.1354 81.7188C61.1354 81.7032 61.179 81.6907 61.2321 81.6907C61.2851 81.6907 61.3194 81.6782 61.3069 81.6595C61.2944 81.6408 61.3288 81.6283 61.3818 81.6283C61.4348 81.6283 61.4785 81.6127 61.4785 81.5971C61.4785 81.5784 61.5065 81.5659 61.5377 81.5659C61.5721 81.5659 61.6064 81.5535 61.6188 81.5379C61.6282 81.5191 61.6999 81.4973 61.7748 81.4848C61.8528 81.4755 61.9152 81.4536 61.9152 81.438C61.9152 81.4225 61.9526 81.41 61.9963 81.41C62.0399 81.41 62.068 81.3975 62.0555 81.3788C62.043 81.3601 62.0711 81.3476 62.1148 81.3476C62.1585 81.3476 62.1959 81.332 62.1959 81.3164C62.1959 81.2977 62.2208 81.2852 62.2551 81.2852C62.2863 81.2852 62.355 81.2634 62.4017 81.2384C62.4517 81.2135 62.5234 81.1916 62.5639 81.1916C62.6045 81.1916 62.6263 81.1792 62.617 81.1604C62.6045 81.1417 62.6326 81.1293 62.6762 81.1293C62.7199 81.1293 62.7573 81.1137 62.7573 81.0981C62.7573 81.0793 62.7792 81.0669 62.8041 81.0669C62.8291 81.0669 62.8759 81.0544 62.907 81.0388C63.0318 80.9733 63.1909 80.9109 63.2377 80.9109C63.2657 80.9109 63.2876 80.8953 63.2876 80.8797C63.2876 80.861 63.3219 80.8485 63.3624 80.8485C63.403 80.8485 63.4435 80.8361 63.4498 80.8236C63.4654 80.7861 63.8116 80.6302 63.8802 80.6302C63.9145 80.6302 63.9426 80.6146 63.9426 80.599C63.9426 80.5803 63.9707 80.5678 64.0081 80.5678C64.0424 80.5678 64.0611 80.5553 64.0518 80.5366C64.0424 80.5179 64.0611 80.5054 64.0954 80.5054C64.1329 80.5054 64.1609 80.4929 64.1609 80.4774C64.1609 80.4618 64.1921 80.443 64.2327 80.4337C64.3762 80.3994 64.5352 80.3276 64.5134 80.3089C64.5041 80.2964 64.5228 80.2871 64.5602 80.2871C64.5976 80.2871 64.6288 80.2715 64.6288 80.2559C64.6288 80.2372 64.6507 80.2247 64.6756 80.2247C64.7006 80.2247 64.7661 80.1966 64.8222 80.1654C64.8752 80.1311 64.9314 80.1093 64.947 80.1186C64.9594 80.128 64.9719 80.1186 64.9719 80.1031C64.9719 80.0843 65 80.0687 65.0312 80.0687C65.0655 80.0687 65.0967 80.0594 65.1029 80.0438C65.1185 80.0095 65.4336 79.8504 65.4866 79.8504C65.5115 79.8504 65.5334 79.8348 65.5334 79.8192C65.5334 79.8005 65.5552 79.788 65.5802 79.788C65.6051 79.788 65.6269 79.7724 65.6269 79.7568C65.6269 79.7381 65.655 79.7256 65.6893 79.7256C65.7236 79.7256 65.7517 79.71 65.7517 79.6944C65.7517 79.6757 65.7736 79.6633 65.7985 79.6633C65.8235 79.6633 65.8453 79.6508 65.8453 79.6352C65.8453 79.6196 65.8858 79.5978 65.9389 79.5853C65.9888 79.5728 66.0387 79.551 66.048 79.5354C66.0605 79.5198 66.0948 79.5073 66.1291 79.5073C66.1634 79.5073 66.1822 79.4948 66.1728 79.4761C66.1634 79.4605 66.1759 79.4449 66.2009 79.4449C66.2289 79.4449 66.2508 79.4324 66.2508 79.42C66.2508 79.4075 66.3225 79.3701 66.4067 79.3357C66.4941 79.3014 66.5627 79.264 66.5627 79.2515C66.5627 79.239 66.5908 79.2266 66.6282 79.2266C66.6625 79.2266 66.6812 79.211 66.6719 79.1954C66.6625 79.1767 66.675 79.1642 66.6999 79.1642C66.728 79.1642 66.7498 79.1548 66.7498 79.1392C66.7498 79.1268 66.8122 79.0893 66.8902 79.055C66.9682 79.0207 67.0306 78.9833 67.0306 78.9677C67.0306 78.9552 67.0524 78.9458 67.0774 78.9458C67.1023 78.9458 67.1241 78.9303 67.1241 78.9147C67.1241 78.8959 67.1522 78.8835 67.1865 78.8835C67.2208 78.8835 67.2489 78.8741 67.2489 78.8585C67.2489 78.8304 67.4267 78.7275 67.4797 78.7275C67.4984 78.7275 67.5359 78.6994 67.5608 78.6651C67.5858 78.6308 67.6232 78.6027 67.645 78.6027C67.6669 78.6027 67.6856 78.5903 67.6856 78.5747C67.6856 78.5497 67.801 78.4998 67.8509 78.506C67.8634 78.5092 67.8727 78.4936 67.8727 78.478C67.8727 78.4593 67.8883 78.4468 67.9071 78.4468C67.9289 78.4468 67.9663 78.4218 67.9944 78.3906C68.0225 78.3626 68.1004 78.3095 68.1691 78.2752C68.2377 78.2409 68.3157 78.1879 68.3437 78.1567C68.3718 78.1286 68.4092 78.1037 68.4311 78.1037C68.4498 78.1037 68.4654 78.0943 68.4654 78.0787C68.4654 78.0662 68.5215 78.0288 68.5901 77.9976C68.6588 77.9633 68.7149 77.9259 68.7149 77.9103C68.7149 77.8978 68.7305 77.8853 68.7461 77.8853C68.7648 77.8853 68.8085 77.8604 68.8428 77.8261C68.8771 77.7949 68.9582 77.7419 69.0206 77.7107C69.083 77.6764 69.1578 77.6264 69.1859 77.5953C69.214 77.5672 69.2483 77.5422 69.2639 77.5422C69.2795 77.5422 69.3138 77.5142 69.3387 77.483C69.3606 77.4487 69.3918 77.4268 69.4074 77.4362C69.4198 77.4455 69.4323 77.4362 69.4323 77.4206C69.4323 77.4019 69.4541 77.3863 69.4791 77.3863C69.5041 77.3863 69.5259 77.3707 69.5259 77.3551C69.5259 77.3364 69.5477 77.3239 69.5758 77.3239C69.6007 77.3239 69.6132 77.3083 69.6039 77.2927C69.5945 77.274 69.6039 77.2615 69.6288 77.2615C69.6507 77.2615 69.7006 77.2334 69.7349 77.2022C69.7723 77.1679 69.8097 77.1492 69.8191 77.1586C69.8284 77.1711 69.8378 77.1617 69.8378 77.143C69.8378 77.1211 69.8534 77.1055 69.869 77.1055C69.8877 77.1055 69.9439 77.065 70 77.012C70.053 76.9621 70.1092 76.9184 70.1216 76.9184C70.1341 76.9184 70.1809 76.8841 70.2246 76.8404C70.2682 76.7968 70.3119 76.7624 70.3213 76.7624C70.3306 76.7624 70.3743 76.7281 70.418 76.6845C70.4616 76.6408 70.5084 76.6065 70.5209 76.6065C70.5334 76.6065 70.5895 76.5628 70.6425 76.5129C70.6987 76.4599 70.7517 76.4193 70.7642 76.4193C70.7798 76.4193 70.8515 76.3632 70.9233 76.2946C70.9981 76.2259 71.0699 76.1698 71.0792 76.1698C71.0917 76.1698 71.1603 76.1137 71.2352 76.045C71.3069 75.9764 71.3724 75.9203 71.3818 75.9203C71.3911 75.9203 71.4348 75.8891 71.4754 75.8485C71.5159 75.8111 71.5939 75.7425 71.6532 75.6957C71.7093 75.6489 71.7904 75.5803 71.8309 75.546C71.8746 75.5117 71.9276 75.4898 71.9495 75.4992C71.9744 75.5054 71.9838 75.4992 71.9744 75.4836C71.9526 75.4462 72.2645 75.153 72.3206 75.1592C72.3425 75.1623 72.3518 75.1436 72.3394 75.1155C72.3269 75.0812 72.3362 75.0719 72.3768 75.0875C72.408 75.0999 72.4236 75.0968 72.4111 75.0781C72.3893 75.0407 72.4735 74.9471 72.5016 74.9752C72.5109 74.9876 72.5203 74.9783 72.5203 74.9596C72.5203 74.9377 72.5359 74.9221 72.5546 74.9221C72.5733 74.9221 72.645 74.8598 72.7168 74.7818C72.7854 74.7038 72.8603 74.6445 72.8821 74.6539C72.9102 74.6633 72.9164 74.6539 72.9039 74.6196C72.8883 74.5822 72.8977 74.5728 72.9351 74.5884C72.9726 74.6009 72.9788 74.5946 72.9663 74.5572C72.9507 74.5167 72.9601 74.5104 73.0006 74.526C73.0349 74.5385 73.0474 74.5354 73.0318 74.5135C73.0162 74.4886 73.3718 74.1174 73.6182 73.9053C73.64 73.8866 73.6806 73.8398 73.7056 73.8055C73.7367 73.7556 73.7555 73.7493 73.7742 73.7774C73.7898 73.8024 73.7991 73.7899 73.7991 73.7431C73.7991 73.7026 73.8116 73.6776 73.8241 73.687C73.8397 73.6963 73.8709 73.6745 73.8958 73.6371C73.98 73.5154 74.1017 73.3969 74.1235 73.4156C74.1329 73.4249 74.1422 73.4187 74.1422 73.3969C74.1422 73.3376 74.476 73.0101 74.5134 73.0319C74.5352 73.0475 74.5384 73.0351 74.5259 73.0007C74.5103 72.9602 74.5165 72.9508 74.5571 72.9664C74.5945 72.9789 74.6007 72.9727 74.5883 72.9352C74.5727 72.8978 74.582 72.8885 74.6195 72.9041C74.6538 72.9165 74.6631 72.9103 74.6538 72.8822C74.6444 72.8573 74.6725 72.8105 74.7162 72.7762C74.7598 72.7419 74.7973 72.6982 74.7973 72.6764C74.7973 72.6576 74.8128 72.6514 74.8284 72.6608C74.8472 72.6701 74.8596 72.6639 74.8596 72.642C74.8596 72.6233 74.8908 72.5797 74.9283 72.5485C74.9626 72.5142 74.9844 72.4892 74.9719 72.4892C74.9595 72.4892 74.9719 72.4674 74.9969 72.4393C75.025 72.4143 75.0593 72.3988 75.078 72.4112C75.0967 72.4237 75.0998 72.4081 75.0873 72.3769C75.0717 72.3332 75.078 72.327 75.1216 72.3426C75.156 72.3551 75.1684 72.352 75.156 72.3301C75.1435 72.3145 75.1716 72.2646 75.2152 72.2241C75.2589 72.1835 75.2963 72.1336 75.2963 72.1149C75.2963 72.0962 75.3119 72.09 75.3275 72.0993C75.3462 72.1087 75.3587 72.1024 75.3587 72.0837C75.3587 72.0307 75.446 71.9527 75.4835 71.9745C75.4991 71.9839 75.5053 71.9745 75.4959 71.9496C75.4866 71.9246 75.5147 71.8685 75.5583 71.8248C75.602 71.778 75.6394 71.7344 75.6394 71.725C75.6394 71.7157 75.6706 71.6751 75.7112 71.6346C75.7486 71.594 75.7985 71.5316 75.8235 71.4973C75.8484 71.4599 75.8796 71.438 75.8952 71.4474C75.9077 71.4568 75.9202 71.4318 75.9202 71.3913C75.9202 71.3351 75.9264 71.3289 75.9513 71.3663C75.9763 71.4069 75.9825 71.4037 75.9825 71.3538C75.9825 71.3226 76.0168 71.2634 76.0605 71.2228C76.1042 71.1823 76.1385 71.1355 76.1385 71.1168C76.1385 71.0981 76.1541 71.0918 76.1697 71.1012C76.1884 71.1105 76.2009 71.0918 76.2009 71.0544C76.2009 71.017 76.2165 70.9983 76.2321 71.0076C76.2508 71.017 76.2633 71.0045 76.2633 70.9795C76.2633 70.9546 76.2976 70.9078 76.3412 70.8735C76.3849 70.8392 76.4192 70.7893 76.4192 70.7581C76.4192 70.73 76.4348 70.7175 76.4504 70.7269C76.4691 70.7362 76.4816 70.7238 76.4816 70.6926C76.4816 70.652 76.491 70.6489 76.5253 70.677C76.5627 70.7082 76.5658 70.7019 76.5533 70.652C76.544 70.6084 76.5533 70.5803 76.5876 70.5678C76.6157 70.5585 76.6376 70.5273 76.6376 70.5023C76.6376 70.4462 76.7155 70.3651 76.7436 70.39C76.753 70.4025 76.7623 70.3775 76.7623 70.3401C76.7623 70.3027 76.7748 70.2808 76.7935 70.2902C76.8122 70.2996 76.8247 70.2933 76.8247 70.2746C76.8247 70.2216 76.937 70.0843 76.9619 70.1093C76.9713 70.1186 76.9807 70.1031 76.9807 70.0687C76.9807 70.0344 77.0087 69.9876 77.043 69.9627C77.0774 69.9377 77.1054 69.9003 77.1054 69.8785C77.1054 69.8566 77.121 69.8379 77.1397 69.8379C77.1553 69.8379 77.1647 69.8255 77.1553 69.813C77.146 69.7974 77.1678 69.7662 77.2021 69.7444C77.2333 69.7194 77.2614 69.6726 77.2614 69.6414C77.2614 69.6102 77.277 69.5946 77.2926 69.604C77.3113 69.6133 77.3238 69.6009 77.3238 69.5697C77.3238 69.5291 77.3331 69.526 77.3674 69.5541C77.4017 69.5822 77.4049 69.5759 77.3955 69.5135C77.3862 69.4636 77.4049 69.4168 77.461 69.3607C77.5047 69.317 77.5421 69.264 77.5421 69.2453C77.5421 69.2297 77.5577 69.2141 77.5733 69.2141C77.592 69.2141 77.6045 69.1923 77.6045 69.1642C77.6045 69.1392 77.617 69.1236 77.6326 69.133C77.6482 69.1424 77.67 69.1174 77.6793 69.0737C77.6918 69.0301 77.7137 68.9958 77.7293 68.9958C77.748 68.9958 77.7604 68.9739 77.7604 68.9458C77.7604 68.9209 77.776 68.9084 77.7916 68.9178C77.8104 68.9271 77.8228 68.9084 77.8228 68.8741C77.8228 68.8367 77.8384 68.8086 77.854 68.8086C77.8727 68.8086 77.8852 68.7868 77.8852 68.7587C77.8852 68.7337 77.8977 68.7182 77.9133 68.7275C77.9289 68.7369 77.9507 68.7119 77.9601 68.6682C77.9726 68.6246 77.9944 68.5903 78.01 68.5903C78.0287 68.5903 78.0412 68.5622 78.0412 68.5248C78.0412 68.4905 78.0568 68.4717 78.0724 68.4811C78.0911 68.4905 78.1036 68.4686 78.1036 68.4281C78.1036 68.3719 78.1098 68.3657 78.1348 68.4031C78.1597 68.4405 78.1659 68.4374 78.1659 68.3844C78.1659 68.347 78.1878 68.3002 78.2127 68.2784C78.2377 68.2565 78.2595 68.2191 78.2595 68.1941C78.2595 68.1661 78.2782 68.1536 78.3001 68.1629C78.3312 68.1754 78.3406 68.1567 78.3313 68.0974C78.3188 68.0319 78.325 68.0226 78.35 68.06C78.378 68.0974 78.3843 68.0943 78.3843 68.0351C78.3843 67.9976 78.3968 67.9664 78.4124 67.9664C78.4279 67.9664 78.4498 67.9321 78.4591 67.8885C78.4716 67.8448 78.4935 67.8105 78.509 67.8105C78.5278 67.8105 78.5402 67.7824 78.5402 67.7481C78.5402 67.7138 78.5558 67.6857 78.5714 67.6857C78.5901 67.6857 78.6026 67.6639 78.6026 67.6358C78.6026 67.6109 78.6182 67.5984 78.6338 67.6077C78.6525 67.6171 78.665 67.5984 78.665 67.5609C78.665 67.5235 78.6806 67.5048 78.6962 67.5142C78.7149 67.5235 78.7274 67.5048 78.7274 67.4674C78.7274 67.4331 78.7492 67.3956 78.7742 67.3863C78.7991 67.3738 78.821 67.3395 78.821 67.3083C78.821 67.2771 78.8366 67.249 78.8522 67.249C78.8709 67.249 78.8833 67.221 78.8833 67.1835C78.8833 67.1492 78.8989 67.1305 78.9145 67.1399C78.9333 67.1492 78.9457 67.1305 78.9457 67.0931C78.9457 67.0556 78.9613 67.0369 78.9769 67.0463C78.9956 67.0556 79.0081 67.0369 79.0081 67.0026C79.0081 66.9683 79.0299 66.9215 79.0549 66.8934C79.0799 66.8685 79.1017 66.8217 79.1017 66.7905C79.1017 66.7437 79.1079 66.7406 79.1329 66.7812C79.1578 66.8186 79.1641 66.8092 79.1641 66.7406C79.1641 66.6907 79.1765 66.6595 79.1953 66.672C79.214 66.6813 79.2265 66.6626 79.2265 66.6283C79.2265 66.5909 79.242 66.5628 79.2576 66.5628C79.2764 66.5628 79.2888 66.5347 79.2888 66.5036C79.2888 66.4692 79.3107 66.4225 79.3356 66.3944C79.3606 66.3694 79.3824 66.3258 79.3824 66.2977C79.3824 66.2696 79.398 66.2571 79.4136 66.2665C79.4323 66.2759 79.4448 66.2571 79.4448 66.2197C79.4448 66.1823 79.4604 66.1636 79.476 66.1729C79.4947 66.1823 79.5072 66.1636 79.5072 66.1293C79.5072 66.0918 79.5196 66.0638 79.5352 66.0638C79.5508 66.0638 79.5727 66.0138 79.582 65.9546C79.5945 65.8953 79.6163 65.8454 79.6319 65.8454C79.6507 65.8454 79.6631 65.8236 79.6631 65.7986C79.6631 65.7737 79.6787 65.7518 79.6943 65.7518C79.713 65.7518 79.7255 65.7238 79.7255 65.6863C79.7255 65.652 79.7411 65.6333 79.7567 65.6427C79.7754 65.652 79.7879 65.6395 79.7879 65.6115C79.7879 65.5834 79.8097 65.5397 79.8347 65.5148C79.8596 65.4867 79.8815 65.4399 79.8815 65.4056C79.8815 65.3744 79.8971 65.3463 79.9127 65.3463C79.9314 65.3463 79.9439 65.3183 79.9439 65.284C79.9439 65.2497 79.9595 65.2216 79.975 65.2216C79.9938 65.2216 80.0062 65.1935 80.0062 65.1561C80.0062 65.1218 80.0218 65.1031 80.0374 65.1124C80.0561 65.1249 80.0686 65.0968 80.0686 65.0531C80.0686 65.0095 80.0842 64.972 80.1029 64.972C80.1185 64.972 80.1248 64.9596 80.1154 64.9409C80.1061 64.9221 80.1123 64.9097 80.1279 64.9097C80.1466 64.9097 80.1622 64.8816 80.1622 64.8473C80.1622 64.813 80.1778 64.7849 80.1934 64.7849C80.2121 64.7849 80.2246 64.7475 80.2246 64.6976C80.2246 64.6321 80.2308 64.6227 80.2558 64.6601C80.2776 64.6944 80.287 64.6788 80.287 64.5978C80.287 64.5167 80.2963 64.5011 80.3182 64.5354C80.3431 64.5728 80.3493 64.5634 80.3493 64.4979C80.3493 64.4512 80.3712 64.395 80.3961 64.3669C80.4242 64.342 80.446 64.3108 80.4429 64.3014C80.4367 64.2047 80.4492 64.1611 80.4741 64.1767C80.4928 64.1891 80.5053 64.1611 80.5053 64.1143C80.5053 64.0675 80.5178 64.0394 80.5365 64.0519C80.5552 64.0644 80.5677 64.0363 80.5677 63.9895C80.5677 63.9427 80.5802 63.9147 80.5989 63.9271C80.6176 63.9365 80.6301 63.9115 80.6301 63.8679C80.6301 63.8273 80.6519 63.7712 80.6768 63.7431C80.7018 63.7182 80.7236 63.6682 80.7236 63.6339C80.7236 63.5965 80.7392 63.5684 80.7548 63.5684C80.7736 63.5684 80.786 63.531 80.786 63.4873C80.786 63.4437 80.7985 63.4156 80.8172 63.4281C80.8359 63.4405 80.8484 63.4125 80.8484 63.3657C80.8484 63.322 80.8609 63.2908 80.8765 63.3002C80.8921 63.3095 80.9108 63.2628 80.9233 63.1941C80.9326 63.1255 80.9576 63.0694 80.9732 63.0694C80.9919 63.0694 81.0044 63.0319 81.0044 62.9883C81.0044 62.9446 81.0168 62.9165 81.0356 62.929C81.0543 62.9415 81.0667 62.9072 81.0667 62.851C81.0667 62.7949 81.0792 62.7606 81.0979 62.773C81.1167 62.7855 81.1291 62.7512 81.1291 62.6951C81.1291 62.642 81.1416 62.6046 81.1572 62.614C81.1728 62.6233 81.1915 62.5765 81.204 62.5079C81.2133 62.4393 81.2383 62.3832 81.2539 62.3832C81.2726 62.3832 81.2851 62.3395 81.2851 62.2865C81.2851 62.2334 81.2976 62.1991 81.3163 62.2116C81.335 62.2241 81.3475 62.1898 81.3475 62.1274C81.3475 62.0494 81.3568 62.0369 81.3787 62.0712C81.3888 62.0871 81.3962 62.093 81.4013 62.087C81.4029 62.0826 81.4046 62.0782 81.4063 62.0738C81.4087 62.0618 81.4099 62.0425 81.4099 62.0151C81.4099 61.9621 81.4223 61.9153 81.4379 61.9153C81.4566 61.9153 81.4785 61.8529 81.491 61.7749C81.5003 61.6969 81.5221 61.6439 81.5377 61.6533C81.5533 61.6626 81.5658 61.6252 81.5658 61.5753C81.5658 61.5223 81.5814 61.4786 81.597 61.4786C81.6157 61.4786 81.6282 61.4349 81.6282 61.3819C81.6282 61.3289 81.6407 61.2946 81.6594 61.307C81.6781 61.3195 81.6906 61.2883 81.6906 61.2322C81.6906 61.1823 81.7062 61.1355 81.7249 61.1293C81.7405 61.123 81.7654 61.0606 81.7748 60.9858C81.7842 60.914 81.8029 60.8641 81.8185 60.8735C81.8341 60.8828 81.8465 60.8392 81.8465 60.7768C81.8465 60.7082 81.859 60.6707 81.8777 60.6832C81.8964 60.6957 81.9089 60.6583 81.9089 60.5928C81.9089 60.5304 81.9245 60.4805 81.9401 60.4805C81.9588 60.4805 81.9713 60.4399 81.9713 60.39C81.9713 60.3401 81.9869 60.2933 82.0056 60.2871C82.0243 60.2808 82.0462 60.2091 82.0555 60.128C82.0649 60.0469 82.0867 59.9814 82.0992 59.9814C82.1148 59.9814 82.1273 59.9377 82.1273 59.8847C82.1273 59.8317 82.1397 59.7974 82.1584 59.8099C82.1772 59.8223 82.1897 59.7755 82.1897 59.6944C82.1897 59.6102 82.199 59.5759 82.2177 59.6009C82.2333 59.6289 82.2489 59.5759 82.2614 59.4605C82.2707 59.3607 82.2957 59.2765 82.3144 59.2702C82.33 59.264 82.3456 59.2016 82.3456 59.1361C82.3456 59.0613 82.3581 59.0176 82.3768 59.0301C82.3955 59.0425 82.408 58.9958 82.408 58.9147C82.408 58.818 82.4173 58.793 82.4392 58.8273C82.4431 58.8335 82.4466 58.8375 82.4498 58.8394C82.4564 58.8144 82.4631 58.7894 82.4697 58.7644C82.4701 58.7508 82.4704 58.7355 82.4704 58.7182C82.4704 58.6215 82.4797 58.5778 82.4984 58.6027C82.5025 58.6101 82.5068 58.611 82.5112 58.6058C82.5193 58.5745 82.5274 58.5431 82.5355 58.5117C82.539 58.4871 82.5423 58.4581 82.5452 58.4249C82.5577 58.3033 82.5795 58.2035 82.5983 58.2035C82.6138 58.2035 82.6263 58.1473 82.6263 58.0787C82.6263 58.0101 82.6419 57.954 82.6575 57.954C82.6762 57.954 82.6887 57.8978 82.6887 57.8261C82.6887 57.7512 82.7012 57.7075 82.7199 57.72C82.7226 57.7218 82.7251 57.7223 82.7275 57.7216C82.7353 57.6878 82.743 57.654 82.7507 57.6201C82.751 57.6122 82.7511 57.6039 82.7511 57.5953C82.7511 57.5173 82.7636 57.458 82.7792 57.4674C82.7812 57.4686 82.7833 57.4677 82.7855 57.465C82.7968 57.4143 82.8079 57.3635 82.819 57.3127C82.8227 57.2828 82.8261 57.2498 82.8291 57.2147C82.8447 57.0401 82.8603 56.9621 82.879 56.9901C82.8814 56.9938 82.8837 56.9961 82.8858 56.9972C82.8927 56.9638 82.8996 56.9303 82.9064 56.8969C82.9068 56.8818 82.9071 56.865 82.9071 56.8467C82.9071 56.7157 82.9164 56.672 82.9382 56.7063C82.94 56.7091 82.9417 56.7114 82.9433 56.7131C82.9521 56.6687 82.9608 56.6241 82.9694 56.5796C82.9694 56.5772 82.9694 56.5747 82.9694 56.5722C82.9694 56.4599 82.9819 56.3975 83.0006 56.41C83.001 56.4102 83.0013 56.4104 83.0017 56.4106C83.0119 56.3565 83.0219 56.3024 83.0318 56.2482C83.0323 56.1551 83.0444 56.0868 83.0596 56.0948C83.0799 55.9808 83.0996 55.8666 83.1188 55.7523C83.1229 55.692 83.1254 55.6305 83.1254 55.574C83.1254 55.5023 83.1379 55.4618 83.1566 55.4742C83.1592 55.476 83.1617 55.4762 83.164 55.475C83.172 55.4249 83.1798 55.3748 83.1875 55.3247C83.1877 55.3156 83.1878 55.3062 83.1878 55.2964C83.1878 55.1672 83.1961 55.1182 83.2153 55.1415C83.2274 55.06 83.2392 54.9785 83.2507 54.8968C83.2529 54.7938 83.2617 54.734 83.2744 54.7255C83.3234 54.3643 83.3667 54.0014 83.4041 53.6367C83.4115 53.5315 83.42 53.447 83.4276 53.3991C83.4425 53.243 83.4563 53.0867 83.469 52.93C83.4706 52.8048 83.476 52.7341 83.4859 52.7141C83.5484 51.878 83.5803 51.0333 83.5803 50.1813C83.5803 44.0423 81.9276 38.2887 79.0421 33.3395C79.0273 33.3554 79.0109 33.3734 78.9925 33.3938C78.8958 33.5029 78.7586 33.6183 78.6744 33.6589C78.5371 33.7244 78.4841 33.7337 78.088 33.7306C77.6232 33.7306 77.5234 33.715 76.6095 33.4811C75.811 33.2752 75.4429 33.216 74.9844 33.216C74.6132 33.216 74.5352 33.2253 74.3325 33.2939C73.9738 33.4156 73.7492 33.6308 73.6089 33.9895C73.5465 34.1517 73.5371 34.2266 73.5371 34.6695C73.534 35.0376 73.5496 35.2434 73.5933 35.4493C73.665 35.808 73.8397 36.4256 73.9021 36.5441C73.9832 36.7032 74.2077 36.8966 74.3918 36.9652C74.6101 37.0494 75.0905 37.0556 75.3899 36.9808C75.8453 36.8654 76.4036 36.5909 76.6563 36.3632C76.8465 36.1885 76.9775 36.1417 77.2146 36.1698C77.8977 36.254 78.665 36.6782 79.3387 37.352C79.7099 37.7231 79.9002 37.9602 80.1372 38.347C80.3681 38.7306 80.418 38.8897 80.4055 39.2235C80.3961 39.4699 80.3837 39.5291 80.2932 39.7038C80.0499 40.1717 79.685 40.5179 78.6057 41.2977C76.8153 42.5921 76.0886 43.2877 75.5115 44.2546C75.2246 44.7381 75.078 44.9377 74.8534 45.153C74.6257 45.3713 74.4822 45.4649 74.2202 45.574C74.058 45.6395 73.9832 45.6489 73.6588 45.6489C73.1722 45.6489 72.957 45.5834 72.3019 45.2434C72.0649 45.1187 71.4598 44.6976 71.1354 44.4324C70.9825 44.3077 70.1404 43.5965 69.9938 43.4717C69.9501 43.4343 69.8472 43.347 69.7598 43.2784C69.1235 42.7762 68.4342 42.0525 67.8696 41.2977C67.3082 40.5429 67.224 40.4212 66.5003 39.3326C66.0168 38.609 65.7268 38.1848 65.3618 37.6795C65.3292 37.6349 65.2314 37.4914 65.136 37.3512L65.1216 37.3301C64.7224 36.7281 64.4822 36.4973 64.2608 36.4942C64.0518 36.4942 63.7461 36.7281 63.69 36.9402C63.6276 37.1773 63.7555 37.7419 64.0362 38.4405C64.3169 39.1455 64.5041 39.5478 65.184 40.8922C65.4991 41.5192 65.7704 42.0432 65.7829 42.0619C65.7954 42.0775 65.9014 42.274 66.0168 42.4986C66.0713 42.6031 66.1335 42.721 66.1905 42.829C66.2542 42.9497 66.3114 43.0582 66.3444 43.1224C66.6999 43.7868 67.1179 44.6071 67.2333 44.8691C67.5359 45.5553 67.6731 45.7082 68.2845 46.0513C68.7929 46.3351 69.7879 46.5971 70.7891 46.7094C71.5097 46.7905 71.8715 46.8903 72.3238 47.1367C73.0193 47.5173 73.3624 48.0382 73.3687 48.7213C73.3687 48.9989 73.3157 49.186 73.1503 49.4979C73.0443 49.7007 72.7043 50.206 72.592 50.3276C72.5608 50.3619 72.4673 50.4742 72.383 50.5772C72.2988 50.6801 71.9339 51.0638 71.572 51.4287C71.0262 51.9808 70.7049 52.2896 69.8191 53.1037C69.8114 53.1101 69.7847 53.1345 69.7459 53.1698C69.6905 53.2204 69.6104 53.2935 69.5259 53.3688C69.4415 53.4441 69.3614 53.5171 69.3059 53.5677C69.2671 53.6031 69.2404 53.6275 69.2327 53.6339C69.2254 53.6413 69.1802 53.6826 69.1099 53.747C69.0006 53.847 68.8304 54.0028 68.6463 54.1735C67.8416 54.9128 67.6419 55.1498 67.5421 55.4898C67.4828 55.6926 67.4735 56.6657 67.5296 57.09C67.5483 57.2303 67.5764 57.458 67.592 57.5953C67.6232 57.8573 67.7324 58.6246 67.7792 58.9209C67.9788 60.1654 68.0599 60.7861 68.0599 61.0981C68.0599 61.4755 68.0131 61.6002 67.723 61.9839C67.4828 62.2989 67.2863 62.4986 66.6563 63.0787C65.9607 63.715 65.1996 64.4761 65.0717 64.6664C64.8752 64.9533 64.8191 65.1031 64.7848 65.4274C64.7411 65.8142 64.6288 66.2571 64.5041 66.5472C64.4885 66.5815 64.4323 66.7157 64.3793 66.8435C64.2795 67.0744 63.9457 67.7543 63.8272 67.9664C63.2314 69.0145 62.0243 70.7924 61.2757 71.725C60.5115 72.6732 60.0156 73.0507 59.2296 73.2784C58.5621 73.4717 58.2876 73.4998 57.0805 73.5029H56.0356L55.8515 73.4094C55.471 73.216 55.2277 72.7918 55.053 72.0182C54.9594 71.5971 54.9376 71.4973 54.9002 71.3039C54.8942 71.2761 54.8862 71.2387 54.8767 71.1948C54.8323 70.9878 54.7562 70.6338 54.7099 70.4306C54.7026 70.4027 54.6897 70.3507 54.6743 70.2881C54.6569 70.2177 54.6362 70.1339 54.6163 70.0563C54.5477 69.7849 54.4198 69.2578 54.3044 68.7618C54.0331 67.6109 53.821 66.8841 53.5558 66.2228C53.2969 65.5678 53.0412 65.1342 52.6669 64.7069C52.2115 64.1891 52.0898 63.9303 51.9276 63.1473C51.8777 62.8978 51.8777 61.5909 51.9276 61.1823L51.931 61.1565C51.9688 60.8688 51.9803 60.7812 52.0742 60.1842C52.0885 60.0938 52.0986 60.029 52.1095 59.9644C52.1393 59.788 52.1743 59.6125 52.3113 58.9209C52.4797 58.0662 52.5234 57.7512 52.5265 57.3582C52.5265 56.8841 52.4298 56.2478 52.2739 55.677C52.1585 55.2715 51.8497 54.3701 51.728 54.0924C51.6999 54.0301 51.6656 53.949 51.6532 53.9147C51.6282 53.8523 51.1853 52.7886 51.1011 52.589C50.9139 52.1492 50.6675 51.7063 50.4897 51.4973C50.1435 51.0856 49.6257 50.7581 49.1079 50.6271C48.3437 50.4306 47.5234 50.4586 46.1946 50.7206C46.1167 50.7362 45.9139 50.7612 45.7424 50.7799C45.5163 50.8 45.2983 50.8242 44.7348 50.8866C44.5986 50.9016 44.4423 50.919 44.2608 50.939C42.3456 51.1511 40.6301 51.2322 39.7006 51.1573C38.7742 51.0825 38.6151 51.0201 37.8041 50.4274C36.8528 49.7288 36.4691 49.08 36.2321 47.7699C36.1323 47.221 36.1042 46.7624 36.1042 45.7113C36.1042 44.5541 36.1478 43.9209 36.2789 43.1536C36.4005 42.4455 36.65 41.5191 36.8777 40.9078C36.896 40.8632 36.926 40.7792 36.9577 40.6907C36.9748 40.6429 36.9923 40.5939 37.0087 40.5491C37.0237 40.5081 37.0387 40.4664 37.0527 40.4276C37.0823 40.3454 37.1073 40.2761 37.1179 40.2528C37.146 40.1873 37.5483 39.1236 37.6482 38.8492C37.7511 38.5747 37.9195 38.0787 38.0349 37.7231C38.4872 36.3164 39.1454 35.5304 40.6114 34.6477C40.7392 34.5697 41.1822 34.3202 41.5939 34.0925C42.0056 33.8648 42.4017 33.6371 42.4735 33.5872C42.5452 33.5404 42.6107 33.4998 42.6232 33.4998C42.6575 33.4998 42.9819 33.2846 43.5901 32.8604C44.2701 32.3863 44.5976 32.2054 45.0468 32.0556C45.8765 31.778 46.5908 31.7468 47.7698 31.9371C47.9881 31.9714 48.8989 32.1461 49.0799 32.1898C49.2077 32.2178 49.4261 32.2584 49.7692 32.3145C49.8721 32.3333 50.2651 32.3676 50.6425 32.3925C51.02 32.4175 51.4099 32.458 51.5066 32.483C51.806 32.5609 52.1148 32.745 52.3581 32.9852C52.6388 33.2596 52.7604 33.4499 53.1472 34.211C53.6744 35.2403 53.8147 35.3651 54.6163 35.5117C55.3587 35.6489 55.5989 35.6302 56.2726 35.3963L56.753 35.2309L57.174 35.2341C57.4267 35.2372 57.7792 35.2653 58.063 35.3058C59.2732 35.4867 59.7068 35.5273 60.3774 35.5273C61.9152 35.5273 63.0911 35.1093 64.1173 34.1954C64.6943 33.6807 65.2994 32.9134 65.5271 32.4081C65.6987 32.0276 65.7361 31.8623 65.733 31.4568C65.7299 31.1293 65.7205 31.0544 65.6457 30.8517C65.4304 30.2808 65.156 29.9128 64.1079 28.8211C63.3032 27.982 63.1535 27.823 62.9601 27.589C62.6669 27.2366 62.617 27.1835 62.3518 26.9153C62.0212 26.5815 61.8777 26.5004 61.6032 26.4973C61.335 26.4973 61.2539 26.541 60.786 26.9402C60.1216 27.5079 59.8472 27.6639 59.2452 27.8198C59.0549 27.8697 58.2907 27.8635 58.0162 27.8074C57.4236 27.6888 57.0087 27.5516 56.3007 27.2397C55.3899 26.8342 55.156 26.7406 54.554 26.5441C53.7617 26.2852 53.5028 26.2322 53.0131 26.2322C52.2084 26.2322 51.8871 26.4536 51.0512 27.5734C50.0905 28.8647 49.6007 29.3295 48.7773 29.7443C47.748 30.2621 46.5253 30.5522 45.053 30.6302C44.1797 30.677 43.1098 30.6146 42.5764 30.4898C42.5455 30.481 42.4878 30.4674 42.4291 30.4536C42.405 30.448 42.3808 30.4422 42.3581 30.4368C42.1085 30.3775 41.753 30.2528 41.5721 30.1561C40.8547 29.7755 40.7704 28.9708 41.3288 27.823C41.519 27.4299 41.7935 27.0463 42.1553 26.6751C42.7199 26.0887 43.2533 25.7955 43.7492 25.7955C43.9021 25.7955 44.2483 25.7362 44.4386 25.677C44.685 25.599 44.9407 25.4306 45.1996 25.1717C45.4273 24.9471 45.4897 24.8598 45.6114 24.6102C45.8391 24.1392 45.8858 23.9303 45.9046 23.3314C45.917 22.8885 45.9077 22.7668 45.8484 22.458C45.6924 21.647 45.7548 20.9016 46.073 19.7911C46.0752 19.7835 46.0782 19.7734 46.0818 19.7614C46.1029 19.6898 46.1448 19.5476 46.1822 19.4168C46.3506 18.8304 46.6594 17.9415 46.99 17.0775C47.0336 16.9657 47.0751 16.858 47.1083 16.7716Z" fill="#0069CA"/>
<path d="M149.056 40.872C144.64 40.872 140.992 42.664 138.88 45.736V28.392H133.376V73H138.88V59.112C138.88 50.28 141.888 45.736 147.584 45.736C152.064 45.736 154.112 48.552 154.112 54.696V73H159.616V53.352C159.616 45.224 155.904 40.872 149.056 40.872ZM181.018 40.872C175.514 40.872 171.226 42.984 167.706 47.464L171.674 50.792C174.17 47.464 177.178 45.736 180.89 45.736C185.69 45.736 188.378 48.424 188.378 53.288V54.568H181.402C176.09 54.568 172.954 55.08 170.586 56.36C168.026 57.768 166.618 60.328 166.618 63.656C166.618 69.736 170.906 73.576 177.69 73.576C182.426 73.576 186.202 71.656 188.442 68.264L188.826 73H193.882V53.288C193.882 45.48 189.082 40.872 181.018 40.872ZM178.97 68.968C174.746 68.968 172.122 66.984 172.122 63.912C172.122 62.312 172.698 61.096 173.722 60.264C175.066 59.24 177.242 58.856 182.042 58.856H188.378V59.176C188.378 65 184.538 68.968 178.97 68.968ZM215.657 73.576C221.545 73.576 226.217 70.376 228.329 64.616L223.273 62.696C222.185 66.472 219.305 68.712 215.593 68.712C209.321 68.712 206.633 63.272 206.633 57.32C206.633 51.368 209.321 45.736 215.593 45.736C219.241 45.736 222.121 48.04 223.401 51.88L228.649 49.768C226.153 43.752 221.417 40.872 215.593 40.872C205.801 40.872 201.001 49 201.001 57.32C201.001 65.96 206.121 73.576 215.657 73.576ZM235.876 73H241.38V63.72L247.844 56.808L258.276 73H264.804L251.62 53.416L263.14 41.448H255.78L241.38 56.872V28.392H235.876V73ZM293.854 57.128V28.392H288.862L266.462 58.984V62.44H288.35V73H293.854V62.44H301.022V57.128H293.854ZM273.63 57.128L288.35 36.456V57.128H273.63ZM307.181 35.112H313.325V28.392H307.181V35.112ZM307.501 73H313.005V41.448H307.501V73ZM357.223 40.872C352.679 40.872 349.095 42.728 346.919 47.016C345.191 42.6 341.735 40.872 337.639 40.872C334.247 40.872 331.047 42.088 329.063 45.352V41.448H323.687L323.751 73H329.255V58.856C329.255 52.008 330.343 45.736 336.615 45.736C341.927 45.736 343.143 50.6 343.143 54.888V73H348.647V58.856C348.647 52.008 349.671 45.736 356.135 45.736C362.407 45.736 362.535 52.136 362.535 54.76V73H368.039V53.16C368.039 46.12 364.775 40.872 357.223 40.872ZM393.489 40.872C389.393 40.872 385.809 42.344 383.505 45.352V41.448H378.001V86.056H383.505V69.032C385.617 71.848 389.265 73.576 393.489 73.576C402.257 73.576 407.313 66.92 407.313 57.192C407.313 47.464 402.193 40.872 393.489 40.872ZM392.465 68.712C386.193 68.712 383.057 63.784 383.057 57.192C383.057 50.344 386.385 45.672 392.465 45.672C398.417 45.672 401.809 50.152 401.809 57.192C401.809 64.04 398.609 68.712 392.465 68.712ZM426.956 40.872C421.452 40.872 417.164 42.984 413.644 47.464L417.612 50.792C420.108 47.464 423.116 45.736 426.828 45.736C431.628 45.736 434.316 48.424 434.316 53.288V54.568H427.34C422.028 54.568 418.892 55.08 416.524 56.36C413.964 57.768 412.556 60.328 412.556 63.656C412.556 69.736 416.844 73.576 423.628 73.576C428.364 73.576 432.14 71.656 434.38 68.264L434.764 73H439.82V53.288C439.82 45.48 435.02 40.872 426.956 40.872ZM424.908 68.968C420.684 68.968 418.06 66.984 418.06 63.912C418.06 62.312 418.635 61.096 419.66 60.264C421.004 59.24 423.18 58.856 427.98 58.856H434.316V59.176C434.316 65 430.476 68.968 424.908 68.968ZM461.594 73.576C467.482 73.576 472.154 70.376 474.266 64.616L469.21 62.696C468.122 66.472 465.242 68.712 461.53 68.712C455.258 68.712 452.57 63.272 452.57 57.32C452.57 51.368 455.258 45.736 461.53 45.736C465.178 45.736 468.058 48.04 469.338 51.88L474.586 49.768C472.09 43.752 467.354 40.872 461.53 40.872C451.738 40.872 446.938 49 446.938 57.32C446.938 65.96 452.058 73.576 461.594 73.576ZM496.15 45.928V41.448H488.406V29.864L482.902 33.96V41.448H477.718V45.928H482.902V65.128C482.902 71.08 486.486 73.576 491.03 73.576C492.694 73.576 494.422 73.256 496.15 72.68V68.008C494.742 68.456 493.462 68.712 492.374 68.712C489.878 68.712 488.406 67.432 488.406 64.552V45.928H496.15Z" fill="#657788"/>
</svg>
