<svg xmlns="http://www.w3.org/2000/svg" id="Layer_1" x="0" y="0" version="1.1" viewBox="0 0 45 45" xml:space="preserve"><defs/><style>.st1{fill:none;stroke:gray;stroke-miterlimit:10}.st2{fill:#feb205}.st3{fill:#b3b3b3}.st6{fill:#f7931e}</style><path fill="#666" d="M25 41h-4a1 1 0 01-1-1v-1c0-.5.4-1 1-1h4c.5 0 1 .5 1 1v1c0 .5-.4 1-1 1z"/><path d="M.5 24.5V.5h22M44.5 20.5v24h-22" class="st1"/><path d="M25.3 38.5h-4.6c-1.2 0-2.2-1-2.2-2.2v-7.6c0-1.2 1-2.2 2.2-2.2h4.6c1.2 0 2.2 1 2.2 2.2v7.6c0 1.2-1 2.2-2.2 2.2z" class="st2"/><path d="M27.5 34.7h-9a1 1 0 01-1-1v-.2c0-.5.4-1 1-1h9c.5 0 1 .5 1 1v.2c0 .5-.4 1-1 1z" class="st3"/><path d="M27.5 36.8h-9a1 1 0 01-1-1v-.2c0-.5.4-1 1-1h9c.5 0 1 .4 1 1v.2c0 .6-.4 1-1 1zM27.5 39h-9a1 1 0 01-1-1v-.2c0-.5.4-1 1-1h9c.5 0 1 .5 1 1v.2c0 .5-.4 1-1 1z" class="st3"/><path fill="#fc0" d="M22.5 30a9.6 9.6 0 01-9.5-9.5c0-5.2 4.3-9.5 9.5-9.5s9.5 4.3 9.5 9.5-4.3 9.5-9.5 9.5z"/><path d="M11.8 13.7L8 12.1c-.3-.1-.4-.4-.3-.7.1-.3.4-.4.7-.3l3.7 1.6c.3.1.4.4.3.7-.1.3-.4.4-.6.3zM10.2 22.7l-4 .6a.7.7 0 01-.6-.4c0-.3.2-.5.4-.6l4-.6c.3 0 .5.2.6.4.1.3-.1.5-.4.6zM34.4 13.7l3.7-1.6c.3-.1.4-.4.3-.7-.1-.3-.4-.4-.7-.3L34 12.8c-.3.1-.4.4-.3.7.2.2.5.3.7.2zM36 23.7l4 .6c.3 0 .5-.2.6-.4 0-.3-.2-.5-.4-.6l-4-.6c-.3 0-.5.2-.6.4-.1.3.1.5.4.6zM22.6 8.5V4.4c0-.3.2-.5.5-.5s.5.2.5.5v4.1c0 .3-.2.5-.5.5s-.5-.2-.5-.5z" class="st6"/><path d="M13.5 23.5s14 8.3 17.8-6.7c0 0 3.8 8.5-4.7 12.4-.1 0-8.7 3.9-13.1-5.7z" class="st2"/><path fill="none" stroke="#f15a24" stroke-miterlimit="10" stroke-width=".5" d="M21.2 32.5s.3-9-2.7-12l3 1 1-2 1 2 4-2s-3.4 6-2.7 13"/><path fill="#ff0" d="M21.5 13.2c-2.8-.2-5.2 2.4-5.8 4.9-.2.7 1 1.1 1.2.3.5-2 2.4-4.2 4.7-4 .6 0 .6-1.2-.1-1.2z"/></svg>