<svg xmlns="http://www.w3.org/2000/svg" id="Layer_1" x="0" y="0" version="1.1" viewBox="0 0 45 45" xml:space="preserve"><defs/><style>.st1{opacity:.5;fill:#22b573}.st2{fill:none;stroke:gray;stroke-miterlimit:10}</style><circle cx="22.6" cy="23.3" r="14.7" fill="#29abe2" opacity=".5"/><path d="M11.5 13.2s.1.8-.3.9c0 0-.3.6.4.3 0 0 .3.1 0 .8 0 0-.3.8.3.6 0 0 .1.3-.3.3 0 0-.5-.1-.2.2 0 0 .4.1.2.3 0 0-.5.1-.2 1.3 0 0 .1 1.8.7 1.2 0 0 .3.8.4-.2 0 0 .6-.7.6-1.5 0 0 .9-.1 1-1.2 0 0 .6.1 1.1-.5 0 0 1.2-.8.3-1.4 0 0-.4-.3.2-.1 0 0 .5.1.3-.4 0 0 .5.1.3-.4 0 0 .4.1.1-.5 0 0-.3-.7.1-.4 0 0 .9 0 .1-.6 0 0 .4-1 .8-1.1 0 0 .3-.6-.4-.2 0 0-.4.2-.4 0 0 0 .3 0 .3-.2 0 0-.2-.3-.6 0 0 0-.8-.2-1 .3 0 0-.6.1-.5.6 0 0-.5-.2-.6.3h-.3l.1-.3-2.5 1.9zM9.9 15.8s-.3.5.4.5c0 0 .1.2-.1.7 0 0-.1.5.3.9 0 0 .1.5-.5.4 0 0-.1.4.1.5 0 0 .1.5-.5.3 0 0 .2.5-.1.5 0 0-.3 0-.3-.3 0 0-.7-.1 0-.8 0 0-.4-.1.1-.7 0 0 .2-.5-.1-.3 0-.1.2-1 .7-1.7zM7.9 21.5s.3.1.4 1.1c0 0 .5-.1.3-1.1 0 0 .3-.3.1-.6 0 0-.6-1.2.3-1.2 0 0 .3 0 .3.6 0 0 .1-.3.3-.3 0 0 .3.6 0 1.1 0 0 .7-.2.7 0 0 0 .1.2-.1.3 0 0 .6.3 0 1 0 0 .3.2.3.8 0 0 0 .2.2.1 0 0-.6 1-.8-.6 0 0-1.3.7-.6.8l.8.8s-.3.8-.9 0c0 0-.6 1.2-.5 1.9 0 0-.1.6.3.7l-.1.8s.4.7.4 1.2c0 0 .4.9.8 1 0 0-.5.3-.9-.4 0-.1-1.9-4.3-1.3-8zM37.2 25.7s-.3-.1-.3-1.2c0 0-1 1.6-1 2.2 0 0-.6 2.1-.7-.2v-1.2s-.6.8-.6-.4l-2.2-.1s-1.5-1-1.3-.1c0 0 .7.9 1 .9 0 0 .5.1.5-.2 0 0 .8.4.6 1.2l-1.8 1.8s-.8.4-1-.8l-1.6-1.8s-.3-.1-.3.1l1.6 1.7s.6 1.7 1.2 1.5c0 0 .6-.7 1-.6 0 0 .1 1.3-.8 2.1 0 0-.5 1-.8 1.2 0 0-.3.3-.1 1.5 0 0-.3 1.3-1 1.3 0 0 0 1.4-.5 1.2 0 0-.3 1.4-1.6 1.4 0 0-1.7.6-1.8-1.1 0 0-1-.1-.4-1.5 0 0-.6-.3-.4-1 0 0-.7.2-.8-.3 0 0 .6-.8 0-1 0 0-.2-.2-.7 0 0 0-.6 0-.6-.3 0 0-.1.6-1.1.4 0 0-1 1-1.7 0 0 0-1.6-.3-1.5-1.2 0 0-.8-.1-.3-1 0 0-1-1.7.6-2.6 0 0-.2-.8.2-.8 0 0 0-1 .8-1.3 0 0 .3-.2.6-.1 0 0 1.4-.9 2.8-.8l.1.8s1.5.1 1.9.6c0 0 .5.1.4-.6 0 0-.2-.5.7-.1 0 0 .3-.3 1.1 0 0 0 1.7-.4 1.4-1.4 0 0-.6-.2-.6.3 0 0-.3.2-.5-.2 0 0-1 .8-.9-.1l-.6-.3 1.4-1.2s.3-.4 1 0c0 0 1-.2-.7-1 0 0-.7.7-.8-.2 0 0-.1 1.2-.6 1 0 0 .2 1.2-.8 1.1 0 0-.1.7.3.6 0 0 .1.3-.2.3l.1.3s-.3.3-.5-.5c0 0-.6.1-.5-.8 0 0-1.2-.6-1.3-1 0 0-.4-.1-.2.3 0 0 .6.8 1 .7 0 0 .4.2 0 .6 0 0 0 .6-.2.8 0 0-.2-.1-.2-.8 0 0-1.3-.3-1.3-.9 0 0-.6-.6-.8.3 0 0-.2.2-.6 0 0 0-.3.1-.2.8 0 0-.3.1-.2.5 0 0-.6 1.2-1.6.9 0 0-1.2-.3-.6-1.1 0 0-.5-.8.6-.9h.6s.3-.9-.4-1.1c0 0-.6-.2.6-.7 0 0 .8-.7.8-1.3 0 0-.1-.4.4-.4 0 0-.3-1.2.5-1.2 0 0 .3 0 .3.8 0 0 .4.3 1.2-.3 0 0 .7.6.7-.8 0 0 .4.4.6-.1 0 0 .1-.3-.6-.3 0 0-.6-.2.6-.5 0 0 .6 0 .5-.4 0 0-.5-.1-.8.3 0 0-1 .2-1-.8 0 0 .8-1 .3-1.2 0 0-.4-.2-.9 1.4 0 0 .1.8.6.6 0 0-.3.3-.2.6.1.3-.2.5-.2.9 0 0-.7.4-.9-.6 0 0-.5-.3-.6.1-.1.5-1.2-.5-1.1-1 0 0 1.5-.8 1.4-3 0 0 .7-.1.8-.7l.9-.1s.4-.6.8-.1c0 0 2.1.3 2 .8 0 0-.1.6-.8.6l.4.3s.3-.8.7-.8c0 0-.4-.6.1-.8 0 0 .3-.1.3.4l.3-.1s-.2-.5.7-.5c0 0 .3-.3.8.1 0 0-.5-.3-.2-.9l.9.7h.3V13s-1.4-.9-.8-1.1c0 0 1.4.8 1.4 1.4l-.1.6s.8-.4-.1-1.6c0 0-.3-.2-.1-.8 0 0-.6-.3.1-.8 0 0 4.4 2.5 5.9 7.1a13 13 0 011.2 7.9z" class="st1"/><path d="M.5 24.5V.5h22M44.5 20.5v24h-22" class="st2"/></svg>