<svg xmlns="http://www.w3.org/2000/svg" id="Layer_1" x="0" y="0" version="1.1" viewBox="0 0 45 45" xml:space="preserve"><defs/><style>.st2{fill:#e6e6e6}.st3{fill:#202020}.st4{fill:#373737}.st5{fill:#f0d0b4}.st6{fill:#999}.st7{fill:#b3b3b3}.st8{fill:#404040}.st9{fill:gray}.st10{font-family:&apos;MyriadPro-Regular&apos;}.st11{font-size:4.935550e-02px}.st12{fill:none}.st14{fill:#534741}.st16{fill:#ffe1cc}.st20{fill:#cea28b}.st21{fill:#666}.st22{font-size:.2266px}.st23{fill:#c1272d}.st30{fill:#543e36}.st40{fill:#ff0}.st45{fill:none;stroke:gray;stroke-miterlimit:10}</style><ellipse cx="22.5" cy="22" fill="#c69c6d" rx="12.2" ry="11.8"/><path fill="#00a99d" d="M24.8 22.5l-.8 3.3c0 .1 0 .1.1.1l3.8 1.1c.1 0 .1 0 .1-.1l.8-3.3c0-.1 0-.1-.1-.1l-3.8-1.1-.1.1z"/><path d="M25.6 22l-.5 3.3c0 .1 0 .1.1.1l3.9.7c.1 0 .1 0 .1-.1l.5-3.3c0-.1 0-.1-.1-.1l-3.9-.7s-.1 0-.1.1z" class="st2"/><path d="M26.6 22.7zM26.6 22.7zM26.5 23.1zM26.4 23.3zM26.4 23.3zM26.5 23.1zM26.6 22.8zM26.5 23zM26.5 22.9zM26.5 22.8zM26.5 23zM26.2 25zM26.1 25.1zM26.4 23.4zM26.3 24zM26.6 22.8zM26.3 24zM26.3 23.5c.1 0 .1 0 0 0 .1 0 .1 0 0 0zM26.4 23.4zM26.4 23.6zM26.3 23.6zM26.2 24.9zM26.6 22.8zM26.5 23.6zM26.3 24.4zM26.5 23.6s-.1 0 0 0c-.1.1-.1.1 0 0zM26.2 24.9zM26.2 24.9s0-.1 0 0c0-.1 0 0 0 0 0-.1 0 0 0 0v-.1.1c0-.1 0 0 0 0v-.1-.1-.1-.1-.1-.1-.1-.1-.1-.1-.1-.1-.1-.1.6c-.1.8-.1.8 0 .8h-.1.1c0 .1 0 .1 0 0 0 .1 0 .1 0 0 0 .1 0 .1 0 0 0 .1 0 .1 0 0 0 .1 0 .1 0 0 0 .1 0 .1 0 0 0 .1 0 0 0 0zm0-.2zm0 0zm-.1 0zM26.1 24.7zM26.5 23.1zM26.3 24.4zM26.5 23zM26.6 22.9zM26.6 22.9zM26.5 23.4zM26.5 23.3zM26.5 23.6zM26.5 23.3zM26.6 22.7zM26.6 22.7zM26.6 22.7zM26.6 22.8zM26.6 22.8zM26.5 22.8zM26.5 22.9zM26.5 23.1c-.1 0-.1 0 0 0zM26.5 23.2zM26.4 23.2zM26.3 23.6zM26.3 23.8zM26.2 24.4z" class="st3"/><path d="M27.2 23zM27.1 23c.1 0 .1 0 0 0 .1 0 .1 0 0 0 .1 0 .1 0 0 0 .1 0 .1 0 0 0zM27.1 23.3zM27 23.5zM27 23.5zM27.1 23.3zM27.2 23.1zM27.1 23.2zM27.1 23.2zM27.1 23.1zM27.1 23.3zM26.8 25.1zM26.7 25.1zM27 23.6zM26.9 24.1zM27.2 23.1zM26.9 24.1zM26.9 23.7zM27 23.6zM27 23.8zM26.9 23.8zM26.8 24.9zM27.2 23.1zM27.1 23.8zM26.9 24.5zM27.1 23.8s-.1 0 0 0zM26.8 24.9zM26.9 25s-.1 0 0 0c-.1 0-.1 0 0 0-.1 0-.1-.1 0 0-.1-.1-.1-.1 0 0-.1-.1-.1-.1 0 0-.1-.1-.1-.1 0 0-.1-.1-.1-.1 0 0-.1-.1-.1-.1 0 0-.1-.1-.1-.1 0 0 0-.1-.1-.1 0 0 0-.1-.1-.1 0 0v-.1-.1-.1-.1-.1-.1-.1-.1-.1V25h-.1.1c-.1.1-.1.1 0 0-.1.1-.1.1 0 0-.1 0-.1 0 0 0-.1 0-.1 0 0 0-.1 0-.1 0 0 0-.1 0-.1 0 0 0-.1 0-.1 0 0 0-.1 0-.1 0 0 0-.1 0-.1 0 0 0-.1 0-.1 0 0 0-.1 0 0 0 0 0zm-.1-.2zm0 0zm-.1 0zM26.8 24.8zM27.1 23.3zM26.9 24.5zM27.1 23.2zM27.1 23.2zM27.2 23.2h-.1zM27.1 23.6zM27.1 23.5zM27.1 23.8zM27.1 23.5zM27.2 23zM27.2 23zM27.2 23zM27.2 23.1zM27.2 23.1zM27.1 23.1zM27.1 23.1zM27 23.4zM27.1 23.4zM27 23.4zM26.9 23.8c.1 0 0 0 0 0zM26.9 24zM26.8 24.5z" class="st4"/><g><path d="M28 22.6h-.1.1zM27.9 22.6c0 .1 0 .1 0 0 0 .1.1.1 0 0 0 0 .1 0 0 0zM27.8 23zM27.8 23.3zM27.8 23.3zM27.8 23zM28 22.7zM27.8 22.9zM27.9 22.8zM27.9 22.7zM27.8 23zM27.6 25.2zM27.5 25.3zM27.7 23.4zM27.6 24c.1 0 .1.1 0 0 .1 0 0 0 0 0zM28 22.7zM27.7 24zM27.7 23.5zM27.8 23.4zM27.7 23.6zM27.7 23.7zM27.6 25zM28 22.7zM27.8 23.6zM27.7 24.5zM27.8 23.7zM27.6 25zM27.6 25.1c0-.1 0-.1 0 0 0-.1 0-.1 0 0 0-.1 0-.1 0 0 0-.1 0-.1 0 0V25v.1c0-.1 0-.1 0 0V25v-.1-.1-.1-.1-.1-.1-.1-.1-.1-.1-.1-.1-.1-.1-.1V25.1c-.1 0-.1 0-.1.1h.1v-.1zm0-.3zm0 0zm-.1 0zM27.5 24.9zM27.8 23zM27.7 24.5zM27.9 22.9zM27.9 22.9zM27.9 22.8zM27.9 23.4zM27.8 23.2c.1.1.1 0 0 0zM27.8 23.6zM27.9 23.3zM28 22.7zM28 22.7zM28 22.7zM28 22.7zM28 22.7s-.1 0 0 0zM27.9 22.8zM27.9 22.8zM27.8 23.1zM27.9 23.2zM27.8 23.2zM27.7 23.7zM27.7 23.9zM27.6 24.5z" class="st4"/></g><g><path d="M28.6 23.1zM28.5 23.1s.1 0 0 0c.1 0 .1 0 0 0 .1 0 .1 0 0 0zM28.5 23.4zM28.4 23.6zM28.4 23.6zM28.5 23.4zM28.6 23.2zM28.5 23.3h-.1zM28.5 23.3zM28.5 23.2zM28.4 23.4zM28.2 25.3zM28.2 25.3h-.1zM28.4 23.7zM28.3 24.3zM28.6 23.2zM28.3 24.3zM28.3 23.9zM28.4 23.7zM28.4 23.9zM28.3 24zM28.3 25.1zM28.6 23.2zM28.5 23.9zM28.3 24.7zM28.5 24s-.1 0 0 0zM28.2 25.1zM28.3 25.2c-.1-.1 0 0 0 0 0-.1-.1-.1 0 0-.1-.1 0-.1 0 0-.1-.1-.1-.1 0 0-.1-.1-.1-.1 0 0-.1-.1-.1-.1 0 0-.1-.1-.1-.1 0 0-.1-.1-.1-.1 0 0 0-.1-.1-.1 0 0 0-.1 0-.1 0 0v-.1-.1-.1-.1-.1-.1-.1-.1-.1-.1 1h-.1.1c-.1.1-.1.1 0 0-.1.1-.1 0 0 0-.1 0-.1 0 0 0-.1 0-.1 0 0 0-.1 0-.1 0 0 0-.1 0-.1 0 0 0-.1 0-.1 0 0 0-.1 0-.1 0 0 0-.1 0-.1 0 0 0-.1 0 0 0 0 0zm0-.2zm0-.1zm-.1.1zM28.2 25zM28.5 23.4zM28.3 24.7zM28.5 23.3zM28.5 23.3zM28.5 23.3zM28.5 23.8zM28.5 23.6zM28.5 23.9zM28.5 23.6zM28.6 23.1zM28.6 23.1zM28.6 23.1zM28.6 23.2zM28.6 23.2s-.1 0 0 0zM28.5 23.2zM28.5 23.3c0-.1 0-.1 0 0zM28.4 23.5zM28.5 23.5zM28.4 23.6zM28.3 24zM28.3 24.1zM28.2 24.6z" class="st4"/></g><g><path d="M29.2 23zM29.2 23s0 .1 0 0zM29.1 23.4zM29.1 23.6zM29 23.6zM29.1 23.4zM29.2 23.1zM29.1 23.3zM29.1 23.2zM29.2 23.1zM29.1 23.3zM28.9 25.4zM28.8 25.4zM29 23.7zM28.9 24.3c.1 0 0 0 0 0zM29.2 23.1zM29 24.3zM29 23.8zM29 23.7zM29 23.9zM29 24zM28.9 25.2zM29.2 23.1zM29.1 23.9zM29 24.7zM29.1 24zM28.9 25.2zM28.9 25.2v-.1-.1-.1-.1-.1-.1-.1-.1-.1-.1-.1-.1-.1-.1.6c-.1.8-.1.8 0 .8h-.1.1c0 .2 0 .1 0 0 0 .1 0 .1 0 0 0 .1 0 .1 0 0 0 .1 0 .1 0 0 0 .1 0 .1 0 0 0 .1 0 .1 0 0 0 .1 0 .1 0 0 0 .1 0 .1 0 0 0 .1 0 .1 0 0zm0-.2zm0 0zm-.1 0zM28.8 25zM29.1 23.4zM29 24.8zM29.2 23.3zM29.2 23.2zM29.2 23.2zM29.1 23.7zM29.1 23.6zM29.1 23.9zM29.1 23.6zM29.2 23.1zM29.2 23.1zM29.2 23.1zM29.2 23.1zM29.2 23.1zM29.1 23.2s.1 0 0 0zM29.1 23.2zM29.1 23.5zM29.2 23.5h-.1zM29.1 23.5zM29 24c0-.1 0-.1 0 0zM29 24.1zM28.9 24.7z" class="st4"/></g><path d="M14.2 26.5l.2-.3c-.1-.3.1-.6.2-.7l.3-.4h.1v.1l-.2.3c0 .1-.1.1 0 .2.1 0 .1 0 .2-.1.1 0 .3-.2.3-.2l.4-.3h.1v.1l-.4.4c0 .1.1.3.1.5s-.2.3-.3.4l-.6.4-.4-.4zM12.3 23.5h.3c.2.2.5.3.7.3h.5s.1 0 .1-.1 0-.1-.1-.1l-.3-.1c-.1 0-.1 0-.1-.1s0-.1.2-.1c.1 0 .3-.1.3-.1l.4-.1.1-.1s0-.1-.1-.1h-.6c-.1 0-.1-.3-.3-.4-.1-.1-.4 0-.5 0l-.7.2.1.8zM29.5 14.5l-.3.1c-.2-.1-.6-.1-.7 0l-.5.2s-.1.1 0 .1l.1.1.3-.1h.2c0 .1 0 .1-.1.2l-.2.2-.4.3v.1h.1l.5-.3c.1 0 .3.2.4.2.1 0 .3-.1.4-.2l.6-.5-.4-.4zM27 12.3l-.2 1.2s-.1.3-.2.2c0 0-.1-.1 0-.4 0 0-.1-.3-.3.2 0 0-.1.6-.3.2l-.1-.6s0-.5.3-.7c0 0 .1-.2.2-.3l.6.2z" class="st5"/><g><path d="M15 16.4l3.3-4.1 2.4 2.2-3.3 4.1z" class="st2"/><path d="M16.3 15.2l1.1-1.3.6.6-1.1 1.3zM20.6 14.5l1.4.4-4.2 5.1-.5-1.4z" class="st6"/><path d="M20.6 14.9l1.1.2-3.7 4.5-.3-1.2z" class="st2"/><path d="M19.3 14.3c.1-.1.2-.1.3 0 .1.1.1.2 0 .3-.1.1-.2.1-.3 0-.1-.1-.1-.2 0-.3zM18.9 14.8c.1-.1.2-.1.3 0 .1.1.1.2 0 .3-.1.1-.2.1-.3 0-.1-.1-.1-.3 0-.3zM18.5 15.3c.1-.1.2-.1.3 0 .1.1.1.2 0 .3-.1.1-.2.1-.3 0-.1-.1-.1-.3 0-.3zM18.1 15.7c.1-.1.2-.1.3 0 .1.1.1.2 0 .3-.1.1-.2.1-.3 0-.1 0-.1-.2 0-.3zM17.7 16.2c.1-.1.2-.1.3 0 .1.1.1.2 0 .3-.1.1-.2.1-.3 0-.1 0-.1-.2 0-.3zM17.3 16.7c.1-.1.2-.1.3 0 .1.1.1.2 0 .3-.1.1-.2.1-.3 0-.1-.1-.1-.2 0-.3zM16.9 17.2c.1-.1.2-.1.3 0 .1.1.1.2 0 .3-.1.1-.2.1-.3 0-.1-.1-.1-.2 0-.3z" class="st7"/><g><path d="M19.7 14.7c.1-.1.2-.1.3 0 .1.1.1.2 0 .3-.1.1-.2.1-.3 0-.1-.1-.1-.3 0-.3zM19.3 15.2c.1-.1.2-.1.3 0 .1.1.1.2 0 .3-.1.1-.2.1-.3 0-.1-.1-.1-.3 0-.3zM18.9 15.6c.1-.1.2-.1.3 0 .1.1.1.2 0 .3-.1.1-.2.1-.3 0-.1 0-.1-.2 0-.3zM18.5 16.1c.1-.1.2-.1.3 0 .1.1.1.2 0 .3-.1.1-.2.1-.3 0-.1-.1-.1-.2 0-.3zM18.1 16.6c.1-.1.2-.1.3 0 .1.1.1.2 0 .3-.1.1-.2.1-.3 0-.1-.1-.1-.2 0-.3zM17.7 17.1c.1-.1.2-.1.3 0 .1.1.1.2 0 .3-.1.1-.2.1-.3 0-.1-.1-.1-.2 0-.3zM17.3 17.6c.1-.1.2-.1.3 0 .1.1.1.2 0 .3-.1.1-.2.1-.3 0-.1-.1-.1-.2 0-.3z" class="st7"/></g><path d="M18.9 13.9c.1-.1.2-.1.3 0 .1.1.1.2 0 .3-.1.1-.2.1-.3 0-.1-.1-.1-.2 0-.3zM18.5 14.4c.1-.1.2-.1.3 0 .1.1.1.2 0 .3-.1.1-.2.1-.3 0-.1-.1-.1-.2 0-.3zM17.2 15.9l.9-1.1c.1-.1.2-.1.3 0 .1.1.1.2 0 .3l-.9 1.1c-.1.1-.2.1-.3 0-.1-.1-.1-.2 0-.3zM16.8 16.3c.1-.1.2-.1.3 0 .1.1.1.2 0 .3-.1.1-.2.1-.3 0v-.3zM16.4 16.8c.1-.1.2-.1.3 0 .1.1.1.2 0 .3-.1.1-.2.1-.3 0v-.3z" class="st7"/></g><g><path d="M20.6 15.6l-.2-.2c.1-.1.1-.1.2-.1v.3z" class="st8"/><path d="M20.6 15.6l-.2.2c-.1-.1-.1-.3 0-.5l.2.3z" class="st9"/><path d="M20.6 15.6l.3-.1c.1.2 0 .4-.1.4-.1.1-.2 0-.3-.1l.1-.2z" class="st7"/><path d="M20.6 15.6v-.3c.1 0 .2.1.3.2l-.3.1z"/></g><g><text class="st10 st11" transform="matrix(-.6399 .7787 -.736 -.6769 19.88 16.08)">0</text><text class="st10 st11" transform="matrix(-.6399 .7787 -.736 -.6769 19.68 16.33)">100</text><text class="st10 st11" transform="matrix(-.6399 .7787 -.736 -.6769 19.44 16.62)">200</text><text class="st10 st11" transform="matrix(-.6399 .7787 -.736 -.6769 19.2 16.91)">300</text><text class="st10 st11" transform="matrix(-.6399 .7787 -.736 -.6769 18.96 17.2)">400</text><text class="st10 st11" transform="matrix(-.6399 .7787 -.736 -.6769 18.73 17.5)">500</text><text class="st10 st11" transform="matrix(-.6399 .7787 -.736 -.6769 18.49 17.78)">600</text><text class="st10 st11" transform="matrix(-.6399 .7787 -.736 -.6769 18.25 18.07)">700</text><text class="st10 st11" transform="matrix(-.6399 .7787 -.736 -.6769 18.01 18.36)">800</text><path d="M19.9 16.1L18 18.4" class="st12"/><g><path d="M18.9 17.3h.1M18 18.4v.1" class="st12"/></g><g><path d="M19.9 16.1l.4.4M20.1 16.3l-.1.1" class="st12"/></g><g><path d="M18.8 18.1l-.2.3-.3-.2.2-.3z" class="st8"/><path d="M19.5 17.3l-.7.8-.3-.2.8-.9z" class="st9"/><path fill="#dfdfdf" d="M19.7 17l-.2.3-.2-.3.2-.2z"/><path d="M20.2 16.4l-.5.6-.2-.2.4-.6z"/></g></g><path d="M14.8 14.6l.3.1c.2-.2.5-.1.7 0l.4.1.1.1-.1.1h-.3c-.1 0-.1 0-.2.1 0 .1 0 .1.1.2.1 0 .3.2.3.2l.4.2v.1h-.1l-.5-.2c-.1 0-.2.3-.4.3-.1 0-.3-.1-.5-.2l-.6-.4.4-.7zM17.2 12.3l.1.3c-.1.2-.1.6 0 .8l.2.5s.1.1.1 0l.1-.1-.1-.3v-.2c.1 0 .1 0 .2.1 0 .1.2.2.2.2l.3.4h.1v-.1l-.3-.5c0-.1.2-.3.2-.4 0-.2-.1-.4-.2-.5l-.5-.6-.4.4z" class="st5"/><g><path d="M17.4 38.4c3 2.1 6.6 2.2 9.7.3.8-.5.1-1.8-.8-1.3a6.9 6.9 0 01-8.2-.3c-.8-.5-1.5.8-.7 1.3z" class="st14"/></g><g><path d="M5.9 23.5c-.2 3.7 1.6 7.1 4.9 8.8.9.5 1.6-.8.8-1.3-2.9-1.5-4.3-4.3-4.1-7.5-.1-1-1.6-1-1.6 0z" class="st14"/></g><g><path d="M16.5 5.8c-3.7.5-6.6 3.1-7.5 6.7-.3.9 1.2 1.3 1.4.4.8-2.9 3-5.2 6.1-5.6.9-.1 1-1.6 0-1.5z" class="st14"/></g><path d="M9.2 29.5l-1.3-2.2c-.6-1-.3-2.3.6-2.9.9-.6 2.1-.3 2.7.7l1.3 2.2c.6 1 .3 2.3-.6 2.9-.9.5-2.2.2-2.7-.7z" class="st14"/><path fill="#fff" d="M9.2 24.8s.9-1.1 2.3 1c0 0 1.2 1.7 0 2.6 0 0 .8.4 1.5-.4l1.1-1.7 1 .5-1.9 2.7s-.3.4-1.2.4l-2 .2s-.8-.4-1.9-1.7c0 0-.9-1.6-.7-3.3 0 0 .9-1.9 2-2.5l3.1.1v1.1h-2.4c-.1 0-.5-.1-.9 1z"/><path d="M11.1 26.5s.6 1.7-1.3 2.8c0 0-1 .7-2.1-1.3 0 0-.8-1.2.3-2.1 0 0 1.9-1.1 3.1.6z" class="st16"/><path d="M37.3 27.1l-.6 1.7c-.5 1.3-1.8 1.9-3 1.4s-1.8-1.9-1.3-3.2l.6-1.7c.5-1.3 1.8-1.9 3-1.4s1.8 2 1.3 3.2zM31.9 8.3l1.2 1.3c.9 1 .9 2.5 0 3.5s-2.4 1-3.3 0l-1.2-1.3c-.9-1-.9-2.5 0-3.5.9-.9 2.4-.9 3.3 0z" class="st14"/><path fill="#22b573" d="M32.2 12.5s-.6 1.3-2.4-.4c0 0-1.5-1.4-.6-2.5 0 0-.8-.2-1.3.7l-.7 1.9-1.2-.1L27.2 9s.1-.5 1-.7l1.9-.7s.9.2 2.2 1.2c0 0 1.3 1.3 1.5 3.1 0 0-.4 2-1.4 2.9l-3 .6-.2-1.1 2.3-.6c.1 0 .5 0 .7-1.2z"/><path d="M29.7 11.7s-.9-1.5.8-3.3c0 0 .9-1 2.3.7 0 0 1 1 .1 2.2 0 0-1.6 1.6-3.2.4z" class="st16"/><g><path d="M35.4 13.2c-.6-3.6-3.2-6.5-6.7-7.3-.9-.2-1.3 1.2-.4 1.4 3.1.7 5.1 3.2 5.7 6.3.1.9 1.6.5 1.4-.4z" class="st14"/></g><path d="M11.6 9.4l1.3-1.2c1-.9 2.4-.8 3.3.2.9 1 .8 2.6-.2 3.5l-1.3 1.2c-1 .9-2.4.8-3.3-.2-.9-1-.8-2.5.2-3.5z" class="st14"/><path fill="#1b3c67" d="M15.6 9.2s1.2.7-.6 2.5c0 0-1.4 1.5-2.4.5 0 0-.2.9.6 1.4l1.8.9-.3 1.1-2.8-1.5s-.4-.2-.6-1.1l-.5-2.1s.2-.9 1.3-2.2c0 0 1.3-1.2 3-1.4 0 0 1.9.6 2.7 1.7l.4 3.2-1 .2-.4-2.5c-.2 0-.1-.5-1.2-.7z"/><path d="M14.6 11.7s-1.5.9-3-1c0 0-.9-1 .8-2.4 0 0 1-1 2.1 0-.1 0 1.4 1.9.1 3.4z" class="st16"/><path d="M15 9s.4.7-.2 1.5c0 0 .1-.2-.1-.3 0 0-.1.8-.7 1.2 0 0 .1 0 .2-.3 0 0-.5.7-1.3.6 0 0 .3-.1.5-.2 0 0-.7.3-1.3 0 0 0-1.7-1.3-.1-3.1 0-.1 1.9-1.7 3 .6z"/><path fill="#1a1a1a" d="M14.4 8.3s-.9-.6-2.3.8c0 0-.7.7-.6 1.6 0 0-1-1.5 1-2.7.1 0 1.2-.6 1.9.3z"/><path d="M22.9 39.2h-1.4c-1.4 0-2.5-1.1-2.5-2.5s1.1-2.5 2.5-2.5h1.4c1.4 0 2.5 1.1 2.5 2.5s-1.1 2.5-2.5 2.5z" class="st14"/><g><path d="M19.7 28.4h5.1v3.4h-5.1z" class="st2"/><path d="M21.4 30.5h1.7v.9h-1.7zM19.7 28.4l-.7-1.3h6.4l-.7 1.3z" class="st6"/><path d="M20 28.2l-.6-1H25l-.6 1z" class="st2"/><path d="M20.4 29.7c-.1 0-.2-.1-.2-.2s.1-.2.2-.2.2.1.2.2-.1.2-.2.2zM21 29.7c-.1 0-.2-.1-.2-.2s.1-.2.2-.2.2.1.2.2-.1.2-.2.2zM21.6 29.7c-.1 0-.2-.1-.2-.2s.1-.2.2-.2.2.1.2.2-.1.2-.2.2zM22.2 29.7c-.1 0-.2-.1-.2-.2s.1-.2.2-.2.2.1.2.2-.1.2-.2.2zM22.8 29.7c-.1 0-.2-.1-.2-.2s.1-.2.2-.2.2.1.2.2-.1.2-.2.2zM23.5 29.7c-.1 0-.2-.1-.2-.2s.1-.2.2-.2.2.1.2.2-.1.2-.2.2zM24.1 29.7c-.1 0-.2-.1-.2-.2s.1-.2.2-.2.2.1.2.2-.1.2-.2.2z" class="st7"/><g><path d="M20.4 29.1c-.1 0-.2-.1-.2-.2s.1-.2.2-.2.2.1.2.2-.1.2-.2.2zM21 29.1c-.1 0-.2-.1-.2-.2s.1-.2.2-.2.2.1.2.2-.1.2-.2.2zM21.6 29.1c-.1 0-.2-.1-.2-.2s.1-.2.2-.2.2.1.2.2-.1.2-.2.2zM22.2 29.1c-.1 0-.2-.1-.2-.2s.1-.2.2-.2.2.1.2.2-.1.2-.2.2zM22.8 29.1c-.1 0-.2-.1-.2-.2s.1-.2.2-.2.2.1.2.2-.1.2-.2.2zM23.5 29.1c-.1 0-.2-.1-.2-.2s.1-.2.2-.2.2.1.2.2-.1.2-.2.2zM24.1 29.1c-.1 0-.2-.1-.2-.2s.1-.2.2-.2.2.1.2.2-.1.2-.2.2z" class="st7"/></g><path d="M20.4 30.3c-.1 0-.2-.1-.2-.2s.1-.2.2-.2.2.1.2.2-.1.2-.2.2zM21 30.3c-.1 0-.2-.1-.2-.2s.1-.2.2-.2.2.1.2.2-.1.2-.2.2zM22.9 30.3h-1.3c-.1 0-.2-.1-.2-.2s.1-.2.2-.2h1.3c.1 0 .2.1.2.2s-.1.2-.2.2zM23.5 30.3c-.1 0-.2-.1-.2-.2s.1-.2.2-.2.2.1.2.2-.1.2-.2.2zM24.1 30.3c-.1 0-.2-.1-.2-.2s.1-.2.2-.2.2.1.2.2-.1.2-.2.2z" class="st7"/></g><path d="M20.9 33.1l.5-1.1s.1-.3-.1-.3c0 0-.2 0-.3.3 0 0-.3.2-.1-.4 0 0 .2-.5-.2-.3l-.4.4s-.3.4-.2.8c0 0 0 .2-.1.3l.9.3z" class="st20"/><path d="M20 27.5h4.5v.6H20z" class="st12"/><text transform="matrix(.9452 0 0 1 19.97 27.68)"><tspan x="0" y="0" class="st21 st10 st22">Lorem ipsum dolor sit amet, consectetuer Lorem </tspan><tspan x="0" y=".3" class="st21 st10 st22">ipsum dolor sit amet, consectetuer adipiscing elit,</tspan></text><path d="M24.2 32.9l-.2-.2c-.3 0-.5-.2-.6-.3L23 32v-.1h.1l.3.2c.1 0 .1.1.2 0v-.3c0-.1-.1-.3-.1-.3l-.2-.4V31h.1l.4.4c.1 0 .3-.1.5-.1.1.1.3.3.3.4l.3.7-.7.5z" class="st20"/><path d="M20.1 36.5s-.4-1.4 2-1.5c0 0 2-.1 2.1 1.3 0 0 .7-.5.5-1.5l-.8-1.9.9-.6 1.2 3.1s.2.5-.3 1.3l-.9 1.9s-.8.5-2.4.8c0 0-1.8 0-3.1-1.1 0 0-1-1.8-.9-3.1l1.7-2.7.9.6-1.2 2.2c-.1-.1-.4.3.3 1.2z" class="st23"/><path d="M22.4 35.3s1.7.4 1.6 2.9c0 0 0 1.4-2.1 1.3 0 0-1.4 0-1.6-1.5 0 0 .2-2.4 2.1-2.7z" class="st20"/><path fill="#736357" d="M20.4 37s.1-.8 1.1-1c0 0-.2.1-.1.3 0 0 .6-.5 1.3-.4 0 0-.1-.1-.3.1 0 0 .8-.1 1.3.5 0 0-.3-.1-.5-.1 0 0 .7.2.9.9 0 0 .5 2.2-1.9 2.4 0 0-2.5-.2-1.8-2.7z"/><path d="M20.3 38s.3 1.1 2.2 1c0 0 .9 0 1.4-.8 0 0-.2 1.8-2.5 1.3.1 0-1-.4-1.1-1.5z" class="st14"/><path fill="none" stroke="#534741" stroke-miterlimit="10" stroke-width=".5" d="M9.4 25.8l.9-.3 1 2-.5.5"/><path fill="#fef7cd" d="M9 25.5s.7-.3 1.4.5c0 0-.2-.1-.3.1 0 0 .7.3 1 1 0 0 .1-.1-.3-.2 0 0 .5.7.3 1.4 0 0-.1-.3-.1-.5 0 0 .2.8-.3 1.3 0 0-1.5 1.6-2.9-.5 0-.1-1.1-2.4 1.2-3.1z"/><path d="M10.5 26.3h.2v.1l-.2-.1zM10.7 26.8v-.2h.1v.1l-.1.1c.1 0 .1 0 0 0z" class="st14"/><path d="M11.9 9.3a.9.9 0 01-.9-.9v-.1c0-.5.4-.9.9-.9s.9.4.9.9v.1c0 .5-.4.9-.9.9z"/><path fill="#fef796" d="M8.1 25.9s-.7.8.4 2.6c0 0 .5.9 1.4.9 0 0-1.6.8-2.3-1.6-.1 0-.4-1.2.5-1.9z"/><path fill="#c46c18" d="M32.1 12.2s-.6.5-1.4-.1c0 0 .2.1.3-.2 0 0-.8-.1-1.2-.7 0 0 0 .1.3.1 0 0-.6-.5-.6-1.3 0 0 .1.3.3.5 0 0-.4-.7 0-1.3 0 0 1.1-1.9 2.9-.3-.1 0 1.5 1.9-.6 3.3z"/><path fill="#b25216" d="M32.9 11.3s.5-1-.9-2.4c0 0-.7-.7-1.5-.5 0 0 1.3-1.1 2.6.9 0 0 .6 1.2-.2 2z"/><g><path d="M26.6 21l-.8 3.3c0 .1 0 .1.1.1l3.8 1.1c.1 0 .1 0 .1-.1l.8-3.3c0-.1 0-.1-.1-.1l-3.8-1.1s-.1 0-.1.1z" class="st2"/><path d="M27.6 21.8s-.1 0 0 0zM27.5 21.8zM27.4 22.1zM27.3 22.4c0-.1 0-.1 0 0 0-.1 0 0 0 0zM27.3 22.4zM27.4 22.1c0 .1 0 0 0 0zM27.5 21.9zM27.4 22zM27.4 22zM27.5 21.9zM27.4 22.1zM26.9 24.1zM26.9 24.2h-.1zM27.3 22.4zM27.1 23s0 .1 0 0c0 .1 0 0 0 0zM27.5 21.9zM27.1 23.1zM27.2 22.6zM27.3 22.5zM27.2 22.7zM27.2 22.7zM27 23.9zM27.5 21.9zM27.3 22.7zM27.1 23.5zM27.3 22.7zM27 23.9zM27 24s0-.1 0 0c0-.1 0-.1 0 0 0-.1 0-.1 0 0 0-.1 0-.1 0 0-.1-.1-.1-.1 0 0 0-.1 0-.1 0 0 0-.1 0-.1 0 0v-.1.1c0-.1 0-.1 0 0v-.1-.1-.1-.1-.1-.1-.1s0-.1.1-.1v-.1-.1-.1-.1-.1-.1.6c-.2.7-.2.7-.1.8h-.1.1c-.1.1-.1.1 0 0-.1.1-.1.1 0 0-.1.1 0 .1 0 0-.1 0-.1 0 0 0-.1 0-.1 0 0 0-.1 0 0 0 0 0zm0-.2zm0-.1s0 .1 0 0c0 .1 0 .1 0 0 0 .1 0 0 0 0zm-.1.1zM26.9 23.8zM27.4 22.1zM27.1 23.5zM27.5 22.1zM27.5 22zM27.5 22zM27.4 22.5zM27.4 22.3s0 .1 0 0c0 .1 0 0 0 0zM27.3 22.7zM27.4 22.4zM27.6 21.8zM27.6 21.8zM27.5 21.8c.1 0 .1 0 0 0zM27.5 21.9zM27.5 21.9zM27.5 21.9c-.1 0 0 0 0 0zM27.4 22zM27.4 22.2zM27.4 22.3zM27.3 22.3zM27.2 22.7zM27.2 22.9zM27 23.4z" class="st3"/><g><path d="M28.1 22.1zM28.1 22.1c0 .1 0 .1 0 0 0 .1 0 .1 0 0zM28 22.4zM27.9 22.6zM27.9 22.6zM28 22.4zM28.1 22.2zM28 22.4v-.1zM28 22.3zM28 22.2zM28 22.4zM27.6 24.2zM27.5 24.2zM27.8 22.7zM27.7 23.2s0 .1 0 0c0 .1 0 0 0 0zM28.1 22.2zM27.7 23.3zM27.8 22.8zM27.9 22.7zM27.8 22.9zM27.8 23v-.1zM27.6 24zM28.1 22.2zM27.9 22.9zM27.7 23.6zM27.9 23zM27.6 24zM27.6 24.1c0-.1 0-.1 0 0 0-.1 0-.1 0 0 0-.1 0-.1 0 0 0-.1 0-.1 0 0 0-.1 0-.1 0 0 0-.1 0-.1 0 0 0-.1 0-.1 0 0 0-.1 0-.1 0 0V24v-.1-.1-.1-.1-.1-.1-.1.8h-.1.1c0 .1 0 .1 0 0 0 .1 0 .1 0 0 0 .1 0 0 0 0zm0-.2zm0 0zm-.1 0zM27.5 23.9zM28 22.4zM27.7 23.7zM28 22.4zM28.1 22.3zM28.1 22.3zM28 22.8zM28 22.6zM27.9 22.9zM28 22.6zM28.1 22.2zM28.1 22.2zM28.1 22.2zM28.1 22.2zM28.1 22.2zM28 22.3c0-.1 0-.1 0 0 0-.1 0-.1 0 0zM28 22.3zM27.9 22.5zM28 22.6zM27.9 22.6zM27.8 22.9zM27.8 23.1zM27.6 23.6z" class="st4"/></g><g><path d="M28.9 21.8zM28.9 21.9c0-.1 0 0 0 0zM28.8 22.2zM28.7 22.5zM28.7 22.5zM28.8 22.2zM28.9 21.9zM28.8 22.1zM28.8 22zM28.8 21.9zM28.8 22.2zM28.3 24.4zM28.2 24.5zM28.6 22.6zM28.5 23.2zM28.9 21.9zM28.5 23.2zM28.6 22.7zM28.7 22.6zM28.6 22.8zM28.6 22.9zM28.4 24.2zM28.9 21.9zM28.7 22.8zM28.5 23.7zM28.7 22.9zM28.3 24.2zM28.4 24.3s-.1 0 0 0c-.1-.1-.1-.1 0 0 0-.1-.1-.1 0 0-.1-.1 0-.1 0 0-.1-.1-.1-.1 0 0-.1-.1-.1-.1 0 0-.1-.1-.1-.1 0 0v-.1.1c0-.1-.1-.1 0 0v-.1-.1-.1-.1-.1-.1-.1-.1-.1s0-.1.1-.1v-.1-.1-.1-.1-.1-.1V23.7l-.1.6h-.1.1c-.1.1-.1.1 0 0-.1.1-.1 0 0 0-.1 0-.1 0 0 0-.1 0-.1 0 0 0-.1 0-.1 0 0 0-.1 0-.1 0 0 0-.1 0-.1 0 0 0-.1 0-.1 0 0 0-.1 0-.1 0 0 0zm0-.3zm0 0zm-.1 0zM28.3 24zM28.8 22.2zM28.5 23.7zM28.8 22.1zM28.9 22.1zM28.9 22zM28.7 22.6zM28.8 22.4c0 .1 0 .1 0 0zM28.7 22.8zM28.8 22.5zM28.9 21.9zM28.9 21.9zM28.9 21.9zM28.9 21.9zM28.9 22s0-.1 0 0c0-.1 0-.1 0 0zM28.8 22zM28.8 22zM28.7 22.3zM28.8 22.4zM28.7 22.4zM28.6 22.8c0 .1 0 0 0 0zM28.5 23.1zM28.4 23.6z" class="st4"/></g><g><path d="M29.5 22.3v.1zM29.4 22.4c.1 0 .1 0 0 0 .1 0 .1 0 0 0 .1 0 .1 0 0 0 .1 0 .1 0 0 0zM29.3 22.7zM29.3 22.9zM29.3 22.9zM29.3 22.7zM29.5 22.4zM29.3 22.6zM29.4 22.5zM29.4 22.4zM29.3 22.6zM29 24.5zM28.9 24.6zM29.2 22.9zM29.1 23.5zM29.5 22.4zM29.1 23.5zM29.2 23.1zM29.2 23zM29.2 23.2zM29.2 23.2zM29 24.3zM29.5 22.4zM29.3 23.2zM29.1 23.9zM29.3 23.2zM29 24.3zM29 24.4s0-.1 0 0c0-.1 0-.1 0 0 0-.1 0-.1 0 0 0-.1 0-.1 0 0 0-.1 0-.1 0 0 0-.1 0-.1 0 0 0-.1 0-.1 0 0 0-.1 0-.1 0 0v-.1-.1-.1-.1-.1-.1-.1-.1-.1V24.4h-.1.1c0 .1-.1.1 0 0 0 .1 0 .1 0 0 0 .1 0 .1 0 0zm0-.2zm0 0zm-.1 0zM28.9 24.2zM29.3 22.7zM29.1 23.9zM29.4 22.6zM29.4 22.5zM29.4 22.5zM29.3 23zM29.3 22.9zM29.3 23.2zM29.3 22.9zM29.5 22.4zM29.5 22.4zM29.5 22.4zM29.5 22.4zM29.5 22.4zM29.4 22.5zM29.4 22.5zM29.3 22.7zM29.4 22.8zM29.3 22.8zM29.2 23.2zM29.1 23.4zM29 23.9z" class="st4"/></g><g><path d="M30.1 22.3zM30.1 22.4c0-.1 0 0 0 0zM30 22.7zM29.9 22.9zM29.9 22.9zM30 22.7zM30.1 22.4zM30 22.6zM30 22.5zM30.1 22.4zM30 22.6zM29.6 24.6zM29.5 24.7zM29.9 23zM29.7 23.6c.1 0 .1 0 0 0 .1 0 0 0 0 0zM30.1 22.4zM29.8 23.6zM29.9 23.1zM29.9 23zM29.9 23.2zM29.8 23.3zM29.6 24.5zM30.1 22.4zM30 23.2zM29.7 24zM30 23.3c-.1 0-.1 0 0 0-.1 0-.1 0 0 0zM29.6 24.5zM29.6 24.5c0-.1 0-.1 0 0 0-.1 0-.1 0 0 0-.1 0-.1 0 0v-.1.1c.1-.1 0-.1 0 0v-.1-.1-.1-.1-.1-.1-.1-.1-.1-.1-.1-.1-.1-.1.6c-.1.8-.1.8 0 .8h-.1.1c0 .1 0 .1 0 0 0 .1 0 .1 0 0 0 .1 0 .1 0 0 0 .1 0 .1 0 0 0 .1 0 .1 0 0 0 .1 0 .1 0 0 0 0 0 .1 0 0 0 .1 0 0 0 0zm.1-.2zm0 0s-.1 0 0 0zm-.1 0zM29.6 24.3zM30 22.7zM29.7 24zM30.1 22.6zM30.1 22.6zM30.1 22.5zM30 23.1zM30 22.9zM30 23.2zM30 22.9zM30.1 22.4h.1-.1zM30.1 22.4zM30.1 22.4zM30.1 22.4zM30.1 22.4zM30.1 22.5s-.1 0 0 0c-.1 0 0 0 0 0zM30 22.5zM30 22.8zM30 22.8zM29.9 22.8zM29.8 23.2zM29.8 23.4zM29.6 24z" class="st4"/></g></g><g><path d="M27 22.1c0-.2.1-.3.1-.5" class="st12"/></g><path d="M32.3 24.2l-1.2.1s-.3 0-.2-.2c0 0 .1-.2.4-.2 0 0 .2-.2-.3-.2 0 0-.5 0-.2-.3l.5-.3s.4-.2.8.1c0 0 .2.1.3.1l-.1.9zM31.3 27.3l-.8-.9s-.2-.2-.3 0c0 0-.1.2.2.4 0 0 .1.3-.3 0 0 0-.4-.4-.3.1l.2.6s.2.4.7.4c0 0 .2.1.3.2l.3-.8z" class="st30"/><g><path d="M34.7 32.7c3.2-2.2 4.5-5.8 3.9-9.5-.2-1-1.6-.5-1.4.4.5 3.1-.6 6.1-3.2 7.8-.9.6-.1 1.9.7 1.3z" class="st14"/></g><path fill="#fbb83b" d="M34 29.3s-1.4-.1-.6-2.5c0 0 .6-2 1.9-1.6 0 0-.2-.9-1.1-1l-2 .1-.2-1.1h3.2s.5 0 1 .7l1.3 1.6s.2 1-.2 2.6c0 0-.7 1.7-2.1 2.6 0 0-1.9.4-3.1-.2l-1.7-2.7.8-.6 1.4 2c.2 0 .4.5 1.4.1z"/><path d="M33.9 26.6s1-1.5 3.2-.5c0 0 1.2.5.3 2.5 0 0-.5 1.4-1.9 1-.1 0-2.1-1-1.6-3z" class="st30"/><path d="M34.6 29.2s-.7-.4-.5-1.4c0 0 0 .2.2.2 0 0-.2-.8.1-1.4 0 0-.1 0 0 .4 0 0 .2-.8.9-1.1 0 0-.2.2-.3.4 0 0 .5-.6 1.1-.6 0 0 2.1.4 1.4 2.7.1 0-.9 2.4-2.9.8z"/><path d="M35.4 29.6s1 .1 1.7-1.8c0 0 .4-.9-.1-1.7 0 0 1.5.9.2 2.9 0 0-.7 1-1.8.6z"/><g><path fill="#ff7bac" d="M31.6 23.8c0-.1 0-.2.1-.2s.1 0 .1.1 0 .1-.1.1c-.1.1-.1.1-.1 0z"/><path fill="#fcc792" d="M29.2 24.2l.1.3-.3-.1z"/><path fill="#f79822" d="M31.6 23.7l.1.3-2.4.6-.1-.3 2.4-.6z"/><path d="M29.1 24.4v.1l-.1-.1z"/></g><g><path fill="#ccc" d="M17.2 23.2h-.3c-.1 0-.2-.1-.2-.2s.1-.2.2-.2h.3c.1 0 .2.1.2.2s-.1.2-.2.2z"/><ellipse cx="17.9" cy="23" class="st2" rx=".8" ry=".9"/><circle cx="17.9" cy="23" r=".6" fill="#42210b"/><ellipse cx="18.2" cy="23" fill="#8c6239" rx=".1" ry=".2"/></g><g><path fill="#333" d="M28.9 17.2c.4.3.5.9.2 1.3l-.4.7c-.3.4-.8.5-1.2.3-.4-.3-.5-.9-.2-1.3l.4-.7c.3-.5.8-.6 1.2-.3z"/><path d="M28.7 17.5c.3.2.4.7.2 1l-.3.5c-.2.3-.7.4-1 .2-.3-.2-.4-.7-.2-1l.3-.5c.2-.3.7-.4 1-.2z" class="st6"/><circle cx="28.8" cy="17.4" r=".1" class="st2"/><path d="M28.3 19s.1.1 0 .2c0 .1-.1.1-.1 0 0 0-.1-.1 0-.2 0-.1 0-.1.1 0z" class="st23"/><path fill="#f15a24" d="M28 18.7s.1.1 0 .2c0 .1-.1.1-.1 0 0 0-.1-.1 0-.2h.1z"/><path d="M27.6 18.5s.1.1 0 .2c0 .1-.1.1-.1 0 0 0-.1-.1 0-.2 0-.1.1-.1.1 0z" class="st40"/><path fill="#009245" d="M28.6 18.5s.1.1 0 .2c0 .1-.1.1-.1 0 0 0-.1-.1 0-.2h.1z"/><path fill="#0071bc" d="M28.2 18.3s.1.1 0 .2c0 .1-.1.1-.1 0 0 0-.1-.1 0-.2h.1z"/><path fill="#662d91" d="M27.9 18.1s.1.1 0 .2c0 .1-.1.1-.1 0 0 0-.1-.1 0-.2 0-.1 0-.1.1 0z"/><path d="M28.8 18.1s.1.1 0 .2c0 .1-.1.1-.1 0 0 0-.1-.1 0-.2h.1z" class="st23"/><path fill="#f7931e" d="M28.5 17.9s.1.1 0 .2c0 .1-.1.1-.1 0 0 0-.1-.1 0-.2h.1z"/><path d="M28.2 17.6s.1.1 0 .2c0 .1-.1.1-.1 0 0 0-.1-.1 0-.2h.1z" class="st40"/></g><path d="M.5 24.5V.5h22M44.5 20.5v24h-22" class="st45"/></svg>