<?xml version="1.0" encoding="utf-8"?>
<!-- Generator: Adobe Illustrator 21.0.0, SVG Export Plug-In . SVG Version: 6.00 Build 0)  -->
<svg version="1.1" id="Layer_1" xmlns="http://www.w3.org/2000/svg" xmlns:xlink="http://www.w3.org/1999/xlink" x="0px" y="0px"
	 viewBox="0 0 200 50" style="enable-background:new 0 0 200 50;" xml:space="preserve">
<style type="text/css">
	.st0{fill:#231F20;}
	.st1{fill:#CE3843;}
</style>
<g>
	<path class="st0" d="M56.7,41.1c-0.3,0-0.5,0.1-0.7,0.2c-0.1,0.1-0.3,0.2-0.3,0.4c-0.1,0.2-0.2,0.5-0.3,1l-1.8,6.8h-0.9l-2.2-6.3
		l-2,6.3h-0.9l-2-7c-0.1-0.4-0.2-0.7-0.3-0.9c-0.1-0.2-0.2-0.3-0.3-0.4c-0.1-0.1-0.3-0.1-0.6-0.1v-0.6h3.7v0.6c-0.3,0-0.5,0-0.6,0.1
		s-0.2,0.2-0.2,0.4c0,0.1,0,0.4,0.1,0.7l1.2,4.4l2-6.1h0.8l2.1,6.1l1.1-4.1c0.1-0.3,0.1-0.5,0.1-0.7c0-0.3-0.1-0.5-0.3-0.6
		c-0.2-0.1-0.4-0.1-0.7-0.1v-0.6h2.9V41.1z"/>
	<path class="st0" d="M61.5,49.3h-4.3v-0.6c0.4,0,0.6,0,0.8-0.1c0.2-0.1,0.3-0.2,0.4-0.3c0.1-0.1,0.1-0.3,0.1-0.6v-5.5
		c0-0.4-0.1-0.6-0.2-0.8c-0.2-0.2-0.5-0.2-1-0.2v-0.6h4.3v0.6c-0.4,0-0.6,0-0.8,0.1c-0.2,0.1-0.3,0.2-0.4,0.3
		c-0.1,0.1-0.1,0.3-0.1,0.6v5.5c0,0.3,0,0.4,0.1,0.6c0.1,0.1,0.2,0.3,0.3,0.3c0.2,0.1,0.5,0.1,0.8,0.1V49.3z"/>
	<path class="st0" d="M70.5,43h-0.6c-0.1-0.5-0.2-0.9-0.3-1.2c-0.2-0.3-0.4-0.4-0.6-0.5c-0.2-0.1-0.4-0.1-0.7-0.1h-1.1v6.4
		c0,0.3,0,0.5,0.1,0.6c0.1,0.1,0.2,0.2,0.4,0.3c0.2,0.1,0.5,0.1,0.8,0.1v0.6h-4.3v-0.6c0.5,0,0.9-0.1,1-0.2c0.2-0.2,0.2-0.4,0.2-0.8
		v-6.4h-0.9c-0.4,0-0.7,0-0.9,0.1c-0.2,0.1-0.4,0.2-0.6,0.5c-0.2,0.3-0.3,0.7-0.3,1.2h-0.6v-2.5h8.4V43z"/>
	<path class="st0" d="M81.1,49.3h-4.2v-0.6c0.3,0,0.6,0,0.8-0.1c0.2-0.1,0.3-0.2,0.3-0.3c0.1-0.1,0.1-0.3,0.1-0.6V45h-3.9v2.6
		c0,0.4,0.1,0.6,0.2,0.8c0.1,0.2,0.5,0.2,1,0.2v0.6h-4.2v-0.6c0.3,0,0.6,0,0.8-0.1c0.2-0.1,0.3-0.2,0.3-0.3c0.1-0.1,0.1-0.3,0.1-0.6
		v-5.5c0-0.2,0-0.4-0.1-0.6c-0.1-0.1-0.2-0.3-0.3-0.3c-0.2-0.1-0.4-0.1-0.8-0.1v-0.6h4.2v0.6c-0.5,0-0.9,0.1-1,0.2
		c-0.1,0.2-0.2,0.4-0.2,0.8v2.2h3.9v-2.2c0-0.2,0-0.4-0.1-0.6c0-0.1-0.2-0.3-0.3-0.3c-0.2-0.1-0.4-0.1-0.8-0.1v-0.6h4.2v0.6
		c-0.4,0-0.6,0-0.8,0.1c-0.2,0.1-0.3,0.2-0.3,0.3c0,0.1-0.1,0.3-0.1,0.6v5.5c0,0.2,0,0.4,0.1,0.6s0.2,0.3,0.3,0.3
		c0.2,0.1,0.4,0.1,0.8,0.1V49.3z"/>
	<path class="st0" d="M91.5,44.9c0,0.8-0.2,1.5-0.6,2.2c-0.4,0.7-0.9,1.3-1.6,1.7c-0.7,0.4-1.6,0.6-2.6,0.6c-0.8,0-1.5-0.1-2.1-0.4
		c-0.6-0.3-1.1-0.6-1.5-1.1c-0.4-0.4-0.7-0.9-0.9-1.5C82.1,46,82,45.4,82,44.9c0-0.8,0.2-1.5,0.5-2.2c0.4-0.7,0.9-1.3,1.6-1.7
		c0.7-0.4,1.6-0.6,2.6-0.6c0.9,0,1.7,0.2,2.3,0.5s1.1,0.7,1.5,1.2c0.4,0.5,0.6,1,0.8,1.5C91.4,44,91.5,44.4,91.5,44.9z M89.5,44.9
		c0-0.5,0-1-0.1-1.4c-0.1-0.4-0.2-0.8-0.4-1.2c-0.2-0.4-0.5-0.6-0.8-0.8c-0.4-0.2-0.8-0.3-1.3-0.3c-0.7,0-1.3,0.2-1.7,0.6
		c-0.4,0.4-0.7,0.8-0.8,1.4c-0.1,0.6-0.2,1.2-0.2,1.8c0,0.4,0,0.7,0.1,1.1c0,0.4,0.2,0.8,0.3,1.2c0.2,0.4,0.5,0.8,0.8,1
		c0.4,0.3,0.9,0.4,1.5,0.4c0.6,0,1.1-0.1,1.5-0.4c0.4-0.3,0.7-0.6,0.8-1.1c0.2-0.4,0.3-0.8,0.3-1.2C89.4,45.6,89.5,45.2,89.5,44.9z"
		/>
	<path class="st0" d="M101.5,41.1c-0.4,0-0.7,0-0.8,0.1c-0.2,0.1-0.3,0.2-0.3,0.4c0,0.2-0.1,0.4-0.1,0.8v3.2c0,0.6,0,1-0.1,1.3
		c0,0.3-0.1,0.6-0.3,0.9c-0.3,0.6-0.8,1-1.3,1.2c-0.6,0.2-1.1,0.3-1.6,0.3c-0.4,0-0.8-0.1-1.2-0.2c-0.4-0.1-0.8-0.3-1.2-0.5
		c-0.4-0.2-0.6-0.6-0.8-1c-0.1-0.2-0.2-0.4-0.2-0.7c-0.1-0.2-0.1-0.4-0.1-0.6c0-0.2,0-0.4,0-0.8l0-3.7c0-0.4-0.1-0.6-0.2-0.8
		c-0.1-0.2-0.5-0.2-1-0.2v-0.6h4.3v0.6c-0.4,0-0.6,0-0.8,0.1c-0.2,0.1-0.3,0.2-0.4,0.3c-0.1,0.1-0.1,0.3-0.1,0.6v3.7
		c0,0.4,0,0.7,0.1,1c0,0.3,0.1,0.5,0.2,0.7c0.1,0.4,0.4,0.6,0.7,0.8c0.3,0.2,0.7,0.3,1.1,0.3c0.4,0,0.8-0.1,1.2-0.3
		c0.4-0.2,0.6-0.5,0.8-0.9c0.1-0.3,0.2-0.6,0.2-0.9c0-0.3,0.1-0.6,0.1-1.1v-3.2c0-0.3,0-0.5,0-0.6c0-0.1-0.1-0.3-0.1-0.4
		c-0.1-0.1-0.2-0.2-0.4-0.2c-0.2,0-0.4-0.1-0.7-0.1v-0.6h3.1V41.1z"/>
	<path class="st0" d="M110.5,43h-0.6c-0.1-0.5-0.2-0.9-0.3-1.2c-0.2-0.3-0.4-0.4-0.6-0.5c-0.2-0.1-0.4-0.1-0.7-0.1h-1.1v6.4
		c0,0.3,0,0.5,0.1,0.6c0.1,0.1,0.2,0.2,0.4,0.3c0.2,0.1,0.5,0.1,0.8,0.1v0.6h-4.3v-0.6c0.5,0,0.9-0.1,1-0.2c0.2-0.2,0.2-0.4,0.2-0.8
		v-6.4h-0.9c-0.4,0-0.7,0-0.9,0.1c-0.2,0.1-0.4,0.2-0.6,0.5s-0.3,0.7-0.3,1.2h-0.6v-2.5h8.4V43z"/>
	<path class="st0" d="M122,47c0,0.5-0.1,0.9-0.4,1.2c-0.2,0.3-0.5,0.6-0.9,0.7c-0.4,0.2-0.7,0.3-1.1,0.3c-0.4,0.1-0.7,0.1-1,0.1
		h-4.3v-0.6c0.4,0,0.6,0,0.8-0.1c0.2-0.1,0.3-0.2,0.3-0.3c0.1-0.1,0.1-0.3,0.1-0.6v-5.6c0-0.4-0.1-0.7-0.2-0.8
		c-0.2-0.2-0.5-0.2-1-0.2v-0.6c0.6,0,1.2,0,1.7,0s1,0,1.4,0c0.4,0,0.6,0,0.7,0h0.2c0.4,0,0.9,0,1.4,0.1c0.5,0.1,0.9,0.3,1.3,0.6
		c0.4,0.3,0.6,0.8,0.6,1.4c0,0.5-0.2,0.9-0.5,1.2c-0.3,0.3-0.8,0.6-1.6,0.8c0.5,0.1,0.9,0.2,1.3,0.5c0.4,0.2,0.6,0.5,0.8,0.8
		C121.9,46.2,122,46.6,122,47z M119.8,42.6c0-0.3-0.1-0.6-0.2-0.8s-0.3-0.4-0.6-0.5s-0.6-0.2-1-0.2h-0.7v3.2h0.5
		c0.7,0,1.2-0.1,1.5-0.4C119.7,43.5,119.8,43.1,119.8,42.6z M120.1,46.9c0-0.6-0.1-1.1-0.4-1.4c-0.3-0.3-0.7-0.5-1.3-0.5h-1v2.1v0.2
		c0,0.3,0,0.6,0.1,0.7c0,0.2,0.1,0.3,0.3,0.4c0.2,0.1,0.4,0.1,0.7,0.1c0.4,0,0.8-0.1,1.2-0.4C119.9,47.9,120.1,47.5,120.1,46.9z"/>
	<path class="st0" d="M132.5,44.9c0,0.8-0.2,1.5-0.6,2.2c-0.4,0.7-0.9,1.3-1.6,1.7c-0.7,0.4-1.6,0.6-2.6,0.6c-0.8,0-1.5-0.1-2.1-0.4
		c-0.6-0.3-1.1-0.6-1.5-1.1c-0.4-0.4-0.7-0.9-0.9-1.5c-0.2-0.5-0.3-1.1-0.3-1.6c0-0.8,0.2-1.5,0.5-2.2c0.4-0.7,0.9-1.3,1.6-1.7
		c0.7-0.4,1.6-0.6,2.6-0.6c0.9,0,1.7,0.2,2.3,0.5s1.1,0.7,1.5,1.2c0.4,0.5,0.6,1,0.8,1.5S132.5,44.4,132.5,44.9z M130.5,44.9
		c0-0.5,0-1-0.1-1.4c-0.1-0.4-0.2-0.8-0.4-1.2c-0.2-0.4-0.5-0.6-0.8-0.8c-0.4-0.2-0.8-0.3-1.3-0.3c-0.7,0-1.3,0.2-1.7,0.6
		c-0.4,0.4-0.7,0.8-0.8,1.4c-0.1,0.6-0.2,1.2-0.2,1.8c0,0.4,0,0.7,0.1,1.1c0,0.4,0.2,0.8,0.3,1.2c0.2,0.4,0.5,0.8,0.8,1
		c0.4,0.3,0.9,0.4,1.5,0.4c0.6,0,1.1-0.1,1.5-0.4c0.4-0.3,0.7-0.6,0.8-1.1c0.2-0.4,0.3-0.8,0.3-1.2
		C130.5,45.6,130.5,45.2,130.5,44.9z"/>
	<path class="st0" d="M142.6,41.1c-0.4,0-0.7,0-0.8,0.1c-0.2,0.1-0.3,0.2-0.3,0.4c0,0.2-0.1,0.4-0.1,0.8v3.2c0,0.6,0,1-0.1,1.3
		c0,0.3-0.1,0.6-0.3,0.9c-0.3,0.6-0.8,1-1.3,1.2c-0.6,0.2-1.1,0.3-1.6,0.3c-0.4,0-0.8-0.1-1.2-0.2c-0.4-0.1-0.8-0.3-1.2-0.5
		c-0.4-0.2-0.6-0.6-0.8-1c-0.1-0.2-0.2-0.4-0.2-0.7c-0.1-0.2-0.1-0.4-0.1-0.6c0-0.2,0-0.4,0-0.8l0-3.7c0-0.4-0.1-0.6-0.2-0.8
		c-0.1-0.2-0.5-0.2-1-0.2v-0.6h4.3v0.6c-0.4,0-0.6,0-0.8,0.1c-0.2,0.1-0.3,0.2-0.4,0.3c-0.1,0.1-0.1,0.3-0.1,0.6v3.7
		c0,0.4,0,0.7,0.1,1c0,0.3,0.1,0.5,0.2,0.7c0.1,0.4,0.4,0.6,0.7,0.8c0.3,0.2,0.7,0.3,1.1,0.3c0.4,0,0.8-0.1,1.2-0.3
		c0.4-0.2,0.6-0.5,0.8-0.9c0.1-0.3,0.2-0.6,0.2-0.9c0-0.3,0.1-0.6,0.1-1.1v-3.2c0-0.3,0-0.5,0-0.6c0-0.1-0.1-0.3-0.1-0.4
		c-0.1-0.1-0.2-0.2-0.4-0.2c-0.2,0-0.4-0.1-0.7-0.1v-0.6h3.1V41.1z"/>
	<path class="st0" d="M152.3,41.1c-0.4,0-0.7,0-0.9,0.1s-0.3,0.2-0.3,0.4s-0.1,0.4-0.1,0.8v7h-0.6l-5.6-6.8v4.8c0,0.4,0,0.6,0.1,0.8
		c0,0.2,0.2,0.3,0.3,0.4c0.2,0.1,0.5,0.1,0.9,0.1v0.6H143v-0.6c0.4,0,0.6,0,0.8-0.1c0.2-0.1,0.3-0.2,0.3-0.4c0-0.2,0.1-0.4,0.1-0.8
		v-4.5c0-0.4,0-0.6,0-0.8c0-0.2-0.1-0.3-0.1-0.5c-0.1-0.1-0.2-0.2-0.3-0.3c-0.2-0.1-0.4-0.1-0.7-0.2v-0.6h2.5l4.8,5.9v-4
		c0-0.3,0-0.6-0.1-0.8c0-0.2-0.2-0.3-0.3-0.4c-0.2-0.1-0.4-0.1-0.8-0.1v-0.6h3.2V41.1z"/>
	<path class="st0" d="M161.8,45c0,0.6-0.1,1.2-0.3,1.7c-0.2,0.5-0.5,0.9-0.8,1.3c-0.3,0.3-0.7,0.6-1.1,0.8c-0.8,0.4-1.8,0.5-2.9,0.5
		h-3.9v-0.6c0.4,0,0.6,0,0.8-0.1c0.2-0.1,0.3-0.2,0.4-0.3c0.1-0.1,0.1-0.3,0.1-0.6v-5.6c0-0.4-0.1-0.6-0.2-0.8
		c-0.2-0.2-0.5-0.2-1-0.2v-0.6l1.8,0c0.1,0,0.3,0,0.8,0s0.7,0,0.8,0c0.7,0,1.3,0,1.8,0.1c0.5,0.1,0.9,0.2,1.3,0.4
		c0.4,0.2,0.7,0.4,1,0.7c0.3,0.3,0.6,0.6,0.8,1c0.2,0.4,0.4,0.7,0.5,1.2C161.8,44.1,161.8,44.5,161.8,45z M159.8,44.9
		c0-0.9-0.2-1.7-0.5-2.3c-0.3-0.6-0.8-1-1.4-1.3c-0.3-0.1-0.5-0.2-0.8-0.2c-0.3,0-0.7,0-1.2,0v6.2c0,0.4,0,0.6,0.1,0.8
		c0,0.2,0.1,0.3,0.3,0.4c0.2,0.1,0.4,0.1,0.8,0.1c1,0,1.7-0.4,2.2-1.1C159.6,46.7,159.8,45.9,159.8,44.9z"/>
	<path class="st0" d="M170.3,49.3h-4v-0.6c0.3,0,0.6,0,0.7-0.1c0.2,0,0.2-0.2,0.2-0.4c0-0.1,0-0.3-0.1-0.4l-0.4-1h-2.8l-0.2,0.6
		c-0.1,0.3-0.2,0.6-0.2,0.7c0,0.3,0.1,0.4,0.3,0.5c0.2,0.1,0.4,0.1,0.7,0.1v0.6h-2.9v-0.6c0.2,0,0.4,0,0.6-0.1
		c0.2-0.1,0.3-0.3,0.5-0.5c0.1-0.3,0.3-0.6,0.5-1.1l2.5-6.6h0.6l2.6,6.8c0.2,0.5,0.3,0.8,0.4,1c0.1,0.2,0.2,0.3,0.4,0.4
		c0.2,0.1,0.4,0.1,0.7,0.1V49.3z M166.6,46.2l-1.2-3.1l-1.1,3.1H166.6z"/>
	<path class="st0" d="M180,49.3h-2.3c-0.1-0.1-0.2-0.2-0.3-0.4s-0.3-0.4-0.4-0.6c-0.1-0.2-0.3-0.4-0.4-0.6l-0.6-1
		c-0.3-0.4-0.5-0.7-0.6-0.9c-0.1-0.2-0.3-0.3-0.5-0.3c-0.2,0-0.5-0.1-0.9-0.1h-0.3v2.3c0,0.2,0,0.4,0.1,0.6c0.1,0.1,0.2,0.3,0.4,0.3
		c0.2,0.1,0.5,0.1,0.8,0.1v0.6h-4.3v-0.6c0.5,0,0.9-0.1,1-0.2c0.1-0.2,0.2-0.4,0.2-0.8v-5.6c0-0.4-0.1-0.6-0.2-0.8
		c-0.1-0.2-0.5-0.2-1-0.2v-0.6l2-0.1c0.2,0,0.3,0,0.5,0c0.2,0,0.4,0,0.5,0c0.1,0,0.3,0,0.6,0c0.4,0,0.8,0,1.2,0.1
		c0.4,0,0.7,0.1,0.9,0.1c0.3,0.1,0.6,0.2,0.9,0.4s0.5,0.4,0.7,0.8s0.3,0.7,0.3,1.1c0,0.3-0.1,0.6-0.2,0.9c-0.1,0.3-0.3,0.5-0.6,0.7
		c-0.3,0.2-0.6,0.4-1.1,0.5c0.3,0.2,0.6,0.4,0.8,0.7c0.2,0.3,0.5,0.8,1,1.5c0.3,0.4,0.5,0.7,0.7,1c0.2,0.2,0.3,0.4,0.5,0.4
		c0.1,0.1,0.3,0.1,0.5,0.1V49.3z M176.4,42.8c0-0.7-0.2-1.2-0.6-1.4c-0.4-0.2-1-0.3-1.6-0.3c-0.1,0-0.2,0-0.2,0c-0.1,0-0.1,0-0.2,0
		v3.5h0.4c0.6,0,1.2-0.1,1.6-0.3C176.2,44.1,176.4,43.6,176.4,42.8z"/>
	<path class="st0" d="M184.5,49.3h-4.3v-0.6c0.4,0,0.6,0,0.8-0.1c0.2-0.1,0.3-0.2,0.4-0.3c0.1-0.1,0.1-0.3,0.1-0.6v-5.5
		c0-0.4-0.1-0.6-0.2-0.8c-0.2-0.2-0.5-0.2-1-0.2v-0.6h4.3v0.6c-0.4,0-0.6,0-0.8,0.1c-0.2,0.1-0.3,0.2-0.4,0.3
		c-0.1,0.1-0.1,0.3-0.1,0.6v5.5c0,0.3,0,0.4,0.1,0.6c0.1,0.1,0.2,0.3,0.3,0.3c0.2,0.1,0.5,0.1,0.8,0.1V49.3z"/>
	<path class="st0" d="M192.7,46.4l-0.1,2.9h-7.6v-0.6c0.5,0,0.9-0.1,1-0.2c0.2-0.2,0.2-0.4,0.2-0.8v-5.5c0-0.3,0-0.4-0.1-0.6
		c0-0.1-0.2-0.3-0.3-0.3c-0.2-0.1-0.5-0.1-0.8-0.1v-0.6h7.1l0.1,2.3h-0.6c-0.1-0.5-0.3-0.9-0.4-1.1c-0.2-0.2-0.4-0.4-0.6-0.4
		c-0.2,0-0.5-0.1-0.9-0.1h-1.6v3.1h0.9c0.3,0,0.5,0,0.7-0.1c0.1-0.1,0.2-0.2,0.3-0.3c0.1-0.2,0.1-0.4,0.1-0.7h0.6v2.9h-0.6
		c0-0.3-0.1-0.6-0.1-0.7c-0.1-0.2-0.2-0.3-0.3-0.3c-0.1-0.1-0.4-0.1-0.7-0.1h-0.9v2.1c0,0.3,0,0.6,0,0.8c0,0.2,0.1,0.3,0.1,0.4
		c0.1,0.1,0.2,0.2,0.4,0.2c0.2,0,0.4,0.1,0.7,0.1h0.7c0.3,0,0.6,0,0.8-0.1c0.3-0.1,0.5-0.3,0.8-0.6c0.3-0.3,0.4-0.8,0.5-1.5H192.7z"
		/>
	<path class="st0" d="M200,46.8c0,0.3-0.1,0.6-0.2,0.9c-0.1,0.3-0.3,0.6-0.5,0.9c-0.2,0.3-0.5,0.5-0.9,0.7c-0.3,0.2-0.7,0.3-1.2,0.3
		c-0.5,0-0.9-0.1-1.3-0.3c-0.4-0.2-0.8-0.5-1.1-0.9c-0.1,0.3-0.2,0.6-0.3,0.9h-0.6v-3h0.6c0.1,0.4,0.2,0.8,0.4,1.2s0.4,0.7,0.8,1
		c0.3,0.3,0.7,0.4,1.2,0.4c0.4,0,0.8-0.1,1-0.4c0.3-0.2,0.4-0.5,0.4-0.9c0-0.2,0-0.4-0.1-0.5c-0.1-0.2-0.2-0.3-0.3-0.4
		c-0.2-0.1-0.4-0.3-0.6-0.4c-0.3-0.1-0.6-0.3-0.9-0.4c-0.5-0.3-0.9-0.5-1.3-0.8c-0.3-0.3-0.6-0.5-0.7-0.7c-0.2-0.2-0.3-0.5-0.4-0.7
		c-0.1-0.2-0.1-0.4-0.1-0.7c0-0.4,0.1-0.8,0.3-1.2c0.2-0.4,0.5-0.7,0.9-0.9c0.4-0.2,0.9-0.4,1.4-0.4c0.4,0,0.8,0.1,1.1,0.3
		c0.4,0.2,0.7,0.4,0.9,0.8c0.1-0.2,0.1-0.4,0.2-0.8h0.6v2.5h-0.6c-0.4-1.3-1.1-2-2.2-2c-0.4,0-0.7,0.1-0.9,0.3
		c-0.2,0.2-0.3,0.5-0.3,0.8c0,0.3,0.1,0.5,0.2,0.7c0.1,0.2,0.3,0.3,0.6,0.5c0.2,0.1,0.6,0.3,1.1,0.6c0.6,0.3,1.1,0.6,1.5,0.8
		c0.4,0.2,0.7,0.5,0.9,0.8C199.9,45.9,200,46.3,200,46.8z"/>
</g>
<path class="st1" d="M200,25.3l-0.4,11.8h-43.3v-2.4c3,0,4.9-0.3,5.8-1c0.9-0.6,1.3-1.7,1.3-3.3V7.9c0-1-0.1-1.8-0.4-2.4
	c-0.3-0.6-0.9-1-1.9-1.4c-1-0.3-2.6-0.5-4.7-0.5V1.2h40.3l0.6,9.3H194c-0.7-2.1-1.6-3.5-2.6-4.4c-1-0.9-2.1-1.4-3.3-1.6
	c-1.2-0.2-3-0.3-5.4-0.3h-9.1v12.7h4.9c1.7,0,3-0.1,3.8-0.3c0.8-0.2,1.4-0.6,1.8-1.3c0.3-0.6,0.6-1.6,0.7-2.9h3.4v12H185
	c-0.1-1.3-0.3-2.3-0.7-2.9c-0.4-0.6-1-1-1.8-1.3c-0.8-0.2-2.1-0.3-3.8-0.3h-5v8.5c0,1.4,0,2.4,0.1,3.1c0.1,0.7,0.4,1.2,0.8,1.6
	c0.4,0.4,1.1,0.7,2,0.9c0.9,0.2,2.3,0.3,4,0.3h3.9c1.6,0,3.2-0.2,4.7-0.5c1.5-0.3,3-1.1,4.4-2.4c1.4-1.3,2.4-3.3,3-6H200z"/>
<path class="st1" d="M153.5,3.7c-1.2,0-2.2,0.1-3,0.3c-0.9,0.2-1.6,0.5-2.1,1c-0.6,0.4-1.1,1.1-1.7,1.8c-0.6,0.8-1.3,2-2.3,3.6
	l-15.9,27.3h-3.4L108.5,9.2c-1-1.8-1.8-3-2.4-3.7c-0.6-0.7-1.3-1.1-2.3-1.4c-1-0.3-2.4-0.4-4.3-0.4V1.3h24.9v2.4
	c-2.4,0.1-4,0.2-4.9,0.4c-0.9,0.2-1.4,0.7-1.4,1.6c0,0.8,0.3,1.6,0.9,2.5l11.3,19.2l10.4-17.9c0.9-1.6,1.3-2.6,1.3-3.2
	c0-1.1-0.5-1.9-1.6-2.1c-1.1-0.3-2.7-0.4-4.9-0.5V1.3h18.1V3.7z"/>
<path class="st1" d="M97.8,13.2c-0.9-2.1-2.3-4.1-4.4-6c-2-1.9-4.9-3.5-8.6-4.8c-3.7-1.3-8.1-1.9-13.3-1.9c-5.7,0-10.6,0.9-14.8,2.6
	c-4.1,1.7-7.2,4-9.2,6.9c-2,2.9-3.1,5.9-3.1,9.1c0,2.2,0.5,4.4,1.6,6.6c1.1,2.2,2.7,4.2,4.9,6.1c2.2,1.8,5.1,3.3,8.6,4.4
	c3.5,1.1,7.6,1.6,12.2,1.6c5.7,0,10.6-0.9,14.7-2.6c4.1-1.7,7.3-4,9.4-6.9c2.1-2.9,3.2-5.9,3.2-9.2C99.1,17.3,98.7,15.3,97.8,13.2z
	 M71.9,33.6c-7.9,0-14.4-6.4-14.4-14.4S64,4.8,71.9,4.8c2.5,0,4.9,0.6,6.9,1.8c-0.3,0-0.5,0-0.7,0.1c-0.1,0-0.2,0.2-0.3,0.3
	c-0.4,0.2-0.9,0.1-1.3,0.2c-0.1,0-0.3-0.1-0.4-0.1c-0.1-0.1-0.3-0.1-0.5-0.1c-0.1,0-0.3,0.2-0.2,0.4c0.1,0.1,0.2,0.1,0.2,0.2
	c0.1,0.1,0,0.2-0.2,0.1c-0.3-0.1-0.5-0.2-0.8-0.2c-0.1,0-0.3,0.1-0.5,0.1c-0.5,0.2-1.5,0-2.1,0.3c-0.1,0.1-0.3,0.1-0.4,0
	c0-0.1-0.3,0-0.4,0.1c-0.4,0.4-0.8,0.5-1.3,0.5c-0.1,0-0.3,0-0.4-0.1c-0.1-0.1,0-0.2,0.2-0.2c0.2,0,0.5,0,0.7-0.1
	c0.1-0.1,0.1-0.2-0.1-0.2c-0.7-0.2-1.4-0.4-2.1-0.4c-1.7,0-2.6,1.3-3.8,2c-0.1,0.1-0.2,0.2-0.2,0.4c0,0.1,0,0.1,0,0.2
	c0,0.1,0.2,0.3,0.4,0.2c0.2-0.1,0.2-0.2,0.4-0.3c0.1-0.1,0.2,0.1,0.3,0.3c0,0,0.1,0.1,0.1,0.1c0.1,0.1-0.1,0.2-0.1,0.3
	c0,0-0.1,0.1-0.2,0c-0.3,0,0.2-0.3-0.2-0.3c-0.3,0.1-0.2,0.3-0.2,0.5c0,0.1-0.2,0.3-0.3,0.3c-0.8,0.3-1,1.1-1.9,1.3
	c-0.1,0-0.2,0.1,0,0.2c0.5,0.5,0.2,1.3-0.8,1.2c-0.1,0-0.3,0.1-0.3,0.2c-0.1,0.3-0.2,0.7-0.2,1c0,0.1,0.2,0.2,0.3,0.3c0,0,0,0,0.1,0
	c0.1,0.1,0.1,0.3,0,0.5c-0.6,1-1.3,1.8-1.7,3c-0.1,0.1,0,0.3,0,0.5c0.2,0.5-0.2,1.1,0,1.7c0.1,0.2,0.4,0.4,0.6,0.7
	c0.7,1.3,1.5,1.4,2.9,1.1c0.1,0,0.3,0,0.4,0.1c0.3,0.3,0.8,0.3,1.1,0.6c0.1,0.1,0.1,0.3,0.1,0.5c0,0.1,0,0.3,0,0.5
	c0,0.1,0.1,0.3,0.2,0.5c0.5,0.5,0.9,1,1.1,1.8c0,0.1,0,0.4,0,0.5c-0.4,1.4,1,2.5,1.5,3.7c0.1,0.1,0.2,0.3,0.3,0.3
	c1.1,0.1,2.3-0.2,2.6-1.1c0.1-0.1,0.2-0.2,0.3-0.3c0.1,0,0.2-0.2,0.2-0.4c0-0.1,0-0.2,0-0.3c0-0.1,0-0.3,0.2-0.4
	c0.3-0.2,0.7-0.3,1-0.5c0.1-0.1,0.2-0.3,0.2-0.4c-0.1-0.7-0.5-1.1-0.4-1.7c0.2-1,1.8-1.3,2.5-2.2c0.3-0.4,0.5-0.9,0.6-1.4
	c0-0.1,0-0.2-0.2-0.2c-0.5,0.1-1,0.3-1.5,0.3c-0.1,0-0.3-0.2-0.3-0.3c-0.2-0.5-0.9-0.8-1.3-1.3c-0.2-0.2-0.3-0.5-0.5-0.8
	c-0.1-0.1-0.2-0.3-0.2-0.5c0-0.1-0.1-0.3-0.2-0.4c-0.3-0.3-0.5-0.8-0.7-1.3c-0.1-0.1,0-0.3,0.1-0.2c0.6,0.1,1,0.9,1.2,1.6
	c0.1,0.1,0.2,0.3,0.3,0.4c0.6,0.5,0.9,1,1.1,1.9c0,0.1,0.2,0.2,0.3,0.2c1.7-0.5,3.2-1,3.9-2.4c0.1-0.1,0.1-0.4-0.1-0.5
	c-0.2-0.1-0.5-0.2-0.6-0.3c-0.1-0.1-0.2-0.2-0.3-0.1c-0.2,0.1-0.4,0.2-0.7,0.3c-0.1,0-0.3-0.1-0.4-0.2c-0.3-0.4-0.8-0.6-1-1.1
	c-0.1-0.1,0-0.3,0-0.3c0-0.1,0.1-0.1,0.3-0.1c0.8,0.2,0.9,1.2,1.9,0.9c0.1,0,0.3,0,0.4,0.1c0.4,0.3,1.3,0.3,2,0.2
	c0.1,0,0.4,0,0.5,0.1c0.4,0.3,0.6,1.2,1.2,1c0.1,0,0.2,0,0.3,0.2c0.1,1.1,0.5,1.8,0.8,2.6c0.1,0.1,0.2,0.2,0.3,0.1
	c0.4-0.2,0.5-0.8,0.5-1.4c0-0.1,0.1-0.3,0.2-0.4c0.4-0.3,0.8-0.8,1.1-1.2c0.1-0.1,0.3-0.2,0.4-0.2c0.1,0,0.2-0.1,0.3-0.2
	c0.1-0.1,0.2,0,0.3,0.2c0.1,0.4,0.5,0.5,0.5,1c0,0.1,0.1,0.3,0.2,0.2c0,0,0.1-0.1,0.1-0.1c0.1-0.1,0.3,0.1,0.3,0.3
	c0.1,0.3,0.1,0.7,0.1,1C84.9,28.4,79,33.6,71.9,33.6z M74.3,14c-0.3-0.2-0.6-0.4-0.7-0.8c0-0.1,0-0.4,0.1-0.5
	c0.2-0.2,0.5-0.3,0.9-0.3c0.1,0,0.2,0.1,0.3,0.1c0,0.1,0.1,0.3-0.1,0.3c-0.1,0-0.4,0-0.3,0.2c0.1,0.4,0.4,0.6,0.8,0.8
	c0.1,0.1,0.3,0.3,0.2,0.3c-0.1,0.1-0.1,0.2,0,0.4c0.1,0.1,0.2,0.3,0.2,0.5c0,0.1-0.1,0.3-0.3,0.3c-0.3,0-0.5-0.1-0.8-0.2
	c-0.1-0.1-0.3-0.2-0.3-0.4c0-0.1,0-0.2,0-0.3C74.4,14.4,74.4,14.1,74.3,14z M65,15.7c0-0.1-0.1-0.3-0.3-0.3
	c-0.9-0.1-1.8,0.6-2.4,0.5c-0.3,0-0.4-0.1-0.2-0.2c0.6-0.3,1.1-0.9,1.5-1.5c0.1-0.1,0.2-0.2,0.4-0.2c0.3,0,0.4-0.1,0.6-0.2
	c0.1-0.1,0.3-0.1,0.4,0c0.4,0.4,1,0.5,1.2,1.1c0,0.1,0.2,0.3,0.2,0.1c0-0.1,0-0.2,0-0.3c0-0.1,0.1-0.2,0-0.3
	c-0.3-0.2-0.7-0.4-0.8-0.8c0-0.1,0.1-0.2,0.2-0.2c0.4,0.2,0.7,0.5,1,0.7c0.1,0.1,0.2,0.2,0.2,0.4c0,0.3,0.3,0.5,0.4,0.8
	c0.1,0.1,0.2,0.3,0.3,0.2c0.1,0,0.1-0.1,0.1-0.2c0.1-0.1,0.2-0.2,0.1-0.3c0,0-0.1-0.1-0.1-0.1c-0.1-0.1,0-0.3,0.1-0.4
	c0.1-0.1,0.1-0.1,0.2-0.1c0.1,0,0.3,0.1,0.3,0.3c0.2,1.1,1.3,1,2.2,0.8c0.1,0,0.3,0.1,0.3,0.2c0.1,1.3-0.3,1.5-1.6,1.4
	c-0.7-0.1-1.3-0.5-1.8-0.5c-0.1,0-0.4,0.1-0.4,0.2c0,0.1,0,0.1,0,0.2c0,0.1-0.2,0.2-0.3,0.2c-0.6-0.2-1-0.5-1.5-0.7
	C65,16.3,65,16.2,65,16C65,15.9,65.1,15.8,65,15.7z M66.7,9.6c0-0.1,0-0.3,0.1-0.4c0.3-0.2,0.5-0.5,0.9-0.7c0.1,0,0.3,0.1,0.2,0.2
	c-0.1,0.1-0.2,0.1-0.3,0.2c-0.1,0.1-0.2,0.2-0.2,0.4c0,0,0,0.1,0,0.1c0,0.1,0.1,0.3,0.3,0.3c0.3,0,0.5-0.2,0.8-0.2
	c0.1,0,0.2,0.2,0.1,0.2c-0.1,0.1-0.3,0.1-0.5,0.1c-0.1,0-0.4,0.1-0.3,0.2c0,0,0,0,0.1,0.1c0.1,0.1-0.2,0.1-0.3,0.1
	c-0.3,0-0.3,0.3-0.4,0.6c-0.1,0.1-0.3,0.2-0.4,0.2c-0.4,0-0.7,0.2-1.2,0.2c-0.1,0-0.2-0.1,0-0.2C66.1,10.6,66.9,10.2,66.7,9.6z
	 M69,14.2c-0.1,0.1-0.2,0-0.2-0.1c0.1-0.4,0.2-1,0.6-1.3c0.1-0.1,0.6-0.1,0.7,0c0.1,0.1-0.3,0.3-0.2,0.5c0.2,0.2,0.5,0.1,0.6-0.1
	c0,0,0.5-0.1-0.1-0.3c-0.5-0.1,0.1-0.3,0.2-0.4c0.2-0.1,0.4,0,0.4,0.2c0,0.1-0.3,0.3,0.1,0.4c0.4,0.1,0.8,0.2,1,0.6
	c0.1,0.1,0,0.3-0.2,0.3C71,14.2,70,13.7,69,14.2z"/>
<path class="st1" d="M37.4,33.4c-0.4,3.7-1.5,6.4-3.2,8.2c-1.7,1.8-3.6,2.9-5.7,3.3c-2,0.4-4.4,0.6-7.1,0.6c-2.1,0-3.7-0.2-4.6-0.7
	c-0.9-0.5-1.5-1.2-1.7-2.1c-0.2-0.9-0.3-2.5-0.3-4.7V10.4c0-1.4,0.2-2.5,0.5-3.3c0.3-0.8,1-1.4,2-1.8c1-0.4,2.5-0.6,4.5-0.6V1.4H0
	v3.4c0.9,0.1,1.6,0.3,2.2,0.5c1,0.4,1.7,1,2,1.8C4.4,7.9,4.6,9,4.6,10.4v30.2c0,2.1-0.4,3.5-1.3,4.4c-0.6,0.6-1.7,1-3.3,1.2v3.4
	h40.4l0.3-16H37.4z"/>
</svg>
