<?xml version="1.0" encoding="utf-8"?>
<!-- Generator: Adobe Illustrator 22.0.1, SVG Export Plug-In . SVG Version: 6.00 Build 0)  -->
<svg version="1.1" id="Layer_1" xmlns="http://www.w3.org/2000/svg" xmlns:xlink="http://www.w3.org/1999/xlink" x="0px" y="0px"
	 viewBox="0 0 100 100" style="enable-background:new 0 0 100 100;" xml:space="preserve">
<style type="text/css">
	.st0{fill:#FFFFFF;}
	.st1{fill:none;stroke:#CCCCCC;stroke-width:0.2;stroke-miterlimit:10;}
	.st2{fill:none;stroke:#000000;stroke-miterlimit:10;}
	.st3{font-family:'ArialMT';}
	.st4{font-size:4.3143px;}
	.st5{fill:#0071BC;}
	.st6{fill:#00A99D;}
	.st7{fill:#606060;}
	.st8{fill:#CCCCCC;}
	.st9{fill:#E6E6E6;}
	.st10{fill:#4D4D4D;}
	.st11{fill:#404040;}
	.st12{fill:#808080;}
	.st13{fill:#FF7BAC;}
	.st14{fill:#FCC792;}
	.st15{fill:#F79822;}
	.st16{fill:#B3B3B3;}
</style>
<rect y="0" class="st0" width="100" height="100"/>
<g>
	<line class="st1" x1="-34.9" y1="9.2" x2="58.5" y2="-16.9"/>
	<line class="st1" x1="-30.6" y1="24.8" x2="62.9" y2="-1.3"/>
	<line class="st1" x1="-26.2" y1="40.3" x2="67.2" y2="14.2"/>
	<line class="st1" x1="-21.9" y1="55.8" x2="71.6" y2="29.7"/>
	<line class="st1" x1="-17.5" y1="71.4" x2="75.9" y2="45.3"/>
</g>
<g>
	<g>
		<line class="st2" x1="66.5" y1="58.3" x2="-32.3" y2="85.6"/>
		<g>
			<g>
				<line class="st2" x1="66.5" y1="58.3" x2="66" y2="56.3"/>
				<line class="st2" x1="-32.3" y1="85.6" x2="-32.8" y2="83.7"/>
			</g>
		</g>
	</g>
	<g>
		<g>
			<text transform="matrix(-1.0736 0.2971 0.2667 0.9638 70.8744 58.7293)" class="st3 st4">0</text>
			<text transform="matrix(-1.0736 0.2971 0.2667 0.9638 68.9566 42.5601)" class="st3 st4">10</text>
			<text transform="matrix(-1.0736 0.2971 0.2667 0.9638 64.6644 27.0489)" class="st3 st4">20</text>
			<text transform="matrix(-1.0736 0.2971 0.2667 0.9638 60.371 11.5371)" class="st3 st4">30</text>
			<text transform="matrix(-1.0736 0.2971 0.2667 0.9638 56.0782 -3.9759)" class="st3 st4">40</text>
			<text transform="matrix(-1.0736 0.2971 0.2667 0.9638 51.7853 -19.4859)" class="st3 st4">50</text>
		</g>
		<line class="st2" x1="66.5" y1="58.3" x2="45.1" y2="-19.3"/>
		<g>
			<g>
				<line class="st2" x1="66.5" y1="58.3" x2="64.1" y2="58.9"/>
				<line class="st2" x1="62.2" y1="42.7" x2="59.8" y2="43.4"/>
				<line class="st2" x1="57.9" y1="27.2" x2="55.5" y2="27.9"/>
				<line class="st2" x1="53.6" y1="11.7" x2="51.2" y2="12.4"/>
				<line class="st2" x1="49.4" y1="-3.8" x2="46.9" y2="-3.1"/>
				<line class="st2" x1="45.1" y1="-19.3" x2="42.6" y2="-18.6"/>
			</g>
		</g>
	</g>
	<g>
		<g>
			
				<rect x="-30.8" y="18.9" transform="matrix(0.9638 -0.2667 0.2667 0.9638 -14.6458 -5.6551)" class="st5" width="5.3" height="64.4"/>
		</g>
	</g>
	<g>
		<g>
			
				<rect x="-19.8" y="56.8" transform="matrix(0.9638 -0.2667 0.2667 0.9638 -18.9838 -2.0837)" class="st6" width="5.3" height="24.1"/>
		</g>
	</g>
	<g>
		<g>
			
				<rect x="-10.6" y="37.9" transform="matrix(0.9638 -0.2667 0.2667 0.9638 -15.7525 -2.176743e-02)" class="st5" width="5.3" height="40.2"/>
		</g>
	</g>
	<g>
		<g>
			
				<rect x="-6.1" y="28.4" transform="matrix(0.9638 -0.2667 0.2667 0.9638 -14.1413 0.9818)" class="st6" width="5.3" height="48.3"/>
		</g>
	</g>
	<g>
		<g>
			
				<rect x="9.5" y="56.9" transform="matrix(0.9638 -0.2667 0.2667 0.9638 -16.8823 5.5921)" class="st7" width="5.3" height="16.1"/>
		</g>
	</g>
	<g>
		<g>
			
				<rect x="6.6" y="-7.9" transform="matrix(0.9638 -0.2667 0.2667 0.9638 -8.2903 3.6364)" class="st5" width="5.3" height="80.5"/>
		</g>
	</g>
	<g>
		<g>
			
				<rect x="26.5" y="52.2" transform="matrix(0.9638 -0.2667 0.2667 0.9638 -15.0092 9.9538)" class="st5" width="5.3" height="16.1"/>
		</g>
	</g>
	<g>
		<g>
			
				<rect x="30" y="34.9" transform="matrix(0.9638 -0.2667 0.2667 0.9638 -12.4141 10.5571)" class="st6" width="5.3" height="32.2"/>
		</g>
	</g>
	<g>
		<g>
			
				<rect x="43.4" y="47.5" transform="matrix(0.9638 -0.2667 0.2667 0.9638 -13.1466 14.2908)" class="st5" width="5.3" height="16.1"/>
		</g>
	</g>
	<g>
		<g>
			
				<rect x="50.1" y="53.9" transform="matrix(0.9638 -0.2667 0.2667 0.9638 -13.5315 16.1657)" class="st6" width="5.3" height="8"/>
		</g>
	</g>
</g>
<polygon class="st8" points="89,-5 50,77 111,104 132,22 "/>
<polygon class="st9" points="92,-6 53,76 114,103 135,21 "/>
<g>
	<path class="st10" d="M98.3,49.8l-5.4-2.2c-1.6-0.6-2.3-2.4-1.7-4l1.1-2.6c0.6-1.6,2.4-2.3,4-1.7l5.4,2.2c1.6,0.6,2.3,2.4,1.7,4
		l-1.1,2.6C101.7,49.7,99.9,50.4,98.3,49.8z"/>
	<path class="st10" d="M92.4,64.1L87,61.9c-1.6-0.6-2.3-2.4-1.7-4l1.1-2.6c0.6-1.6,2.4-2.3,4-1.7l5.4,2.2c1.6,0.6,2.3,2.4,1.7,4
		l-1.1,2.6C95.8,64,94,64.8,92.4,64.1z"/>
	<path class="st10" d="M86.5,78.5l-5.4-2.2c-1.6-0.6-2.3-2.4-1.7-4l1.1-2.6c0.6-1.6,2.4-2.3,4-1.7l5.4,2.2c1.6,0.6,2.3,2.4,1.7,4
		l-1.1,2.6C89.9,78.4,88.1,79.1,86.5,78.5z"/>
	<path class="st10" d="M84.5,44.1L79,41.9c-1.6-0.6-2.3-2.4-1.7-4l1.1-2.6c0.6-1.6,2.4-2.3,4-1.7l5.4,2.2c1.6,0.6,2.3,2.4,1.7,4
		l-1.1,2.6C87.8,44,86,44.7,84.5,44.1z"/>
	<path class="st10" d="M78.6,58.4l-5.4-2.2c-1.6-0.6-2.3-2.4-1.7-4l1.1-2.6c0.6-1.6,2.4-2.3,4-1.7l5.4,2.2c1.6,0.6,2.3,2.4,1.7,4
		l-1.1,2.6C81.9,58.3,80.1,59.1,78.6,58.4z"/>
	<path class="st10" d="M72.7,72.8l-5.4-2.2c-1.6-0.6-2.3-2.4-1.7-4l1.1-2.6c0.6-1.6,2.4-2.3,4-1.7l5.4,2.2c1.6,0.6,2.3,2.4,1.7,4
		l-1.1,2.6C76,72.6,74.2,73.4,72.7,72.8z"/>
</g>
<path class="st10" d="M91.5,28.7L85.9,27c-1.6-0.5-2.5-2.2-2.1-3.8l0.8-2.7c0.5-1.6,2.2-2.5,3.8-2.1l5.6,1.7
	c1.6,0.5,2.5,2.2,2.1,3.8l-0.8,2.7C94.8,28.2,93.1,29.1,91.5,28.7z"/>
<g>
	<g>
		<g>
			<path class="st11" d="M41,108.7L24.7,130c-11.7-9-13.9-25.8-5-37.5c1.8-2.3,3.6-4.1,6.1-5.8L41,108.7z"/>
		</g>
	</g>
	<g>
		<g>
			<path class="st12" d="M41,108.7l-0.7,26.8c-5.9-0.2-10.9-1.9-15.6-5.5L41,108.7z"/>
		</g>
	</g>
	<g>
		<g>
			<path class="st6" d="M41,108.7l16.3-21.2c11.7,9,13.9,25.8,5,37.5c-5.4,7-13.1,10.7-21.9,10.5L41,108.7z"/>
		</g>
	</g>
	<g>
		<g>
			<path class="st5" d="M41,108.7l-15.2-22c9.7-6.7,22.1-6.4,31.5,0.8L41,108.7z"/>
		</g>
	</g>
</g>
<g>
	<path class="st13" d="M-33.3,32.5l-4.2,9.7c-0.2,0.5-0.8,0.7-1.2,0.5l-8.1-3.6c-0.5-0.2-0.7-0.8-0.5-1.2l4.2-9.7
		c0.2-0.5,0.8-0.7,1.2-0.5l8.1,3.6C-33.3,31.4-33.1,32-33.3,32.5z"/>
	<polygon class="st14" points="67,90.3 71.7,79.4 82.2,89.7 	"/>
	<path class="st15" d="M-39.9,41.7l4.9-10.9L73,79.9l-4.9,10.9L-39.9,41.7z"/>
	<polygon points="75.9,90 77.9,85.5 82.2,89.7 	"/>
</g>
<path class="st16" d="M46.6,90H27.4c-0.2,0-0.4-0.2-0.4-0.4v-1.1c0-0.2,0.2-0.4,0.4-0.4h19.1c0.2,0,0.4,0.2,0.4,0.4v1.1
	C47,89.8,46.8,90,46.6,90z"/>
</svg>
