<?xml version="1.0" encoding="utf-8"?>
<!-- Generator: Adobe Illustrator 22.0.1, SVG Export Plug-In . SVG Version: 6.00 Build 0)  -->
<svg version="1.1" id="Layer_1" xmlns="http://www.w3.org/2000/svg" xmlns:xlink="http://www.w3.org/1999/xlink" x="0px" y="0px"
	 viewBox="0 0 100 100" style="enable-background:new 0 0 100 100;" xml:space="preserve">
<style type="text/css">
	.st0{fill:#FFFFFF;}
	.st1{fill:#FBB03B;}
	.st2{fill:#EFC7B0;}
	.st3{fill:#0071BC;}
	.st4{fill:#DABCAA;}
	.st5{fill:#FCEE21;}
	.st6{fill:#F0BEB4;}
	.st7{fill:#FF0000;}
	.st8{fill:#B08874;}
	.st9{fill:#22B573;}
	.st10{fill:#CEA28B;}
	.st11{fill:#93278F;}
	.st12{fill:#F0D0B4;}
	.st13{fill:#FF7BAC;}
	.st14{fill:#9C7761;}
</style>
<rect class="st0" width="100" height="100"/>
<g>
	<path class="st1" d="M9.9,75c0,0-4.5-28.5,11.6-32.1c0,0,13.4-1.8,12.5,32.1H9.9z"/>
	<g>
		<circle class="st2" cx="21" cy="38" r="12"/>
	</g>
</g>
<g>
	<path class="st3" d="M65.5,44c0,0-2.7-17.5,7-19.6c0,0,8-1.1,7.5,19.6H65.5z"/>
	<g>
		<ellipse class="st4" cx="72.2" cy="21.4" rx="7.2" ry="7.4"/>
	</g>
</g>
<g>
	<path class="st5" d="M80.5,49c0,0-2.7-17.5,7-19.6c0,0,8-1.1,7.5,19.6H80.5z"/>
	<g>
		<ellipse class="st6" cx="87.2" cy="26.4" rx="7.2" ry="7.4"/>
	</g>
</g>
<g>
	<path class="st7" d="M55.5,51c0,0-2.7-17.5,7-19.6c0,0,8-1.1,7.5,19.6H55.5z"/>
	<g>
		<ellipse class="st8" cx="62.2" cy="28.4" rx="7.2" ry="7.4"/>
	</g>
</g>
<g>
	<path class="st9" d="M68.5,66c0,0-2.7-17.5,7-19.6c0,0,8-1.1,7.5,19.6H68.5z"/>
	<g>
		<ellipse class="st10" cx="75.2" cy="43.4" rx="7.2" ry="7.4"/>
	</g>
</g>
<g>
	<path class="st11" d="M57.5,77c0,0-2.7-17.5,7-19.6c0,0,8-1.1,7.5,19.6H57.5z"/>
	<g>
		<ellipse class="st12" cx="64.2" cy="54.4" rx="7.2" ry="7.4"/>
	</g>
</g>
<g>
	<path class="st13" d="M80.5,76c0,0-2.7-17.5,7-19.6c0,0,8-1.1,7.5,19.6H80.5z"/>
	<g>
		<ellipse class="st14" cx="87.2" cy="53.4" rx="7.2" ry="7.4"/>
	</g>
</g>
<g>
	<g>
		<path d="M49.6,5.1c-5-0.3-10.4-0.5-14.3,3.1c-1.8,1.6-3,3.7-4,5.9c0-0.1-1,2.5-1,2.5c-1.2,0.2-1.6-3.3-1.8-4.3
			c-0.3,0.1-0.6,0.2-0.9,0.2c0.4,2.4,1.2,4.2,2.6,6.2c0.1,0.2,0.3,0.3,0.5,0.2c2.1-0.7,4.2-1.5,6.3-2.2c0.5-0.2,0.3-1.1-0.2-0.9
			c-1.6,0.6-3.9,1.9-5.6,1.5c-2-0.5-2.3-3.2-2.6-5.1c-0.1-0.6-1-0.3-0.9,0.2c0.3,2.2,1,3.8,2.2,5.6c0.2,0.3,0.7,0.3,0.8-0.1
			c1.4-3.8,3.1-8.1,6.7-10.4c3.6-2.3,8.1-2,12.2-1.7C50.2,6,50.2,5.1,49.6,5.1L49.6,5.1z"/>
	</g>
</g>
<g>
	<g>
		<path d="M44.1,89c4.6,3.3,9.4,6.5,15.3,4.6c1.3-0.4,6.7-4.1,7.3-3.8c0.8,0.5-1,5.6,0.9,2.1c0.5-1.1,0.3-3,0.3-4.1
			c0-0.2-0.1-0.4-0.3-0.4c-2.2-0.5-4.3-1-6.5-1.5c-0.6-0.1-0.8,0.7-0.2,0.9c1.7,0.4,4.3,0.5,5.5,1.8c1.4,1.6,0.2,3.9-0.5,5.7
			c-0.2,0.5,0.6,0.8,0.9,0.2c0.9-2.1,1.2-3.7,1.1-6c0-0.3-0.4-0.6-0.7-0.4c-3.3,2.4-7,5.2-11.3,5.2c-4.3,0-7.9-2.7-11.2-5.1
			C44.1,87.8,43.7,88.6,44.1,89L44.1,89z"/>
	</g>
</g>
</svg>
