<?xml version="1.0" encoding="utf-8"?>
<!-- Generator: Adobe Illustrator 22.0.1, SVG Export Plug-In . SVG Version: 6.00 Build 0)  -->
<svg version="1.1" id="Layer_1" xmlns="http://www.w3.org/2000/svg" xmlns:xlink="http://www.w3.org/1999/xlink" x="0px" y="0px"
	 viewBox="0 0 45 45" style="enable-background:new 0 0 45 45;" xml:space="preserve">
<style type="text/css">
	.st0{fill:#666666;}
	.st1{fill:none;stroke:#808080;stroke-miterlimit:10;}
	.st2{fill:#FEB205;}
	.st3{fill:#B3B3B3;}
	.st4{fill:#FFCC00;}
	.st5{fill:none;stroke:#FFFF00;stroke-miterlimit:10;}
	.st6{fill:#F7931E;}
	.st7{fill:none;stroke:#F15A24;stroke-width:0.5;stroke-miterlimit:10;}
	.st8{fill:#FFFF00;}
</style>
<path class="st0" d="M25,41h-4c-0.5,0-1-0.5-1-1v-1c0-0.5,0.4-1,1-1h4c0.5,0,1,0.5,1,1v1C26,40.5,25.6,41,25,41z"/>
<polyline class="st1" points="0.5,24.5 0.5,0.5 22.5,0.5 "/>
<polyline class="st1" points="44.5,20.5 44.5,44.5 22.5,44.5 "/>
<path class="st2" d="M25.3,38.5h-4.6c-1.2,0-2.2-1-2.2-2.2v-7.6c0-1.2,1-2.2,2.2-2.2h4.6c1.2,0,2.2,1,2.2,2.2v7.6
	C27.5,37.5,26.5,38.5,25.3,38.5z"/>
<path class="st3" d="M27.5,34.7h-9c-0.5,0-1-0.5-1-1v-0.2c0-0.5,0.4-1,1-1h9c0.5,0,1,0.5,1,1v0.2C28.5,34.2,28.1,34.7,27.5,34.7z"/>
<path class="st3" d="M27.5,36.8h-9c-0.5,0-1-0.4-1-1v-0.2c0-0.5,0.4-1,1-1h9c0.5,0,1,0.4,1,1v0.2C28.5,36.4,28.1,36.8,27.5,36.8z"/>
<path class="st3" d="M27.5,39h-9c-0.5,0-1-0.5-1-1v-0.2c0-0.5,0.4-1,1-1h9c0.5,0,1,0.5,1,1V38C28.5,38.5,28.1,39,27.5,39z"/>
<path class="st4" d="M22.5,30L22.5,30c-5.2,0-9.5-4.3-9.5-9.5v0c0-5.2,4.3-9.5,9.5-9.5h0c5.2,0,9.5,4.3,9.5,9.5v0
	C32,25.7,27.7,30,22.5,30z"/>
<path class="st5" d="M49.5,36.5"/>
<path class="st6" d="M11.8,13.7L8,12.1c-0.3-0.1-0.4-0.4-0.3-0.7l0,0c0.1-0.3,0.4-0.4,0.7-0.3l3.7,1.6c0.3,0.1,0.4,0.4,0.3,0.7v0
	C12.3,13.7,12,13.8,11.8,13.7z"/>
<path class="st6" d="M10.2,22.7l-4,0.6c-0.3,0-0.5-0.2-0.6-0.4l0,0c0-0.3,0.2-0.5,0.4-0.6l4-0.6c0.3,0,0.5,0.2,0.6,0.4v0
	C10.7,22.4,10.5,22.6,10.2,22.7z"/>
<path class="st6" d="M34.4,13.7l3.7-1.6c0.3-0.1,0.4-0.4,0.3-0.7v0c-0.1-0.3-0.4-0.4-0.7-0.3L34,12.8c-0.3,0.1-0.4,0.4-0.3,0.7v0
	C33.9,13.7,34.2,13.8,34.4,13.7z"/>
<path class="st6" d="M36,23.7l4,0.6c0.3,0,0.5-0.2,0.6-0.4l0,0c0-0.3-0.2-0.5-0.4-0.6l-4-0.6c-0.3,0-0.5,0.2-0.6,0.4v0
	C35.5,23.4,35.7,23.6,36,23.7z"/>
<path class="st6" d="M22.6,8.5V4.4c0-0.3,0.2-0.5,0.5-0.5h0c0.3,0,0.5,0.2,0.5,0.5v4.1c0,0.3-0.2,0.5-0.5,0.5l0,0
	C22.8,9,22.6,8.8,22.6,8.5z"/>
<path class="st2" d="M13.5,23.5c0,0,14,8.3,17.8-6.7c0,0,3.8,8.5-4.7,12.4C26.5,29.2,17.9,33.1,13.5,23.5z"/>
<path class="st7" d="M21.2,32.5c0,0,0.3-9-2.7-12l3,1l1-2l1,2l4-2c0,0-3.4,6-2.7,13"/>
<g>
	<g>
		<path class="st8" d="M21.5,13.2c-2.8-0.2-5.2,2.4-5.8,4.9c-0.2,0.7,1,1.1,1.2,0.3c0.5-2,2.4-4.2,4.7-4
			C22.2,14.4,22.2,13.2,21.5,13.2L21.5,13.2z"/>
	</g>
</g>
</svg>
