<?xml version="1.0" encoding="utf-8"?>
<!-- Generator: Adobe Illustrator 22.0.1, SVG Export Plug-In . SVG Version: 6.00 Build 0)  -->
<svg version="1.1" id="Layer_1" xmlns="http://www.w3.org/2000/svg" xmlns:xlink="http://www.w3.org/1999/xlink" x="0px" y="0px"
	 viewBox="0 0 45 45" style="enable-background:new 0 0 45 45;" xml:space="preserve">
<style type="text/css">
	.st0{opacity:0.5;fill:#29ABE2;}
	.st1{opacity:0.5;fill:#22B573;}
	.st2{fill:none;stroke:#808080;stroke-miterlimit:10;}
</style>
<circle class="st0" cx="22.6" cy="23.3" r="14.7"/>
<path class="st1" d="M14.9,15.2"/>
<path class="st1" d="M11.5,13.2c0,0,0.1,0.8-0.3,0.9c0,0-0.3,0.6,0.4,0.3c0,0,0.3,0.1,0,0.8c0,0-0.3,0.8,0.3,0.6
	c0,0,0.1,0.3-0.3,0.3c0,0-0.5-0.1-0.2,0.2c0,0,0.4,0.1,0.2,0.3c0,0-0.5,0.1-0.2,1.3c0,0,0.1,1.8,0.7,1.2c0,0,0.3,0.8,0.4-0.2
	c0,0,0.6-0.7,0.6-1.5c0,0,0.9-0.1,1-1.2c0,0,0.6,0.1,1.1-0.5c0,0,1.2-0.8,0.3-1.4c0,0-0.4-0.3,0.2-0.1c0,0,0.5,0.1,0.3-0.4
	c0,0,0.5,0.1,0.3-0.4c0,0,0.4,0.1,0.1-0.5c0,0-0.3-0.7,0.1-0.4c0,0,0.9,0,0.1-0.6c0,0,0.4-1,0.8-1.1c0,0,0.3-0.6-0.4-0.2
	c0,0-0.4,0.2-0.4,0c0,0,0.3,0,0.3-0.2c0,0-0.2-0.3-0.6,0c0,0-0.8-0.2-1,0.3c0,0-0.6,0.1-0.5,0.6c0,0-0.5-0.2-0.6,0.3h-0.3l0.1-0.3
	L11.5,13.2z"/>
<path class="st1" d="M9.9,15.8c0,0-0.3,0.5,0.4,0.5c0,0,0.1,0.2-0.1,0.7c0,0-0.1,0.5,0.3,0.9c0,0,0.1,0.5-0.5,0.4
	c0,0-0.1,0.4,0.1,0.5c0,0,0.1,0.5-0.5,0.3c0,0,0.2,0.5-0.1,0.5c0,0-0.3,0-0.3-0.3c0,0-0.7-0.1,0-0.8c0,0-0.4-0.1,0.1-0.7
	c0,0,0.2-0.5-0.1-0.3H9.2C9.2,17.4,9.4,16.5,9.9,15.8z"/>
<path class="st1" d="M7.9,21.5c0,0,0.3,0.1,0.4,1.1c0,0,0.5-0.1,0.3-1.1c0,0,0.3-0.3,0.1-0.6c0,0-0.6-1.2,0.3-1.2c0,0,0.3,0,0.3,0.6
	c0,0,0.1-0.3,0.3-0.3c0,0,0.3,0.6,0,1.1c0,0,0.7-0.2,0.7,0c0,0,0.1,0.2-0.1,0.3c0,0,0.6,0.3,0,1c0,0,0.3,0.2,0.3,0.8
	c0,0,0,0.2,0.2,0.1c0,0-0.6,1-0.8-0.6c0,0-1.3,0.7-0.6,0.8c0,0,0.7,0.6,0.8,0.8c0,0-0.3,0.8-0.9,0c0,0-0.6,1.2-0.5,1.9
	c0,0-0.1,0.6,0.3,0.7c0,0-0.1,0.6-0.1,0.8c0,0,0.4,0.7,0.4,1.2c0,0,0.4,0.9,0.8,1c0,0-0.5,0.3-0.9-0.4C9.2,29.4,7.3,25.2,7.9,21.5z"
	/>
<path class="st1" d="M37.2,25.7c0,0-0.3-0.1-0.3-1.2c0,0-1,1.6-1,2.2c0,0-0.6,2.1-0.7-0.2v-1.2c0,0-0.6,0.8-0.6-0.4l-2.2-0.1
	c0,0-1.5-1-1.3-0.1c0,0,0.7,0.9,1,0.9c0,0,0.5,0.1,0.5-0.2c0,0,0.8,0.4,0.6,1.2l-1.8,1.8c0,0-0.8,0.4-1-0.8l-1.6-1.8
	c0,0-0.3-0.1-0.3,0.1l1.6,1.7c0,0,0.6,1.7,1.2,1.5c0,0,0.6-0.7,1-0.6c0,0,0.1,1.3-0.8,2.1c0,0-0.5,1-0.8,1.2c0,0-0.3,0.3-0.1,1.5
	c0,0-0.3,1.3-1,1.3c0,0,0,1.4-0.5,1.2c0,0-0.3,1.4-1.6,1.4c0,0-1.7,0.6-1.8-1.1c0,0-1-0.1-0.4-1.5c0,0-0.6-0.3-0.4-1
	c0,0-0.7,0.2-0.8-0.3c0,0,0.6-0.8,0-1c0,0-0.2-0.2-0.7,0c0,0-0.6,0-0.6-0.3c0,0-0.1,0.6-1.1,0.4c0,0-1,1-1.7,0c0,0-1.6-0.3-1.5-1.2
	c0,0-0.8-0.1-0.3-1c0,0-1-1.7,0.6-2.6c0,0-0.2-0.8,0.2-0.8c0,0,0-1,0.8-1.3c0,0,0.3-0.2,0.6-0.1c0,0,1.4-0.9,2.8-0.8l0.1,0.8
	c0,0,1.5,0.1,1.9,0.6c0,0,0.5,0.1,0.4-0.6c0,0-0.2-0.5,0.7-0.1c0,0,0.3-0.3,1.1,0c0,0,1.7-0.4,1.4-1.4c0,0-0.6-0.2-0.6,0.3
	c0,0-0.3,0.2-0.5-0.2c0,0-1,0.8-0.9-0.1l-0.6-0.3l1.4-1.2c0,0,0.3-0.4,1,0c0,0,1-0.2-0.7-1c0,0-0.7,0.7-0.8-0.2c0,0-0.1,1.2-0.6,1
	c0,0,0.2,1.2-0.8,1.1c0,0-0.1,0.7,0.3,0.6c0,0,0.1,0.3-0.2,0.3l0.1,0.3c0,0-0.3,0.3-0.5-0.5c0,0-0.6,0.1-0.5-0.8c0,0-1.2-0.6-1.3-1
	c0,0-0.4-0.1-0.2,0.3c0,0,0.6,0.8,1,0.7c0,0,0.4,0.2,0,0.6c0,0,0,0.6-0.2,0.8c0,0-0.2-0.1-0.2-0.8c0,0-1.3-0.3-1.3-0.9
	c0,0-0.6-0.6-0.8,0.3c0,0-0.2,0.2-0.6,0c0,0-0.3,0.1-0.2,0.8c0,0-0.3,0.1-0.2,0.5c0,0-0.6,1.2-1.6,0.9c0,0-1.2-0.3-0.6-1.1
	c0,0-0.5-0.8,0.6-0.9h0.6c0,0,0.3-0.9-0.4-1.1c0,0-0.6-0.2,0.6-0.7c0,0,0.8-0.7,0.8-1.3c0,0-0.1-0.4,0.4-0.4c0,0-0.3-1.2,0.5-1.2
	c0,0,0.3,0,0.3,0.8c0,0,0.4,0.3,1.2-0.3c0,0,0.7,0.6,0.7-0.8c0,0,0.4,0.4,0.6-0.1c0,0,0.1-0.3-0.6-0.3c0,0-0.6-0.2,0.6-0.5
	c0,0,0.6,0,0.5-0.4c0,0-0.5-0.1-0.8,0.3c0,0-1,0.2-1-0.8c0,0,0.8-1,0.3-1.2c0,0-0.4-0.2-0.9,1.4c0,0,0.1,0.8,0.6,0.6
	c0,0-0.3,0.3-0.2,0.6c0.1,0.3-0.2,0.5-0.2,0.9c0,0-0.7,0.4-0.9-0.6c0,0-0.5-0.3-0.6,0.1c-0.1,0.5-1.2-0.5-1.1-1c0,0,1.5-0.8,1.4-3
	c0,0,0.7-0.1,0.8-0.7l0.9-0.1c0,0,0.4-0.6,0.8-0.1c0,0,2.1,0.3,2,0.8c0,0-0.1,0.6-0.8,0.6l0.4,0.3c0,0,0.3-0.8,0.7-0.8
	c0,0-0.4-0.6,0.1-0.8c0,0,0.3-0.1,0.3,0.4l0.3-0.1c0,0-0.2-0.5,0.7-0.5c0,0,0.3-0.3,0.8,0.1c0,0-0.5-0.3-0.2-0.9l0.9,0.7h0.3v-0.3
	c0,0-1.4-0.9-0.8-1.1c0,0,1.4,0.8,1.4,1.4l-0.1,0.6c0,0,0.8-0.4-0.1-1.6c0,0-0.3-0.2-0.1-0.8c0,0-0.6-0.3,0.1-0.8
	c0,0,4.4,2.5,5.9,7.1C36.1,17.6,37.8,21.3,37.2,25.7z"/>
<polyline class="st2" points="0.5,24.5 0.5,0.5 22.5,0.5 "/>
<polyline class="st2" points="44.5,20.5 44.5,44.5 22.5,44.5 "/>
</svg>
